<mxfile host="app.diagrams.net" agent="Mozilla/5.0 (Windows NT 10.0; Win64; x64) AppleWebKit/537.36 (KHTML, like Gecko) Chrome/129.0.0.0 Safari/537.36" version="24.7.17">
  <diagram name="페이지-1" id="0ILOu5GAXkUKXRG8bzZM">
    <mxGraphModel grid="1" page="1" gridSize="10" guides="1" tooltips="1" connect="1" arrows="1" fold="1" pageScale="1" pageWidth="827" pageHeight="1169" math="0" shadow="0">
      <root>
        <mxCell id="0" />
        <mxCell id="1" parent="0" />
        <mxCell id="PoTzArwX_vz-64FjDAHw-6" value="" style="rounded=0;whiteSpace=wrap;html=1;fillColor=none;" vertex="1" parent="1">
          <mxGeometry x="190" y="20" width="380" height="460" as="geometry" />
        </mxCell>
        <mxCell id="PoTzArwX_vz-64FjDAHw-5" value="" style="rounded=0;whiteSpace=wrap;html=1;fillColor=none;" vertex="1" parent="1">
          <mxGeometry x="100" y="630" width="630" height="480" as="geometry" />
        </mxCell>
        <mxCell id="PoTzArwX_vz-64FjDAHw-1" value="" style="shape=image;verticalLabelPosition=bottom;labelBackgroundColor=default;verticalAlign=top;aspect=fixed;imageAspect=0;image=data:image/png,iVBORw0KGgoAAAANSUhEUgAAAUgAAAFICAYAAAAyFGczAAAAAXNSR0IArs4c6QAAAARnQU1BAACxjwv8YQUAAAAJcEhZcwAADsMAAA7DAcdvqGQAAIQWSURBVHhe7Z0J3H3HfP8P2n9VEbHGnkgiggRBEvtOxa6IpbqorYJoqTW1FLVUSxWtfZdoVKsi1L7TpFIhCUFsSZQgqeq+/n/vye/95PObnPs8997nLueeez6v1/fOzHfmnDPzme98Z856L/J/O9B0EFRLARe96EWbi1zkIs1//ud/Fh1xBJj+mZ/5mRKS/t///d8NPbC86b5D3gjb5GIXu1gR4v/93//d/M///E/h72d/9mdLHP6SM3nrM3+0GcgRoL3YHmnicAXgifKkk89Rdme8z5AzQsW0bVePrckr9ga0RwR0gbuVcJAI5AHIhCwdJsAoU+82IMsti+RFwTaPCpMvdKSTV7hCiJMvd33nL3lSaKt6eSGNQ4Q/BngOaMuT5zYg+es75ALIh+NSOwPaX/Ja85e8GS4DK+MgIQkyJQsdZEokcQe5yPKGfQV8GGZcyAUid/Kn8RJPvWJeH1HzhsgVcWwKfmw/3PzXf/1XibsKsix5gHTKOiD5A/KSnJinHskxmvnqDJeFzjlIq5Oh8SRS4iHYmdzZqpa+o+aKNsOPetJwpI40vBFnRZQc5jZyZ9hH2N7kRi5cLcqFjhKdk7HbCMsq6wA5JIQbQNvT+TGpaGtcnkAPh8kfoWJ62bhgudUBJNGGxgHkKwACIRxIdMo6Qa6y/W38YaQOfLhDiGOsyatYBx6TI/ggDUcOYPlhkJN2kOMwtT8g7+sCuJC7Oq6dqZcXuWxDF+2uMw5SIhWIJExogAinNwjxLGu+8b4jOUoOHLw6PYBebuWs5qstvm6AFwQOcYT/7//9vyLw6aCXm+Swlr5CfkTGgWknFcBYhcPkJrmC20x3BZ04xaYKVsO4pBHPQS7MT+coyaBLJM8bciR3ubLBQMnDOIGrIk8Xnc2J19z1nUPtRt5A2lDCfAe8/IKau77yJgci03Jo++VAvphoamh7XR63S3WQNcEOcghL0tC1LcvJJ48wZV0gf8kdgDscoGlWPcAVt2AbpI27vvMoN4C4Qru1PdLYHRzBJ1KvIAkV030F7RZwItTTdrgzLk9emvDaI3HtNce5YZewcAeZh6vjCCRBGgRinA5q4uaDrcI+o403Be4Q4nAIf4QMbLhhkOd26BSwrvwZr0Pj8KiDFOvEXRsntFdHiU7bgyPHrvbG88vkkXYfyV9XuVvYNcgkti2eIiTXWduBL2pyu0ryLJE8OQsnJwAe4IyZW8eIsQJ0Odko6wL5QpI/RMgHITYHd4Pt7Qr4UORRyCe2Rh7c6BjbbK/L3C30Jo3EpdRGqki+hEIw6VHEdpnkWQEeDFNSZxw+CGsjrTkUdbqPqDky3tZ20nCVqyB5TAGGfUdy5rh1nGZe2lhC3aj8LmJhp9hJICAOyUDCgLo2o8x9JMGGfYbtrjkgrrEi8IYQ93RQHeWSz3XlTxuj3dqe/Jkn5Mnt5aoO+w75ScGmdI4sZOCOCUW+EPOTc8V0l7EQBylZSJIDqcQhMSGZqUdnVTVq0HWCZ4XkEGCcQB38wCdw1WNZYBn5Xxf+5CBDhHY7eBFtyklF1PyQVlfn9Q1yJuRKfdogXOTZntzkNnJnnmGXsXAHiWiMCGkHN2lJd7DXJK6jcwTJH4AHkE5PLgmTJ7dL3pQ+Qo4MQeoQ+EG0M+wO7uRTJE+1vq/Yij9A++UPnde4ScOh9inkUVkVzN1Bsvs2gcAklbtcEIehopfomlhl3VDzBwcaKDzBmUaJDmTZ5C3jfQPtNTQOaj1cYWvE4QLOEHgkbfmaq77yJmqeTAt1jl0f4XHcAicaAF9wLW+rxt+ubn5GkESlBjpOZRDi6SxJQ+IoWWdk++U1eUHn7K2zrHnLeN8gJ8kNcdPA9sMTenkinpNMG/rM3SjQZtstlwp6z/h0ipZ1u834XAXMfAWZuzNOaDzJllAM0zISqwGbRoDhOkKOkqs0QFeT6Mhr4w9kvC+grUK7QtCTBg5moH2hsxyheuA+jK8DaLsCcgKBG2yMOHrezlIPLOsZjPwlj6uGmTnI3A1x06l34CLqWaKTxkmqRyDdssq6Q24UkDM4hilPNW8Z7yPkI/mRG+K23XKk5SydZOanrAvkAKHdjFk5AcThTN4ct+bBqdumrCpm7iAJM24I0RAquekQcZLkIRIM0qEOOB9wg8iTgzt5k6/kru8c2na5EckPl3SwPewK+yPPL9SjA3KmqFsXwEVyCEek4Y64PFmGMPmpeVt17i44P9sGIMlQwjTM1BFqpGmYlEXnNUmgcxxwYcCLUvMlZ3W8r6D9cpBxgE15EwEO5MiBXetTBlzgBOWj5pJJBgHoE33hcCYOsg0QpuERT2LVOUulHhAf0A45IjQuv0B9lusjss3AtLoMmXgBEzEDWluruWrTm7cusL22XR7hzU++MW51luZbvpZVx0xOsSVKARCJkNZAnW2Y2dG7ZCcN6WmgoA8EzwNyXIc1b33lz/aC5CB5UNBhX8CzGkGekzS2B9xunSGXCnzAHYAvz/RyjCd/Ga46tuUgc1PiKRAmqaQhVaKTPJ0luiQ3ywy4MOBMGE/O+sqfbc0wuaDd2Jh6echVpDoGu2VS1h3ySegE4ljWOSZXjHXjfeNvKgdZb2JaMgGE5uxMGZyhxCLo3DZnoL6RPA/UfZDoM3/aDGI7sTNtzVNoTgGxN9I6zLQ/+Rvsrh3JMwJPCDzX41je+sjfxBf7NCyJgzDj6iUKIjVUdGmoiGVrGbA12vhaBn/2+2agTJuYhy2wMsFWCLUN89tEZJvREydkH9gm+yO0HHk6U7cb0A45A8m7+sw37BsmXkFKVG6WaUIcIbMNxolAnn9ylDMQoFzfSe4r7Pfst0wT/4//+I/mvPPOa84999wiP/nJT5p//ud/bv71X/+1+fd///fyNANlcsLETn7u536u3BS4+MUv3lziEpdoLnnJSza77bZbs/vuuzeXucxlSkgZyrKNjtUVo2nyXFVie+ksEZDxARfA/kWAHNlPyV9fMZWDdAbG6AA6Z2yAgSLq1UEkZTzk4BxXG/ajIX37ox/9qPnWt77VfPvb327OOuus5h/+4R+aH/7wh8VJIv/0T/+0i4N01ajtAOwCp8akioP8hV/4heIkcZA6x8tf/vLNla985WbPPfds9tprr+aa17xmc+lLX7rYEdvpEEkj1NFjqENMD7gw7FeQ8XXgzfZO5CApqkCODhJgfCkaaYLtNNLBOa42tANWgKeddlrzxS9+sTnllFOKY/zBD37QnHPOOWXF+NOf/rQ4QLcZ1dfkiXHsAQeKo9xjjz2aK1zhCs0Vr3jF4iSvfe1rN9e73vWa61//+sW5si9tzuMrYJxjrTOyX2r0mTvaXexlx89UDhLg5ExrdMQxyNSpR9wOHTAc0A3YR8K+S3BK/KUvfan52Mc+1nz+858vK0Uc4o9//OOyMgT2f73trMAZiafYfgmK1eVlL3vZIqwwDznkkObWt751c+CBBxZnCShXT9xisMUBAJvVbqd2kIjG5imS/3ubZZy9Nb7BOXYb2bcZIt/97nebv/mbv2mOP/745hvf+EZxilxT9DIKZRYB6oQduULkVB0746wFp4mONHEc5d57793c9a53LXKNa1xjFwdp+8AoxzlgvaC9IxNfg3R1SIhxea2RNKc9xBHysjxAlzKge7CvAHEmP1aLb3nLW5qPfOQj5Zriv/zLv2xMivSj/Z3bzhLYGOLbGxwLZ4YDxOa80YOea5XocJrqSHMdk2uWd7jDHZqHPvShzQEHHFAcKvkIMByw3sDGlKlv0rgDDDeNDCMmX727t0yWHdA90HcAp3PSSSc1L3/5y5sPf/jDG9cS7ffsQ/t4HsCJ/fzP/3yJUzecntc0OWPBSQJWsThNhDin+lkv4jpa7ojjKI888sjmxje+cdkPGFaQ6420F33cVA4yBegMdY4YmgNIh5jpAd1Bdj99h/M59dRTmxe84AXNcccdVxxl9vWi4Yow7QYHSL2oLw7UfIT6s3r0tL8NlmW7u93tbs3Tn/70cp0SO04nmccc0F+kbRvX5qdykEAPi2hYrjCARqiIwei6Bfvw3/7t38od6Je97GXN2972tg0HRH/Zp8sAtsXpMXVhAsYhoqNO6ohTT9Jpg5tBOyRkBfmQhzyk+a3f+q3y2BAr1mE1uR7QVjJM+5nYQQJ3omBkGq0zNzrF9IBugf7CMZ599tnNO9/5zuYVr3hFeWaRvsr+XSaoCzdjcGKuDEnrwMhHZ94k9U3bRLj7/bjHPa554AMf2FztalfbuAk0oJ/QVmpbTxua2kEaKp5WM4sDjW4wsO6B/qKfvv/97zef/OQnm1e+8pXNiSeeWFZjNezrZQH7wbY41SaOE2QyZqVIG5yYfRtnErA/tk0bZYV6k5vcpDniiCOa29zmNuU5S227LjtgtaFt67PoZ3SkCUt/7/iZagS4mTsCaTzEB2PqBrKLibNq5M700Ucf3Rx77LHlwe4s0zVgR64iqSfOEYeIIWtjGvkswD558Px+97tfOfXm+qQ3ijzeYNurDe2dEKE/PSshjT0V+9qRmHpkuGm9Cw62rgYEF11ru86DunEK/cEPfrB505veVB7y5tR0GyawEGi8XIukrjhHrpGin2fdcco8bP7rv/7rzV3ucpfiNO3bdbXvvkC7IXSi9WwE2ejnHYltW1i9i3UwnnFo6woP1JVV1xlnnFGeZ3zXu95V4uhn0P0LAVzisDgFxjniJOddd46J8K73/e9//+ZXfuVXmn322edCd9UHrB60HUIXEDpIxgr9W/p5h2I1RkiHkOSOQg6gRQ8m6sUxrR/XFr/whS+UO9Q808hHI5bR7TUnztybwXYQsorkVBcDXuTKl2PzGiPPTj7hCU8o1yh9dlJs1Y4B3QP2k6KNeS0bhzk4yAkhXZJq3AFCaDp1i4T1Aqy2eD3wD/7gD8qNGNKZP0ts1U5m5Mtd7nLl4xIIX+dBfNYR48Rp4tC5TsqXf/7xH/+xfCGISwOEGnB9Q0bO59k2nCIPlv/O7/xOc9hhh5W0qw/qNWC1oK3Qh8bpR+24TOA7MuZjUT2EVCVlkgupiIMcqBMZnyeoj3V8wxveUJzjN7/5zQ2nkvWfJWwv+4cH3oO+znWuU17r22+//cozhjhITpW96YLUp6xszyoRZ46wWsRh8jEM3gc//fTTmy9/+cvNV7/61eI45RvMq22AOtIuTrmf/OQnNw972MM26j04yNWDtkKo0I8I8XKqvSMyP4vqGSQRcbAQh0hCluTo0mkCwozPGzoMHONLX/rS4kSsDyEyS9gmrg9e61rXam5/+9uXr+jgFPkkGStETo1xiuW0ZWc9EsmLeepM4+BxlDhMXiVkdYmz/MQnPtF89KMfLZOAjyrNo43skxBhBfz4xz++eepTn7qhmxdGtWWex1wXwK38GjrZYW+Dg5wAkokDwjghkpA0A5PBj0As5Rw4CjCcNbIbOf5znvOc8h41p6mzgnXPtgGc4C/90i8VucENbrDhDHGYs2xvthGQhndu2OAweXTp3e9+d/MXf/EX5VuUwL4S9T6mBfvknW6el/y93/u9sgoWs2rzuHWdJcfrCHhOYVwjg4OcANLk6hDBMF0RoUcYKJYRGjDhPIzZ+gCO/YxnPKN51ateVb66Y91mhWwDH6Z97GMf2zzoQQ/aeD0v2zePttagbR7HduIsjznmmPJmEKfiieyX7UAeePToUY96VPP7v//7xRYybzvIetrGuu55nO0eb50hr4TGsWXig4OcABiqJCZtDAwJBbWxOnDToGcJ68Op54te9KLmT/7kT8rpJ+B4Hn+7oJ04wpve9KbFMfJ9RVaKHDvbTzivttbwmMDjClaWH/jABwof3KDi9JzLIbOA7UW4w/2YxzymfPQCfrbbdtuUoXHg/tHVx9rOcdcZbZyDwUGOASnSQQIMkUHCMhw9p5MiHSJgGw15HgbM/lkt/umf/mnzR3/0R+XNGED9ss7TAsfI/73c8IY3bB75yEeWO7icXoJsD/HkZ1HIYxontA58qg1H+ZrXvKZ8wo3LDvTbduC+PR6vJPIIEI4SbrbTfvaZ7ch+RDxrsQ3EFbGd468j5BsYL5zuSFyQM6AVUKRgqBisKwiMlFUJaa+5qQcabsosYH3YHw7gHe94R/OSl7yk/GGWDnoa2C7BYN9///2bww8/vJxK4wjArNqxCNge3j3noxwI/6PDn4dlWzM+KeCNu/RPetKTyuuJ6SQn4co6ELbZGjodpE6TeAowHDAZahu42LN3YGd8QIU0VgVotDhGjBZjJI8QfRonccX0rMC+OG18//vfX1aO3NGdBdgv11KvfvWrlxsvXNO8973vvfGvgbNswyJgnXFaBx98cHPQQQcV58JzlTjJ7UwoCS5r8BgSXy7nbr43bqbhK20PaFfamXFgGjGd4YDxkVwig4PcBBhgGqqiseIc1eV1SPIIQTpMw1mBO7i8T83KkTdlZgHqyFe6b3nLW5ZPf3GXluf+ase/iqD+CA7s5je/eXOlK12pnG7zNxLbvTYpNzxSxSUOXknkk2mu9iaBtgO0L8B+6Afjpo0L46kbMB0GB9mCNMo0VqFBaqyErBYIa4NO2Q7YJ/vIkBXjH/7hHzYf+tCHNga4x54U1pFVIqeIv/3bv12uNXrTwTJ9AO3g5hJf6eFZTcCfkHFTB8jFJMjyOFxWpvz1LM9LJjbbb/adccpjV65ytTnRVlfTmx1rwHgYHOROaJB1CDBKRGM0z1Wjgt48yyrbhft2X/yj4Gtf+9ryyTL/anUaZB2vetWrltfouEPNGzDZZqQPsB22iTbzbjXPcvJmDtdztwvOLM4888xyTZq3iHgUiGOlbdQwz34GlMvrjbWTpFx9eYCyyoDtY+0dpMYI0jjTSHV+QGeowWqIxHObNFLD7YL9cAwc4nvf+97ylgyv321n/9aTB7wxBVaPfFnbfW5n36sA2ocD4w79Na95zfI2ziy+j8nlD26YcR332te+dnmlkmOx35rTPFbG09bycg7buw/Lq1NvOGB72HW9vmbQuDQ8RWeHYGiEnMJi9BgqQK+TtLwGqlhuluBYX/va15o//uM/br73ve8VHceeFtSP1wJf/OIXN/e97303Vjvm9R32G69D3uc+9ymvZ/Il8VmAU23eZvrKV76yYSM1UmeckPLyr3MUuS/KKANmj7V1kGmMGiRIQ2srg7ESMrNT1jKmDZVZweNwbYuVI2+IWK9JkfW7053u1Dzvec8rTtI/3Vf6DtqY/cUp8S1ucYvmuc99bvOLv/iLG3pkUtg3/EMk/cXNoHpf9h2hTk9JUEfAtpxyI5Svbdb95zEGbA9r6SDTENMgMUSvK3LTRUMjnUaq3nimM5wl2CcD4j3veU9513gWd11xjpxW82YM7ZWHdQWc4CS5JgkvOsntgH76q7/6q+Yv//IvdzlNbhPA8bQ1z1awyfzyURvYbrt1HXBhrN2D4jZXo0xxdjafT205aAjRCeIYMMacxjkvI8U58twezoxn7bYD6nyrW92qef7zn1/+UqBuw7pCOwDwzeuJPAPK14JcrU0DeL3KVa7S/N3f/d3G3zZ4HI+Jzn5Q7zGxScuoJ9SRuo3hgNlhrVeQACNztahOoMMYWQVkntuTrwDDeYDjsarhL1q3cxzayw0JPtN1s5vd7EKDchRsc5v0CfYnTunQQw9tnva0pzU3utGNNpzRtOAtnqOOOmqXVaSODrh/8hHrQD4TNWXNQ2d5+85wwGyxVg5SYxQYVRo+RqghkuezjaS5QYOjRCgDyJuXgVJXheOdcMIJzetf//qNY08C6oYw4HjD48gjj2zueMc7Fp1tUGpYB5FxUZdZVSQPcnG7292uvGO99957F66yzycBNvSWt7yl+exnP7uLo8v+RId94RCxN/I9o6GcHFMHYD2mqc+A8bBWDhLkYMawMDzvThPnYWHT5HN6zc0LV5m1uJ9ZI/fJ64SsHh1U04D98dAy/9DH64MMsuRiM1guxQGL9BG2DZ64u8/Xw3nzZjuAM77TSX/q+IAcZp9TVqA3TwdtOrcZMHusjYPMgUxcw3KgY3gYrRfCmclxSFthXgaa9T3uuOOaT3/606WuHC/zxgWPsdzznvdsHv7wh2/8Cb8yChzHYxHKVQ5ey6T0AckPbxPB273uda9dHoOaBGwDN5wJ8O48aewtV4jYILan3m08ns4REBofMD+s3QpSOJAxRFaJOEZCjRTBaF1ZaqgpiwAPgr/61a/eeA0uB8xWsJx3Zn/zN3/zQq++jQLHUYBtVlenFWDYJ/BfOvDHTTKd2riAJ+yJfuD0+XWve1354jl6gH15nVt7JExOLQsyPmC+WCsHmcZWG5/O0FWjg6AuV8u8weqRvxLI02vDUajryCfK+OgEb8vU+eOCicMVTNajTcxbddQ88dog33vkjnTmmd8G8nCOXKZB4IVnI9/3vveVOJzqDD1rIY49OjHL+1bHWnXQ1s1kGei9g4RYDa0mO50i4g0Y89Moa1kEeKzn2GOPnfh/ZbKdrIwf8IAHlA9PjAu3Ne5gpd0MVjGKB7ftI/iKOt/GhNdxgPPDMcIbq0e44X/J6VfubJOmDE4UPklji9qhfC/S7hYN2jmJLBK9dpBt5CKJ1GmoAAMFGqbGuUgj/djHPtaccsopxXFPAwaXqx6+XjMp5IXQSYT2yxGAMyWdJ6i57gO4HsmpNo9KjQNOl+GMSyQ6SGyL1w/pX/sWThE41N60NcM+I21NjoyLLLMo9NZBSm5Km6FpiBgmg5w4ZekgjVW0bT9rWFf+QuH4448v3xecFLaJ9jzlKU8pX7pWN0kbqAdgG7iAE8R0DeveRyR/fNSC/8XG+ZnXBnkyZNWJg2VFyVkBDpJXR/PMBfE4ivvqI2qboZ2mcwwmPyC3mSd66SAlMgmFaKRtpSNym2UYp3UF/HcK1x69OTMpqPPd7na3ckqYbdkM2X7rwnY5ceQHOwCGm49JJcY55iqCdt35zncud7WBXNVAj/MjxJn6hATbwxmfV6OP4S35I18xvQ7IdsNZzas69XX+PNALB5nEKQmdIyCPDiCd5Yg7SwGNsg4XAerw8Y9/vPnOd75T4lnPcUBdeZSHNzdYsYwDj1Efz3bnACaOkFdPOOgWydWyAL+8hrjVYz84QiY5+MJZ8s+TPAfJJ+t4ZZQHx9vgPvvOpfam0F5tSl1budTPEyvtIJMoYLoWwOD2lS3TwjJ0Ti3qFwXqwsDhLxTyr1snBTdm+KJ1Oq82JEfGUwfqNHBllFgkT8sGbfXPzGoeBGXIw+5wijhH4jhLVpKcXn/xi18sH9dNsJ3SZyRvjMechHGSCGXgATtGkpNRvM8SvVtBQnCmEQCxPl/mNR8JT/IVkfFFgONxes03H7MtW8F6EnIqx1fBae8424L6OB4bsM/cP4ObfcMjYn5drs+AHzh4/OMff6EH79vaLr/YH6t6+gjueOSH/mabNiewDtDOCLUp4E0rQOjKUt0ieFpZB5mkptQ6DBkBEOosJdlJch1fRAfU4JSMVcUkX+yhnrTV+vIPhPzRVjq5GslRCtuwH2dvucNYGdROMiA5MgQZ7yuwHfjhi+Fci7TN6OGJGzHyJCgPj+ixQ1aVfHX85JNP3nAK6wLtDQHwBzeIlyMEZbBD7dnQbeeJlV5BShLkaqCkMVKIZjBjrEkkxolOA3f7RJ1eJDjd4hEQBs8ksMo8zvPgBz+4rFKSF2GbM65Q1gEMP/CHDoM1X950nB4jpe+QLzhg9Qjf8A53pIkj9AG6BKfZXH9EcAKkuVnjhLgu/NXArhDBQgF+5INtSGuLYBFcraSDHEUwA9vBnSQ6K0mu4iAHkr1sA+XUGmlr4+Y43znxSiHXHnVuIttt2z2GOg1UQwTq5E8B7F8x3VfIUYo2xx+c8V1NJl448DojcfIJKS/gV9tDT39//etfL+m+Qx7kMCda4jhG9KTTDh3X6JVFYGVXkBIsyQik6RwhOg0VvYQjlk+yDZcF6nfGGWdM/UFc2sijPbw3nMYEHyA5Mw0PhJYlTT0U4D4UyyIi430DbRZtcf7kDN6ZlOAPwIe2xgRNf7SBcpw18LezlO0ztB840u5qaEeEOMUsr14xPU+slIOU4BqQp/NLqAcQqZEmyRJsuCzQLu5as5KY9NVCQP35EMXBBx9cHj0ByZdxJduPWC7TqUuH2yZ9hRzIB+LgVjitPuiggwr/DGodJZM0zpHT7VEOEvBXszhIPmDB/vqG5EpJqMOOXCkSOrHId21vi7C7lXCQNammFYgi1EmShlxINg8Qrwe6+i6AfylkoFjfcSEPOMerXe1qpd3CPEXIhQaJESLoGeDqE22cGfYZNXeZpv1wxf9r4yQT2KDOMrdvA2cO/Atin5A8GTeNbWl/cAhH6rU/QHnyU4DhvNFpB5mEGncgq5dkScVBkk9cA4VMyie5iyZ6HPDxAv6XeVLQBnjgOlj9OTN5s/0IcTgybTkmGMI2IwWWrcN1Ae2FGwTAj8LHdLn+60DH9hDskRsxo06f4Rah3+n/PsA2KTlmEfhLG4I/dI7d3I6QMmlrGZ83VmoFKWECoiQbcdUI0Yh5bus2IuPLBvVjgPCfM9OA647cLLjkJS+5wZdcEcJFGqacEKKTN+8ekqdYBtRhn5H8GdJueMTWAFwhnGbDP9cjcYgp5I8C+0Pod1aQoxzpqiC5SlEnf9gVtpY3ZUDaHZCflEWisw4ySQWSQ1qBaEKJhlQdgU6SfMlGDxZN8jjg4xRnnXVWCanzpNhnn33KaR6ODrgPwuQOTuCDQaszBK622Z6ylKF8bo8Aw3VA8qhNCXlEiPOdSPqBMtwghN8s3wY55rEf+38VYTsybhq0peEsOU27Sltbpt2tzCk25ODgCB28xJNoDFU9QI8AnSMg3zLLhG0DXKhngKRuEuy3337lL0UT7su2aozok8t0kkjyYzzTfQbcpKgz1CECOGRCsezlL3/5Zt999y15wO22gttzN3uaG3TLhu20HQq2AkfyhG05dtWlPdVxxfQysBKn2Do5SKpXOHYAIA0kVhF1uiugLT/5yU+mfryHNvFvhZxmi7Z2whNG6hsxCrzpOKlL8p2cte2zL6DtSqblAmhr6HCS8AF/8IldcnrNmzXA/UyCdJDTbN8FyJvcEcKTvCHYmtzxxhE26bbotTPjppeBTjpIiEqQdtaGLFc5SbSDno5IolPcviugLtaVFeQ0F+nZ9lKXulS5e+3jPSA59BgMYgSOBHF0Dno4BZRXTPcVcmXowDYtd9idtkYZTqPJQ49wHZLTbPpjUr4oT/9jBx53FZDcGdfOashJbWdAzkmnLBudcpBJsnHT9aDGUCHZmZwOIZToRJcIT2Q9uQbFx3GnqSen1qxeQN12ACdwJZ9w5jUy0nlM47Wu75CbFKHtwSFcwgdOkjJyiJBHP9SXOrYC+2P7H/zgB8UOUrcKsP1ArtSl3TluAXq48zo4+bRZ6Qo64SAlMOOmAYRBLgbIwCaUbHXOSqQB+V0juw3Uj7Zycd4HhbPtW4GynFrvvvvuOzUX5tBjwBECR+icVLJciro+I3kC2A2CTluCAwc0tkYcHatGyqTd4SC5Fpn73ArWgRcF+ATaJNsuE3U9tRX4cDwS5t9NYHOcVntZArCdIjK+TCzdQUoy4SgRGiOEE8eQPd22HHH0xjPsKjAi/shp0g9UANrGs486yDbeBGXlB94w0OQtRd26AB5qDuQmuSSODYK6HHH6AQc5DbBrnCSOGLC/LsP6ZfuBaWzMSxLk5eQMCFNS1xV0YgUJIFVijSMQqj4dH2SjJ45eYlMs21VYNwYEF+dt56TYbbfdyvXHmit5yf2STr3bJIeW6ztodwpcOICZPODEPOLqECFnCs+hXuYyl9mZOxk4DjfrsAfiXYfc1IAnHKOTMHyRhh9Xlsl1LV1CJxykJEOOhphE2RHoIJp8y2SeAjLeVVh3BgSnVtOCQckNAkCb4dD21wMaaJwIqHnqOm+zALzXQAcn2hM2BhzIrojQ23foFcBERX9MA/bhn3gRb6tjVyF3QD7Q6QxJJ59t3Bl2CUt1kBqAYZKlE3RwQzTl0GGo6CFa8nPbVYH1pW0+ICwXk4CPIXjTgH0SusIGhLnf5EneUvqM5CI5EdpbDmrK1Xw6yCmf3NEXTFaT8mh57MBT+K6CdqcI4jpEQjiTNyW5UoBh19CJFSRIEiUY0nCGCHH1GdZI0rsO2gpoxzT/XmhbfZbM/RGaJ0/1KpK8HNzq+gzta5TIBXyxqk8bBKTlk/K1cwSsMOkP0+PCOvBqovufdB+LAPUC1lFJqKP+cOfKUV0KMOwiOuEgJUjSjWOMgHyI1iCzHGll1WC9aQsz7TSAEwZlOkD2iVE6oMmTO/ONgzrdR8BxijaUAx3AA3F4o08I0TlJi1Hxtv6YBK64cp9dgTy1jb8a6LBBnSPbAMu7Tdu2XcJSHWQbORCPcUGsRuZAT1JrUb9K0OCMj4NcoSCmCUljiOYhOYMDdMIy64icMOwHhbzaIdo/cub2WQZk3jRIh+0xu4CsE2I7U2pY/9xGAdNytEgs1UGCmjTJZFCjwzFiNAhxidYI3c6wz6DNPkOmU+Sal1wZOsgoj464OrEOfAnarQBtR34IgbZGGm4R+UPcRu6SQ/cNMj4pct+5/0XDNo8SOSMORtVXuzPfMm1lu4ilO0iR5Ek65CIgiU1Rt6qw7gzErQAvnIJhnDpJ+OG6FdfM2Bd56LyG5qBvM9J1B5zAF6tFnaGn1QCeKOPErK6NQ9NwzT6020nhytXjLQN5bOK1AOpoW4V5QD4IkVETS9fRCQcpiQqAbEhV2spkfJVB+xig44A3ErihY9t9RMh/yQPsD9QG3Qeutgs5gQscn29mkdZRkg+vtbPcjD95ZhtfZJgG+YaJ+1wkPCahQlsyjQDsDM5Ip+3Jk5zV6VVCZ1aQieyEJLmWvoAB4XOMWwFedJKAAY0BO9DH4Q1ZZ8hTffqMOOjhNXXGgWEbsm82KzcK/FVsfbxFQduRE6XWyZ91xDmSpt6jsOi2zAqdc5BpGJCeWFWSR4H20EYGJA8XZ9troMcA81SQwQgISaN3e/fldpleN2TbETh3gLtic5KBR+KI27aFbWCfrOR96L+231Fgnwp2kI57UfBYHtf6qKNO2B6XdbBXVtiWg0OEuPvJ7Q1XEZ1xkBKaxNoBDnBg2CdgcJe+9KVLezWwGhgnq0wfRGalwSDGUPlEFoMbIwa5jz7zNi3gIldB8gjQZZ4CDDcDznHa10bZBjvI1euiYb05NuMOyYmXfNLYbE4mSt3uZbRhlujUClIyCVNExvsEZl/e3yXUKG0rIcaIYySOUXJdjDjlifOZLN7hxTjbrpkZrjvkBMmBTDzzQFs/bAXK4Bz5KtM0wDFqB6B2NvOGxyPMSQIeSHPpIFeOgDQ2l+WVPqCTp9hiVLwv0CBpGx9ZZXDoDF1FAHTEMUa++IPoJDFe/uzpnHPOKUYK0CsDzkfNBWn4R9IZIukYQb3tZsA5+l3PScHqEeH4YJp9TAPtEMgJtuRkqw6gS9tLrggV06uOzjlIkEQrfUS2i9NmPpOFweEQ8+FvIRcYL87SNAPyxz/+cTFidYjbDDgfyQ2SAx9kXqbHBfvSQY6LPBbf9Rz3Zt12Ydttf8YFdsYZC/C0uuYj66/0CZ10kOsIvgLDl6gxSJ0fp1oYJTM2xktcHQaLDiNmUHKa7U2bNNoBF4YDGdExpM4ykwL++dsEJ6tJQPk99thj6i8BjQvbK0xjR+qZpLEvBGh/OknE7UAbd9Pw10UMDnJJ0MA0Mk6x+dvW1GGQrCQxWJ0fDtJTcAwXZ4p85zvfKdch00gHXBj1IDZdnypOCvqMj93SD/THuLCvOSb9zyn2NMefBNqYTpFQwINcEOIMQTpJ4DaUy/rOu+6LxuAgFwyN07ihf7ylUaJjNYnB4RRJc5HcO4c4TNIYLvj617/e/OhHP7qQwQ64MOQoJfXTgO04tf7a1762UzM5rnGNaxQHOS9gQ9ocoM7q1KPDvnDy2hZOkXydpI5VvlL6hsFBLhAaIWEKwEHyl6E8voODxEDzFcJ0kuhxkF4fAqeffno5zR4wPmY9uOH/q1/96s7UZKDP5+0gBXZEe10tksbpoTOOM8S+dJKUA23OERj2DYODXDAwLo0w08zSV7rSlcp1KIHeVSMGyKm127q9OPvss5szzjhjqv+1GbB9MGl985vfLP0wKehb+55LJ/OCtqYNEeL4XCGi02nWDi/TxBXTfcXgIBcEDDBDjEpDVMcg4TSbNAOFVUUaIbO5hp0gzUrzpJNOmvoZvAHbw3nnnVv4Z2Vf989WoDyrR/p/XqjrlJMsdoitaVs4TM5YsEGvOQLttZY+Y3CQC0QaKYaHcREaZwVxzWteszhCdJxuc3fbGzKbrQ7Z/jOf+Uw5zeM4yoD5Qo6///0fFP6ndRj77rtvc5WrXGVnajZos4NMU1fihDhIbI6JFh3OkDTISZmy07ZxFTE4yCVAI0UwPo2Ru5h77713cYauRDBGTrF5x9cZvw3kcR3yK1/5Sjkt14g17AGzh/3D6TXcc/1xUr7ZHudEv+flle0i60FcEa4GtTWADaInjaP0GiTbUVYBhn3H4CCXBI0uDZTTmv33378MFhwef+Dkp8w2c44aLmWOP/748h/b7n/A/CC/PN7z/ve/f8OZTAouq+yzzz6l/2fRZ9aBUME2sm7aDHXGETKpApw14nbAstbNcB0wOMglQYP1NIY4hodzZLD4Jk0a6ihk/kc+8pHmu9/97oZunYx5GaAfzzrrrOZDH/rQTs3koM85xZ5FX9nv2k3aBkg94kqSOM4SkFafYt46YXCQC0JtaGmgOEJCBhun2XvuuWfJ83rQOEbp/ngWj1Wkq050A2YPuYXn973vfRvXficFq7XrXOc6zbWuda2dmtnAumA72BaCTqH+gON7Q5DJ2nxQ2+w4dtg3DA5yCdDoHGTENVqeh2TA7Lbbbhv5Guw4oOw73/nO5nvf+97GvgfMHvYfHwo55phjJuqjBK+XHnDAAeVDJfMAjhFQXxyg1xmpuytG9SBtUgGG64axHCSETWsAA3ZFGt0OZjcMUpB34xvfeGNFMY1hfuMb32j+6q/+aui3OQNu3/ve927r7RlOr+lvMCsnZJ9n/2tnOEevM6KrhTLaqPWZVb1WEbs4SAlVkrSUAdMhDe78mf2CZyDVIfvtt19ZVfCYj3mTgH2+/vWvLw8tZ38Nfbc9wJ8CWD2+9rWvnYpX+pQv9xx44IGlv+cFxi+gjt5E0tY4tSZum8xLe8v4OmLDQSZJSDpGYTx1AyZDm/HJs8bJs4+3vOUtN56Lm9RI2ReryNe85jUb+0bMGzA5at5IMwmxepyUU/uT/qWf6e9J+3gUtCH3Z91wiJxGo2dsp7O07Kj4OqM4SIiSSMJ61SgyXecNGB8an5JcapQMHO5scio0Kc+Upw/f+MY3Nl/60peGfpoRkkd4nXb1COhXnla41a1utVMze2hL2AJxHCT1xTmiU4C2mDKg5RQbYphtiNv56ExLqnmGAyZDGqIC78Z5aPiOd7xjs/vuu+/cYny4D+6sPv/5zy/PuNl/A6YHnMIhfL7gBS8o335UPym4CXf729++vF44zfZbIfeZ/W4884nXMuB8XFTCkjiX4+i80wVqojM9YDq0GaV9cO9737t84Yf4JLBvEJ6L5K42yGMsG1nHNukirNuxxx5bnnuctr70A/16r3vday594j4JjVtHdSmpH7ArdjnFziW3TjJhOckWdXrAeEgjTRF8wODOd77z1J/hp1/4E6mXvexl5UszXegn7adNzM+wK7Bfvv3tbzcveclLNv4kbRpwzfEud7lLs9dee+3S37NG2pQcp66WARfGhoMEkMSKkVePAA6SayXGuetF6KnggPkCnh/+8Ic3V7jCFXZqJgcTHh/TfeYzn7nxOtmyoJ05WBUv2SDmGxpfNqgH/MEjfLqQmAb899Bv/MZvXGgBMks4PtP5JZ+pNxxwYWycYgPidBqhd7lIJ5HpHMl3e8MBswEcI7xVc/jhh5dXD6cFXwH62Mc+Vu5qO/ktC7XN1PajzjTI+LIAb9y1/uhHP1o+TjEt6McHPOAB5TlXx9G8oS2JOj1gNIqD1ABdHRL6NQ+Bw1SXp+ISPRA+W9gn8PqYxzymvIIo6KNJwQ2b173udeXamV8KcuW2CHgcQ+0MZFtB1q3ebpHw+Ng913Jf/epXFx6ntXW249GeI444YiHjJY9B3HSGWaavsB9rGQcbI02y2FDHSIigw6ARd57krgPJywLcMqiOPPLIja+9jNu5Nfgk18tf/vLmlFNOKf2afThPWN+63hw7bUpk+XqbRcFjszCAL67j8jmzafi3nVyuetzjHlcmu0XwDjhOHsv4oo6/LNh/m/XVVvlglxUkqFeHpikj2SkD5gc4h3t4/rVf+7Xmpje96VSc21c4xU996lPNH/3RH5UHnPMJhXmjtjEv4eRKUlhf4ba5j3mD43M8rje+9KUvLbxtl6+b3OQmzcMe9rCNfS8ScqqsE+BaP6YvGxe73MUGkIfRAo3XAxCuK8mLRnJMyP8l/+7v/u7Gc5GT9EH2L9cjeX/4Va96VfmLUvvV/FnD/VLXPA4hDofjp5M0TojYxnnVrw0ci3rBDzz99V//9cbX3LMNWyH7h49RHHXUURt/yuU+xu3DAeNDbu1H+0wBtX4ULkoHYYgWJM6pgJJGCur40MHzg31j/La3vW3z0Ic+dMOZjMt/GgLy05/+tPnzP//zDSfpag6ZF3LftMk25CUc2kJ8lFHPGx6L45955pnNn/3Zn5VnSOFr0rrYNwht++Vf/uXyYLh59bgaMBvYP/ZVckwa3hHi2pl5xhM7yp5vrIiF2CnOkbBtw6FjlwMes3rkIx/ZHHzwwSP7Zlz8+Mc/bt761rc2f/Inf1I++DrtfjZD7tO6Uu90DhgpTjKdInEFUHZRNscx+cjHK17xiuYtb3lL4SnbMQncjksjj3rUo0r/DZg/tCPtBntLvTCd+swHF9ux7H92GqCrCY2TuAfJcoYDFgtO0S572cs2n/zkJ8tfMmSfjIMsz8deuRb5ox/9qLnhDW9Y9j2rfk1Dyzj7x5awLxwjIB9Bj5i2bNZpVvVrA8fEOfIa4dFHH10+PgwmPWaW53uPz3nOc5pDDz10w0HOsw0DLgz4Ruhf09ifaWCfWFZc7OlPf/qzKYxSw91qw9zBgMVAzlnZ8542j+r87d/+7dQ3DuxjnunDSfKmDTcR8t3vafvZfRNmHNviTIX9EqfuxBFsL1HrTc8a1g/wlsyTn/zk8i1N/mcm6z4JrCcO8bGPfWzz4Ac/eGPymUcbBpyP7Cfj2BnQ7hAnXULjwrhhuYudTjE3UnInhgMWD/sDJ/bABz6wudvd7lb0kw7g2pD4YzD+NoA75ThddMqkcJvcR0oarJdxvMRDnDKAOHZnfB7IOp1wwgml/ccdd1y55rgd2IbDDjusedCDHlRW/PNqw4BdYZ8KeM/JOG1KX6cO5LbgonkzJsEOlEwPWD7oq2tf+9rNox/96OZGN7rRtvrFbVlJfu5znyuO9w1veMOGIxsHGqXGlWn2T311iOg0VtI826mjFMQzPU/Qzje96U2l3bSf1wm3e2y2v8ENblD6h4/h1mNrwOyh7SXgXdvyOjfQBnkBgBAhr20fF3vOc57zbHaEUICCxGsj3a7RDJgt6CMeOMbBsPrheuQ0yH6l/zm15Jk//hnxkEMOKR/K2KzvNao0LuII22lbxE1jkEC9xuk2CjCcNTgW1xg5pea50Gn/dKsNfMKM/d7znvcsp9nzasOA82G/aUMInDMpY1vYW+q1O3WAdIq42O/+7u8+m4hGSiY7AG0b9AmSMwpdbzezIytJZseTTjqpzIjbBW3m+ubJJ5/cfPjDHy7vgvNVIe2g5izT9SysIeZrqxgtenSUR4THQExvF9Qn60ScuvDqIB+M+MAHPlBuVmWZaWC9udbI2zKPeMQjNr4UPot2DLgwss+0I3Vy7uowQR42SFlEO3Wb7K9yFzsPlIWzYN+QbRb1YBVd5YE2sELhXxDPO++85itf+cq2naRthQs+CIsDYXWFo+RhdRwcSP6II2ybemwJ5CkMOvVuUwswnAXYF8fnMsIZZ5zR/MEf/EHz7Gc/u8TrwTMtOAarbZ53fOITn7jLdcdZtmXA+dDOCDMO6FPtDJ19jO0iboOevqHcqL662LOe9ayygtyqYJ8gQSLTtDvjoqt8UC8cF9e6eJ6Ru9HbcZJ1m1ld/d3f/V3z6U9/uqxY+RL2xS9+8Y1HVuRKgwRsl3r5RZ82BlKnPvO3C47LWzBcMuDu9DOe8YzmPe95z8YliTzudoBzvPvd7948/elPb655zWvu1J6PWbZn3aFdAe3KeA2cof2LjXn2AiifdqfUuMiOwfR/mVmHfUOSCjJNmyGNFU/XOck2ANL8T8qOCa/54Ac/uK1PcgHbmtzgGG9xi1uUO7M8/IwjwDEwE2t8lGMbTmMJvUjuLK6Beh2SvJTtInnBufPozoknnti8/e1vL07ev59oO1ZuOw7YB9vwCTP+HuP3fu/3yk0z4XFm0a4Bu/YPcQVoe8LVYc09+twGbNZHF9lhyMVBlsQmBfsAiUny0EkahDHQvV5W81GnuwTb8YUvfKEMVK4fci2R+qKfBWw7f0eLo+QmxEEHHVS+jM2jR6wq4ZC6wCHHhU9ncpF8g+3wyn4EcYS3X/jIBNdlee/8M5/5TFlFZtntwjozAeAc+ZAuz5HWA7WGdZi2vesIObN/hWnty7R2pZ3ZV+bLvXrjbbjIjpl8FwfZZ0gQAiSSNAOaNAbv6qcmMNNdgu2xbX//939f/qyLZ/pYqZm/XSQXOENuQlzvetcrd7v5f+frXve6xVlyGg48tk4DsS6mlUmQ7SGO8NcS3/rWt8onyZgkPvGJTzRf/vKXy+UGj5vbbRfsk4F517vetXyEAueoPsNxjjlp+9cJ2W+jQsYs8Dun9As64nmmUoe1rg0X2eFly1E2K9QHJKm5onLwqiNtmZpAwi7yRH1tH/UjzjcMX/SiF5U/mNLhbxe2HQNkFUkao2T//I3AAQcc0Fz/+tcvjnL//fcvN3Yud7nLFWNNzp3x3Z/hZqjrj+PjFUn+/5s3gbhBhUOk3eecc84ux5tF22swQdzvfvcrj/PwzONm4Ph1HbLNk/CwTpC35E+OTNPPXg/HFh236AjTDki7fR2OQnGQWxXqA9rIFjhFHSNc1PlAHfld5Mu6A42CGzavfOUry5fEvSnR1rZJwbOXXI9kdubUFYeHwCEhd3BxjqwmeUSID/7yzOaVr3zl8pok+fkXEm18ZnswfO7SczedG1HccOHaIiFfI0J4pjFXi6JObwfWh+uufNeRx3n4b2tgXn0s0oqgbNbLtMj4OkJe2rhzQaOOyVn7wx4R8kkTMhYoS1wBhlvhIjs2vuDoPQbNTJEsCXSAg3pZnuWBYVdBm6zj9773vebNb35z+SK2X6ZBtgMdJPuBKycYhGNjtAhpVprcZee0m28i8pygH9xARx5lvH7J9jhEbjLxCiT/HohzJOQVQOKK32gE223TVrD/WRHzdfdf/dVfLY4fHcem7sK6GFKGdiGgHrxuiy7DdQWcpAjicJP8+cRG2o/8yS9pBRiOg947SJtHqEAQZBJngEsqp4KS7EyUpGa6y6D+gLoSx5lws4K/K+UanfnTAo7qR33kUePlbjFO0vwE+awgcbQI+0ME+0FwlApp98P29T7nDerHQ/lPetKTys0pHDw66kF9EIFOyTzaACfamRMxsJxlDdcNyR0C4Ao+5EsbIx8dTpIy8Cpvbk9aAYbjotcO0qZJlmlI0kAlnTx0XrtAn+VTVgEMRutLnNUW7xq/+MUvLv/MZ7unRRqkjpA4jo88HCSGmxwC0+Og3oZ0bl+n5wXaw8duud54s5vdrJxiA+tnCKhPCmB7hDRcUZ5BnrwZpqwjav7kzrGKDm7QwSFIvSGQx0xPil46yGwSccW05DKAIVcSNWLycCrAPGWVwYDkuiQfyeVjsG1frZGnzSAPlDUOd6wGmWDglFNkwlUCbRDycKlLXaq8HfP4xz++2XvvvcuksBVc7SoAm9K+4IX9mAcyLqerbm/TQM6c4B2LOdkK+HRBA8jX5pJDZRr0zkFmc4inAMiWWOIQSh4dgZgGSe60BHcNtJkHqPkrgRe+8IXFYQLaTBvJHwXyLZdgsLNy1JhxjjhjeVwlZF9zk+kpT3lK+dIP10rrdreBNiPwYPuxN+xKGwPmuU+3A+rGOV6fYPsJ4Y/2wxe2RBoeSaMnjT51jt3kL+PToDcOMpthnNA4REISaclGzCcPPWJaUinXJ8gLj8Q897nPLf+V7WrS9gs4wAF6rRAj5JogoaAMN1oAp9Y5yawS7HNuInFKzcPfPN9p3jjQvmy/dsZgZhUEjwxobY1yaV/Wwfg6AS7kDW5o/6gJBVDG6481Z4TKdtArB2lTMg5BaYCAPDvAPHWgJtewL5AbwGqSvxfgcSCeKeTOsaDdGCg3ZOQJHYOdVaIDXD3Ifa8aWCVyGs1XwHmdkmuN4/a97a45gTcHsuDspXaSlLU8GPe4fYGcJY8gOSHPiblt1Shnlgfb5XHlHaTVJ1QEcW8kYKCQDrHoiDPQk1hgWl3m9REOUp4pxEm+//3vL3Fu6tB2BjOrHlaNpjFKVopuu0qgDdhF9iuOkOc1+QL4EUccUeIMsnH6XnvT9jLNPhBtT6DTLtFTlnjKOiE5MzQu1CHyR1xea+5mxeFKO0gJq5tgGvK8iMuKBz1xBjxh2+xTx/sKOSLMwcuXe974xjc2n//858ure0wi8AVX8EFZnCUGio74KoHBBWg3r0pynfHmN795+bsF/i0SpA1shuRQyTSTMQKHcAV0mvCYdpbHHOfYfUDy1RaKTMsfgEPy5snfSjpIq0yYcYiDHHUYJgMZPXFXjOpqgkEd9hXJXfKgA/zsZz9b/qeGDz7wpgrXKHWIlHNVycSzKqDeCA+o80wj75Df4x73KB/eoD3YRG0PoyB38uh2qSONgwRybFqH6bHc1rDvgIu2MFHr4KbNOQL1s+Zv5Rwk1bXKGSKQhEASaa/7sIoEkAocCG4vqXXYV9h2xLZqcEBj4/VEPnzB13D4AASfU/OvUBngnIbndl1A9l22jzZd4QpXKO9N8yzjbW972/IlIr/6XWOUDdjWDI1re2AzfQ5u9XXYZ8hLHWp3os22LKM+eZsHdyvlIK0qoSJhOj9maIgiDwfJQGbFqB7k9hKrrAPq9sMh/CE5mAE6buTw9W0cJA6T7yvyYQhv6LCfDJeJepDx+BEfzuD0mS/u4BRZPU5yAwbUbSRU5JBQO7QerhSBx3MbBRj2EXImTGcof/BFyHiFS9MgOap1mTdLrJyDTIEUDZHTZ3Q6QvSkcZKEdkCCdMo6AC4Axme85gYuyYdL8ogrrCBxlnw9h+uVCK8vyr/I+LyRdSfOhMgX1nGKN77xjYuD3HfffcufadEmMW6f2xZCJdMek7j2xnHUeWlHAXW8r6D9GYJaR+i4hSvt0bhIzoDx1M0aK+0gNXYHtE2BsDRQ9ZaR6JR1gDzISQp8aYxcW4QreIFD9MzklJMrHAGfFfuHf/iHcteblSXXK0899dTy1R22T7DtrFD3F3W/4hWvWD6zxgqRr3rztXM+JoFT9KZcja363TpniMAHIZwQp61cxkHnWQt18gbhKAeZYR+RvBkaB5lO+0MHZ0BeLZccgnnztzIO0moSOnghFWNEAASjp4xGygAH6oAkS65hX5FdbFwHRogOgSsEnZMOBqqDFDV/lOXvYvlo7bnnnltu6px22mlF+LI3afI9TmIz7rOs5Qj5KhCP4rAqxCny0V4col8IQrzuDNjPZsdpg8fO0Dh2xf5M0344SnskX9uTOx1AtqXPkB/Hq3FAXurkixC+0GUaWJ7Q+LyxEg4yq0hcQjFI0khNmoaaThMQ11BBbtM32GZDUOvkDU4Z6DgWeCVNGbgiJA3qQQ6I5zG8u82zkgg3c/i47ZlnnllWnKwwEZwmN4Ioy8pLUAceTucGCs6Qmyt8SxK52tWuVtK8ucP1RYSybatE6lTrxoFtIVRsIzzAgc6PNG0kP++EC3kkXwGGfYUcECLwQpsdl9iYtkQ+PJHvmAaWJ008ZVFYKQdp6GCFzCRLY5R4l+mWUb9okpeBmjNC44D2a7SCfAa7TlJd8mr5zfjL4xgn1NgR9ul+28D+FfvN/q7rDUizr1o/DayTdQUeE5sidCCrw8FTBr31dXvKKMCwz5A3QvqZNqdNZSgfjlf5A8vmr/MOsiaTMKssWXQCA5A0szskkwaSa1nDPkOeENoLP+qBzkajdGBTjsGOk3Q796EAw1HwOJZjP+zffQHLCPT1dlmmLR+M0mV6ErBtilxhT/ClDuRpNG20joS1AMM+g/YbGpcb+EKnnRGik0ftMXmTszpcBDrtIK3aqFCkHsNFIB4BzkhJdp8BDzUnhDmI1WGQ6OCI01V0nu7WvK0bfwiAq3SOgjh5Tibm1RNzHe8zan5SsDP40kliZ3CKnXmJhHTNWfKW8UXggrVsx9BGLmEbJBHiXaVYVkIts06QA0LajnGaBslJzZl646bXBfJBu41jWzhDBrPXP9Gn43RSTt6UvkJ+5ACkLvVw5QQMl4gTMeU24y3ji0InV5BWiVCBnCRSQxRJZm6Tsg6g3YYKwDnCAasbBC6ZUOCRNHmUobzpFGDYd8CBEzJthqtsu7yip5yrnuSpTvcZ8iGMG8qf5bQvT6tFcq4Aw2WgMw6yrgZpBYJ0joA0eohO1EQmwXVeH5EcEs9JxNUjQI/AafIK2ox0HbgD8keoAAc4QKfdTXLdrK9InjIutDFtET7kkLh2mXYH0i6XyWEnHGRWwbghxEEihLE0T8IRyatD0KbrI0bxp+TqkbDmL/mhvLo6r89o403ISebBodfS5LWNs4z3DbTdEKGtxk17VuJpNWl4gzMEHt1OrgiVZWPX5cMSkIQyYNtCIWk1ucJ8RV2fIXcpbbyRZqWDkA93Gi9pt5HTvvOWkKvkQRg3hBcGuKtH9PKVvGW8z6D9yQ32A9QJuWXcJme5Pegab0tzkBKzmVgOYoFGSZqOSAdZE9s1oueBmqc6XQ92+KiNVIOWL0Vd3yFnyRXtbrMt9UwswG0yHxj2GfImMi138GOasZsc1TAvpQtYyim2h5RUCYFQhHiSTBnSSG4D7AT3YXwdIBfykZwoAOOUO1fepmv+cj99Bm03VAC8ZPvhxzwgP7XOMLftK2x7hvBE272cg85rs/VqG8irnKk37AqW7iAhSqMkjZAW6CmTAxtYFiS5XSN4npADObPt6uANIyUvnaRlyAe5bV/5s90JeVIc3PJCmrhpkPzUnPWVO7AVf6C2I/S1kwTwSR5lFGDYJSzVQUoUgFwEoIdY8jBShDi6JBQQd7suEjxPwIkiL6blhLiDXI4tA9xO7gz7hmwzqOMIg5gQO3NAMzHX3LRx1VfeQBtXIuPaFvw5bgFp7a+NQ6WLuGCptiBIaE20JGY+xomeeE0gaQf8ugN+4E7AGXcNNTwGO0IcTi1rfkofAT9pVylwoZDGnnSO8AgY6HJTc5XxPqPmTTEPwANxuMT+nFzyYfCE3HWZv4V5l5pQ40DjhFTikAmpzkAiyaxJ7TLJ84Zth0O4y9kbnZwq8qiMi+yzjAPS6upybfrtwH2OK8J45iUnOkTS5KHTWbZhEu5WFXIGchIBxNVZTj5B5mlriGVMdxkLOcWWJJFpQslixiGNUaKzHHmSLalJbMbXDXIEP0DHKGeuJNNhyp+8GY4L92FcjNJlervIurrfuv55vLouiKtoOHEwA/RArgDbyy2wfH3MvoL2K8CxCuAFzlwp1uPWso5r4gow7DLm7iAlK+MQow5SjQNIr42XfI03DXQVCJ435FSBE7gj7j8Q1gLqcBKwb0FfcRxWXw4WT6/sy6yf+kmhPWQ7SCPYEEIZwzwDsQ6Wr+sP0APqZ1mOYb3zuMCw77D9CEheBBzCG4D/5IZy5Mldyipgrg6SXefuTauDTFBf64FwJA0c1OSuCsnzRHIqr/Imr8lbcjYOf+4TI+fDt/yBF0Ic4aO3fgCX/6tB+DiuXxjnj734IC5CfZRJkQ6Qj+UifFD3Upe6VPmo7uUvf/nytwt8TJe/WSCOno/pWt6P8PKxCUDbcO6E7Beniq2N4k2+DNcB2pVC23GSOUblgzRl2uAElDyuAubmICXU3UMQcWdogEES10ghW50zkmRKbKYHnA/4StFo5brmrg2WM44T5O8TzjvvvCI4Pv57hr9P+Na3vtWcddZZzfe+971Sxr5aJrKdxLE3/oKB/6XhK+R77rln+ZuGq1/96s0ee+zRXO5yl2t233334jBxnGxH6MAX7jNlnQCXIJ2fEzDjFp4ds0IO5armbpU4XKiDBKSZoQkhFrLy5oxL9FGDO+MDzoccExqHo4wnf8A8wV8ffP/73y9Oj79FwBF+4xvfKP8pg0NkhciAAGyb+6/3tUxYr7q92BbC6pHV5T777FP+/vVa17pW+SsHVp38rw0rUB1m7iPT64TsY8RxipMkDuAl45aVr+TOcFUwFwfpLiXKdK5scJKkcYiQi5AH+ZRPwpNc4wMugPwC+YYnw+TNsvDLqTDOD0fIX7l+7WtfK/LNb35z40+2gPsS7rdGllkmsq3EsTMmY2xNfdofp+I4R5wmK0ycJnFCTt2xSfbT1uZ1AHwpph3LxBnPjl85quMZrhJm6iBzV8RTIAdSAXFIRdBpgACic5uUAaMBXxnCl3FAGr5xiqecckrzpS99qfy3NQ4R58gKkfzcZhWhnaT9sCLEzpx0nZQ9RWRVSdqbS6wwcY6sMK9znes0N7jBDZoDDjigOEtteBQ8ft8Anym0U07hDMh3W3xVMRMHmbswXoc6QWZu4kiSSzohwcqAzQHP2Q8JbpTwn9Wf/exnm5NPPrmsGLmeyLVF+IffUduuEhiwfOUbG8PZqbvEJS5R2skfkgEcIitKHCTlHOhe+tHe0PMXsq4uDzzwwOZmN7tZc9Ob3rRcuxTy53Z9tFftSzshhB8Ad7Y/OegDD9t2kEmYYe6SOETVRoiBqsN4LdcmA7aGnCf3rA7/5m/+pvnkJz9ZVolnn312cYpZNsuvOvwrBIAzxPmxWsRBYnfcdae92B7lsD10oOZC20NnnFPxq171qs3ee+/d3OpWt2p+8Rd/sawytdE67BvkSHHRYzrb3xcOtuUg3VSCRKYJIQtDJe4NGZyjN2lwkOgkNmXAeIA/wIDHIb773e9uTjjhhHLq/OMf/3hjpV4j+23VwYDVSdIunCSOEQeJLblixBYpRx5l5G4zaIuE2C53yLmxw2ryPve5T3Pb2962PEoE6rOhviDHtGE9RpOnPmCmDhJSMA7iGF2uDDFK8tQTzxUkZVKA4YALuK6hnsdwjjvuuObtb39789WvfrXcZHF1tC7AXrApHSLceFrtylJ7JOTZTE/FpwVOkZUl1yof/OAHN3e/+93LNcy0XY8HCFfZgWY7EnV7+4JtO0gF0PFJDs4PYaYmjxUjsIz5bO+25vWJ5FkAnuAou4s4j+QcffTRzVvf+tZy9xmnOGq12FekreAcvQkjXzhJQpwkOvhxNZl8bgc4Zm4G7bXXXs2v/MqvFGfJ85Zt9rzqtj2Ksz6O2Zk5SATj0wABcUjDWNFRBkNC5zbCsqCPRG8XyRUTzjnnnNO8+c1vbl73uteVZxYzP+PrAmyGCRgnha3xoDtx71B7TRLMix/qoO3yUPrDH/7w5ld/9VfLqbiXmLLMqsP2GPYRMznFdhUIcIDEfYTC64yAcoqGYl6dHrAr4JRTQhzjn//5nzevetWryp1oeTeEP+PrANtL6PVHHCFcYX/oaic5D35q3kkj3AF/9KMf3Rx++OHl1NtV7IDVwEyvQTJze63RVaQOE9GIMFagESEi4+sGOTIuGOy85cId6T/+4z9uTj/99KLPMssAdc06mK71oE03LbApT6MV4AqS48AZek99iaNj9b1I2J/77bdfc+SRRzZ3vvOdy6k3dTIvuVE3oBvYloMEbF6L1xoBjhKh43Gc5APSiul1h9wA4gxm3nnm+cU/+7M/az73uc9tcNxVtPVj1tf8SdqQ22BDOBdsjDS2xaqQkDQ3TXSe6Dy15YwGmeS4swL1tw2HHHJIWVHe8pa3LO+Ie4ZlvSw3oBvYtoME7AKDJESYtXWGDHLCNBJPMUwPRnE+4MmQFSOP6RxzzDHN8ccfX96VRi+Xll0W6jrYh5zO4sAQTidxAOgIsQtkWuDwsDOcHnaFY8TpcerMw/D5nCP1QShvuWVxJlfWiRtJhx12WPOgBz2oOfjgg0fezBmwHOxi1zsS27YadpECHAg6TqCBDMZwAeAGHuQIR/jFL36x+cu//MvyLOOZZ55ZOASWWTTqfqJvL33pS5ev4fBVHB5z4Y0TdMb5DNklL3nJ4gz83BgOE+c2DWg7jg5n6GoQp4hwQ4aQR5uUn/zkJ+X5T4SH4+tT60VzWXPIIoH3vnmGErnRjW606ds5AxYD7cJwJg4SsBsF0LEYAYMbIa2Yv+6QL7iAI266vPe9723e9a53lVcDGfjyOS/YD9ajBjocHZ8NY0DzJglfv0H89iLvKOMscYw4RM8QEtvpb3kCTrgeg1WlcVaQP/3pT4tD5GYWj0DxfCircb9UxITDG0U41JrbOj1vwAkTx0EHHdTc7373a+5xj3uUu9/JXxuXA+YHbU1bmJmDBPXO6VzTGIODZDuDpU+QGwY21xff8pa3NB/96EfLwDZv3qj7gjSnqHysgYefubnAs306Ru7EsmpkNSjYxj4ehe32uXwo7E/7Iu5EDNLuACtPvlvJW0U6Sp4Z5WYXD9UTp4zlQcbnCeqOcJp9u9vdrnnoQx9ark/iOM0bsDhoN0jhf0dkZpbgrtp2aUcPHX4BWP1wCvjGN76xPLpz2mmnlVNIMMNu2RQOQk7v+BgD18QIeTyFQYtD5NS5PjWmflv1pfnjlN0K7CMF4AjZL2lPoT3OZiG887VzHSYrd75u9Ld/+7fNl7/85Y3VpceZJ6iPdWNiuu51r9vc//73bx72sIeN9fWgAbOFZyig2NeOxEytYKvdaQx9xriUMiif+9znNp/5zGfKYJ1xV+zCNfuuuccp8imv29/+9uUrNdxV5bSZ94wZrKIrfUYbEFeK1AsHgsNDAEYNyLPedSjkG+fqCpPT789//vPNxz72sebv//7vWy9zZJp91vnTwP1Qf/rgFre4RXPUUUeV/sl6120YMFvQB3kZZ+YOsoa773vH1jSSrtusjg5429ve1rzoRS8qH6z1Dmu9j+2ijXNWgpw+3+1ud2vucpe7lC/T4BC5qeJqpat9lRzpJK2zDpK6K2Kc9rhf9sN1TBwmp94f/OAHyzvufCLOYyTm1WdcwuBvIp785CeXVxfb2jVg9qA/dZCF7x2R2fbwGkIKk0oJTqDj7uoznvGM5p3vfGeJ19vMAm2DiGtaXNviGhef6uKmCjocjOWtc9v2XQF1TPE0O1eV1n+SdrAv9uEKlDQOkevD3BX/1Kc+Vd53//SnP73xOFGiTk+LrDNxbnxxyv2CF7ygPCFg/QbMB9qB/Tk4yG1C+giVhAaPnu8zPuYxjyk3ZFg1AvLrbbaLHGTcgWaA8XAy1xZxiK66EtSB7XLbLkKuCGvesv7TtCP3nduTZtDgMPkaOw/tM8HxSBbQOc8CHDePT5znSA899NDmT//0T5v9999/qrYNGA/wbX+XftjxM9vRuUaQOsKkkYGkETPj4ww/8IEPlGtKOEmueTkQtot6QBEyoFhtcGr22Mc+ttyBRm+ZVUfynkgO5oE8HtcqX/nKV5YPhvBYkTfXODblLGt6Wrg9kxof5/393//95q53vWvpY0E+5ebV7nUDfA4OcgaQOlcQOEPJxUkS5yI/nyP7wz/8w12+urNd2h0M7Ic4x+amC86QFeMjHvGI8lgOIK+Pg6eNw0W0k+Mq3AV/7WtfW1aUPD7EqtLBBahPWz0nhe3iOcnf+q3fah7ykIfscsrNMfraz4uGfYsMDnIbSCIRjFMnyaqR96i5bsUqg8HDwNGZUmYW4JjcYOFZRT7WyqqRuKfR5Pd90MjlItupE+SYTIbf/va3Sz+/733vKzfeuNFjvbbT1+w/t8e+ePzn137t15pHPepR5ckDH8Gy/X3v70UAzkv/7viZzUhdM0ibRCIMGgyYkLuer371q5tjjz22PFfnc3o6SQYV4aRwwBDyvjN3oe9whzuUFQXXGDn1ykE1DJb5QH4FafqY5yh5QuEjH/lIsQG+IGR/1dtMA/uTa8t8lJdr2px65/vnHsfV5YDJIYeDg5wS0oaTI26aNzIYJHzIlsdD6jueGDADCf0kDtKBAVgdcvrM84ucTnNXmlVklhmwHNDXTIjc9WZy5HlKrldqJ5aZFjpBhEeB7nWve5XrzLzL7XVJ9k++DnKwi+lQeNzxM31vrTGgDdHJGedtDK43MjA0ZFaLriABThTdJNDgGRT8QdR973vf8q96OEqPM6Ab0Da4Pvn+97+/fHjk4x//eJkUwSQTYw0mR88SuIyDTfCNySc+8YnlU2qsJDk2+rSLwT6mw+AgJ0TSRRxxdcAzctxl5F8F0WGsnvpgzIjbTAr2wX8zcyp9z3ves/yRfa4QhgHQHdjH9AkTIWcUfISEU2/+fne7DpJLK37yDZtCd5vb3KbcvCEkrU2kbRgOGB+Dg5wAUuUAMI7Bf+ITn2ie97znldcGHQA4MJ0kxsyjIJsNjlEGzPacSnEDhtNp3o0GlOf4g+F3D9qH4N1vJlA+SPKe97ynOLY21NvVoK9xjpxJ4AixK4Q016Cf8pSnlBWlK0i3AU6oA8bH4CDHhDQRIjo6Qv4KgTcdvvKVr5TrT+gwSq8JkWYlsdVpde3oSHOXkmtMrBpZQYI0/gHdh7aC3XDjhtUkz1D6n0L0ZdrXZqAsgpPEvnCS2JXOjy8wPetZz2rudKc7lTz3xzaDg5wcg4PcBDU1pBWA4X/oQx8q78vySA8GyGzONUaM09MgV45bUZ1Ojzg3YTht4sMF3IRh/zrfLDug27DPtB0mUf5G46UvfWn5vF3a1FY2gl3lxMvZBTrTbM9dbT6CwkoS6BgHBzk5BgfZgpoS04TGMXiuNT71qU8tK0ecohfPKUPIzO4fRanfDJRBeOCbvwvl9cB99923OFr0lnH/A1YD9peOEmAvX//618ujYG9605uK0wSb2QgOjlNpL9lwms7+uCZJHtt6Iwi7eclLXtLc8Y53LHmUGxzk5BgcZAukhDAFaGgnnnhi84QnPKE4R/MwTpwZ+TjHre5WO1gI3Qdf7uaOJNcb+aDEYNT9BQ6TD2HwMgHOjMeBsAPtQpsQ2BYfGGE7/7VRvU4Sx8nbW+zjete7XvOKV7yinIHUduQxBmyOwUEGkgriGqB60hga15F4QNcbMn4Vh1NpRIe3FbUarfvFoJ/znOeUN2Jy1Tigv8BGcGo8DvTMZz6z3PFOuzGOLbByxNZYOeIgAfnYHoKTRO8NIGyKj1zwH+o89UBZbap2mAPacbFn78DO+IAdwIjSQHV2ODGEC+tc3+E5R1aI6ADGSzmMHeQ+RsF9Y/S3vvWty/OTeUqkMQ/oL+hj+pvrhje84Q3L+/q8lpqXZdIesDOAHtFpEucMRvsDlOfvO9jfjW984/Ldz8G2JsPgIHcA4zJUBDOzBoWh4cR4QwZD1Dmy2kPQcUqd228G9snNF/6siVMsvh6dM/tgxP2H9kZf86ERVnw4NSZiVoI4QMQbMZQjrs153XvU5RxsFKfLY0Y4YB4RSxsbsDku9qxnPevZ6zwQdWYaqsYKMC5nXP47hgvqfJCAazxppAjbYdA6zTawnxSuMR5++OHNC1/4wvKVFnRZbsD6gS/08GFjPqHGhAzS1rAvbRTb1O6YnIm3gTy+js42nGpzE3Cwr/Gw1g5SgyI0ruER6uy4w8jrYrxfzetjGJycETJzc+1xsxsyIHnmiyz8MRPXHDn1IS/zVwGjBqRYtfYsGml3xhH+OpcXAlgV8q+LfHkeuPJD79mKcfczCjhRvjjEpMzpPNcrh/7ZGhd75jOfWU6x150sDAwD1AhxjggXvfkyy8tf/vJy2gNPGjIGinF6LXIrI2VbhFOpxz/+8eX5Sb7Kknldxmbty7xsR9fbtAzIFWHNqTquK3K6jX3xFXOcJFxin9iaNoeMA7blE2zYMP9Yyf8SeT1zwGhsrCDX1ZA1SI2PUMencb74xS8uj/WQl6c7lnM/W4HtOZV+0pOeVN6OYRCgQ8xfFdhe+RPZhmzbgPORfBmXJ+OAkOuLBx10UFntsZLkTAb7wylie+5nXLDPH/7wh+XfG7nefaUrXWljQTCgHWvvIBNygPEBjOllL3tZedsBHUIZjErnqJGPgtwizNysGnkI3OfWMn9VYHvrtjvY2vhYpfbNAzVnmYYbuFPMxxkiPP7FtUkeL2Ml6epxUtgHPG/JapIV6vCZvM2xtg5SAxWkdVgA58c1x3e84x3l+g15GCVxnOMkp9Xg6le/evmQAB85zY9NrApsp6F1J42QhiN1pC1Th+uG5G4zvky7QgToeHuG64bYzcknn1xuGLrPSSD/bMtNG1ao/B86Z0Or0Dd1mxdR54uuAjGLAoaJwMmHP/zh8u91rCK5AYOhoqeTcJ4Y8LhGyqkMb9084AEPKEY+jXF3AdRbAXCSg1p+6nKG647kRO4cf5nnytGJGHvjxg1fdOIFhSte8Yql3KRj1/0T8t85r3nNa8pfRNB3XYSctEnmzxMX2UHO/01K9CojCTWugZjmFIQ/1ucfCNEx03JBm9UjznKzTqm55K7hb//2bzePfOQjy53rVeWaNqcABjHtgT8GMRyRlwOOfMX0uqHmDt7Uw1vyxWqOfMuCzD/33HPLn4TxoQseBQKWmwT0A9vx9R/+cZMznOybZfZTtqeOj6rjvOp7/vS/ZoBopXaOzNrcYcY5Aq4VMvB1ApYbBzxvxqM8v/Ebv1Ee5ekDbD98eJmBlRADGxB3BYTOFea6os1eHMzyR9rJxrOT5FEOCS93ucs1D3/4w4tN8QQE2yjTgA9mHHHEEaUe1HUS+543rA9C/dQJ6wxSP0usjfVKdArAsIwTct2R7zsC7jIzyNGP85xjAqd6v/vdr3yujFMijHtaI1425EuegCsdJw0HaZartxlwPuQE/jg74RojfHqmwsD3Eo6h/CKciRx55JHFviivfhqwbz7Zx/cpwbInNLkhtN1CJ4muLmd81liLj1UkgQok67RIY4innXZac9hhh5U3GNA7g497Qwa4Hf80yGuJ173udXfmXLByWCXY5mw/vCHouOxAuxjchPCIELe9hA48deuAtBfiinaHZBnhpJOc1byR5tEfLt9wvVxHOi7q/fEVKT6Ygb1av2VAjgR1IU37sDfSjK+0R/mxzrOse29XkBItiYYCEtFpWLw+yFst3JQhTQfgGHlQfBzjs1PoPJ4x45NlGBt6ZZVAe21zmzHKDyCPOCHtZzVke7PthusGuZRD+SSUxzxDSQclfynmc/2QZ2p5xxre63KbIeuEnHPOOc1RRx1VHv8xf5ng+PJDW2if+hSR8Vmidw6yjbhaAKQT10D5Jl/+n8wk0BjpRP4igTuNfJWnD0g+5A6gTy6BNxxSn7IuoP211MAZKgDb0QmAUdzVcb46z0sH3GTBcU4L+o6vnPOfOYyHPM6iIE/JV3LkxIvQ1pxIQNv220WvHGQShDhYDTMOIBejPPXUU4uD5E0FbspMguwgHrrlOUdkVSFPIHkTxtNA4ZBrYaQxZsqgV9YR8iR/poXcwBn8MfiBnNf8ZVy4zwc+8IHl3y55hMwy9fG2AttxV5x/XuTtsUm3nxU8LiFCveAEIe4kQlzuEOLzwFqtIIEGJOG8mcCs+a1vfWvDSKcBHXSXu9ylPO/IRXfgsVYByRGhAxXQNgWgp204RUSjBegVsUo8bBc1j4D2J3+J5CqdI9iKN/O5/ovd8T/p2ReTgONy/NNPP7154xvfWJyl9V8E2o4FXzq/XEkC6kqaUAGzrnNvHKTEEGp0iHpnGpwghEMopxL8rwx/x+m1Rr/UPC7cP5+RetrTntZc4QpX2Dj2KoD6J3cpAK5sjxySp0HaTtLoLZuyDqh5M077dYwO+ITl2vgDGW+D+Tz+g/3x169bbdMG68F3I7mrPc2Nn1nAegB5gxtEh2j7KKdOTNP2zdAbBwkk1hCiINlrFxqhg57PP/3FX/xF+TN37sbqJCcB++EZRz6Xf/3rX3+ndjUgT4A4ojESp23y5vN5oNYhWR6xXF8hX3KWaUUuyE+7Iq8NllcmBe9sP+tZz9r2M7ecTb373e8u42NUXWeF5Esege3XvgB5psl3HItpedsMvXCQkiokktAZmzROkFUjHYHwEYqPf/zj5c4ddxF9vGIS0CE8aMvjQbPunHmBNqakYabe9sAd3MidercB6JS+o+Yq4ymCOIOZ0Bsg8pS85YBXNyn4P2xu2kyzrWCccFbFKpL6zgvJlQKwMZHtIC6Pju/UzwMr7SCTVOMKJDOoHdASDbEIbxB88IMfLJ+3TwcxDtwfgkHyZoMP7HYdtjND4w5QJhUNEZC2bepIWz5FZLxPqHmrxTxsyoEufzobeJM7MQvu2I7rkbxlw39ik552X3wY+vjjjy/XJNvaOC3q/RA6/qwroeMWnjgDhEPDbJNljM8aK+kgk2BQpwUku+qBRO+0slr81Kc+VR5ryJloEtAZvCHD58uufOUrz6VzZg3bKV8pgDboHAHcALnLGzKUtc3kG099X1FzBmoOvayDnhCO0DuR6hQS6JHtgO332GOPYpd8JEXdpKB+rCL5czqeEQZ1fScB2+b2xDmGgB858j6B9pe63AftQmd8HlgpB5kkG9fQMk9CuZtMHCdJngbKNcf3vve95bNR28HjHve48kHTeXfSLFFzRd2ptzwSR4ijYxVuOdtpWWCb3W6dQHvlT8HG1BOHKwSQBjXXyizAfjkO/2LI64js176aFDzh8Z73vGfjv9/t/0nh8QnbRA4tQ5w2EPcskHhySRnrMyvu2rBSDlJAlqECJJZQ0nCUiE6SGzGf//zny91ryM6y48Dy/GcI78L67Bn7tvO6CDkS1DkHt/mESM7iXJPSUBHy3U5ZB8iNkA94gi9sD748awHkkZZDRP7mAffLhyzue9/7Nre97W2nPhb1/NznPldeoGAVmW0fF25DqGhDipAnQqCThFOEuPa2COcIVs5BJrGSk2kEI/SmC9ARQDyrx2OOOaZ8D08DZ9tJgPFxY2avvfba2DehndZVyBOw3rRf58fk4Z188lht+wEFyybP64S0EXlE4A6+1DuYdZLwpF2QL3fqjc8C9b733HPP5jd/8zen+mq47WMcvetd7yrjxvqPA7cH2o3CPsxLmK892o76mKbHrct2sDIOUvIExEke+roTEI1XopkFue6IkD8N2A8rx4MPPrisGlYZcAY/cAFHroLgDQHot5I+Q1uq44J02pkrb8vKUdqrMm9Ql0MOOaT8tTDHnga0gTMu5N/+7d+KzWwFOZID40AusDPqR9o8dPJUQ87MWwR/YGUcZAJCdYiSrR7iJDpJJI8X8t/5znduDP5pwL/B/dIv/VJ553pRnTRPwBWrRK7X5orRlVByTXsV0If2bwbaLNritB/+CHWS2B386Shrh1LzZ3weYN98pec+97lPs/fee+/UTg7adfTRR5cnPraC3BAqcmAa6OjIgzv0cKb9JXfy5JieJ2c1VsJBSiowDnkSCHEYqjrSDnbibMMpz0knnVRmwmnBe9r3vve9m5vc5CZlv6uC5C8hbxgcZeCOEF3yiU7DTOkz5Cx5MQRy56AmxJEw2OEG+yO0/LJ4o57YK3bL902nBePmhBNO2Lg+uBlos+0m1J6SD4EOXuGNUBA3vQzeRKdHeU10hiCdFB1A2lUPsEPQcUfu7W9/e7kIPCnsIN6U4X3rVXmdkLYnbxnXAOEGwfDhJo1Sfm1r19s7K4zizBBe4AKuHNjo6kkltwfytyguPQ4f2OU9bV6HnfbY2AYfdPnHf/zHnZqtIVfaEYAbJxLymVgQoF4OgfWdtt7bRWcdpIaVRpahpDu40TlLobMj0BPnCyXcuQbuZxJwoZuHwnl8YtVAe21zhhqixugkk/zUxrkMI10G5CwHODwlNwxmbM/BTjn4oZw2CJbNH8fkcTTsFzueBuyDZ4f5V0XbtRngg23ghPLJE9woAAfpZQm2kWPiyrLQSQcpQYS11NAYJT+X8imsHn1UYRrC999//7J63G233ZbaYeMg2w0/ma5BWzBieHMmrwe27e16u2cBOarDdJKizXGqEzWHywKPo7GK5H3tacFNGj6HpmOrAQfyUAM9NqYjJA4Yt8Jt5Qsu5W1Z/HXOQUpSTbZpjLE2UshLI00yiX/nO98pr03ldpMA47r1rW9dZuGuQw7qEJ6UNqiveZTL5LSvaONOPuDHFQ46QtIO9uSH+ChZFjg2Xx6/zW1uUyb5SSAPgL9l4D+10cnTVuDY6RjhkjCdpDzXXGV8GeicgwRJvoNaAZDpLAbJ9Q2ZJBoce+yxzY9+9KONPPc9Lrhzzd/A+i9yXUS2q25nckEojwk4dRBYPrfpO+RqM8Abtpb2p5OEIzlP3pQugH/ZxI6x52lAu3n7jOeI5asOQerSpkjjDD3bS27chjQ8Z94y0UkH2QaJwxgxUskmdAYnnh1CeR58fvOb31x00wCj4lmyLl57pL1biYbGgM5TI/MB+YYp6vqK5KlNgFzAHbalDRLPlY+h5VO6BM6CbnazmxW7nhbcrMk3a+owAS9wB1faYJarOeoab511kJCYojGmkyQO4VwA1oCBBLMdnzPj+3bEpwEfouARie0Y1DyQ7ZGjWmo+mEjQwxVp+BOWUdStA+DEUBFwJGfYGZzCi6eHpBG3SQ67xJ/141Efnovk+chpwH74TiQfsaB97pcwpYZcOH7d1rKk0x67gs46SAmFQOM6SYAOI4VsjVi95QGzHcY9CdieffLwNI9G8N517rNL0MgUB6x5xh3QcAhI00bble0j3tX2zgpwYyhPyZd6xDR5PjEBd3IK5Ezeusof9br5zW9e7Br7zjqPC9rPWdkorkbtD85c2FDW7SmPzniX0EkHmSRJeq4aIdYVY3YKeYjb8+bMRz7ykRKfFOybi9m88M+s63G6AOtCiNheDc6Jw0sRaYjoEZB6kfG+Q/4QOENoP7wg5qGrJxRgXgrIMl2B9aPOvPDA22DYN+lJwTasIHmzhrji+EsuE5Rx3KbtWa4u3wV0zkHWZEEqZJKGfOKuJNNJkleDO9d8lGIasD9OQ7ioDTh+lzpQo7ReDuA0TtLcvIInV9G2Qd4SXWrfogAH8oUweZjWxiiDnhWXNwPVC7nrMofaC8CueV2WttR2MA64BnnccceVbd0vQhzeAPuukeXJR7rMWSdXkCJJVzRM84Akmyakk/76r/+6nBJNCvbPQLj73e++8dyjx1826jqYpo46STjizQedInri9YVyOUPWGXJIiN3AIatvBDghm0/abXKAd53HrCcPjN/jHvcodj5NveEAB6ktCdI6yDqP46SIOt0ldPYUOwVANHEMMh1iGqigLBeSeeq/7qRxwP4woPvf//4b+/Z4ywZ1oD2KA5Z2AtOIrw6yDTwlbI9tMlwH1PYAR+rkDjCx4ECcYLwZaNlV5o46Y9884zsO6rbCw5e//OXyTGRy4iQNh/BKOvkhXkuX0ekVJJBEOgBJYhVhnHJcI+EvLN1mElCex3q289bBrGH7kUwDDBEj1Rl6mmgZdKNkHZHtNg5/xBncyTGcooNTJ2NDBRiuEng77KY3venYdffate3mzZpPfOITJZ62Zjw5y+1ExruKzjrIJNMwO6HOR8xn9uK9a66TAHSTgPIPetCDNva/LNierH+mbbeztE6StKeIDvjch9ulrBvqNsuR3AH4lFMEuF1yV+9rlYCdp22MApxwc8dTctJwcuKJJ5bt0ZEmjs1pe3JXc7QqnK3ENUjjdkStr8E/sp122mkb1x/byowCZfkTdl7sn2S7WSONljiisZmHATKgEVeNaZDO+KQBupR1R82FvBmXN/nP8pZbddzxjnfc+DrVKJCHrSHeqCJkfPF/NYw38uDICSXjNVaJu5U5xbaTjJsndBqA7z7ySpS6zBuF3O/tb3/7jX+EWwayvtkGDQ+xvugwRHQ4SDhiBe12bmN52zjgfMgHodyCmrNagOGqgvrjHO9whztspNvaBBc4QxccriJ5S41HfVxF6iTTJgFl67G7Kui8gwQSW0vCNCEdxvcf7aBJwPb8pYLxZYL6I9RDA0sdIYbojQUMk3KA+CjnaLjuSD6M13xvJn0A7fVmJPE2kIct8f80OkkAR3wfkg/pJm9AjkirW0Wsbs1H4J//+Z+bU089tYSCjtoM5hNyes0XT8Aog1kEOHaKxpZ51pu4zhCknrgy4MJIfhC5zbw63ifQJt4U2+o0G9sjnycjEMBKEof5ta99rTxvXPPWJquGXjlIOojHe7gmwspK2HGjkPm8yH/Zy162U52q88NI6+uKpBUdqHVua0MX2tNVyFWuvNX3DbYVucxlLlNeP0y9IM71Rt4mQ7hRw9hiNQm4rMPZ2ne/+92SFvV+VhW9W0Fyc8ZPm40LO5LQmzPL6tysN3FEZwhwgt5BxFCppw4SuL1tsB0ZH7ArkisEjl0xpfQNaWvafdoaaVaJXnN0gsZJUo6VJPrzzjuvjLs220NWGb1xkHbOV7/61ebcc88t8UnBbMjptSuxRYG6t4mgXhga1xnTKWKk3pAhnk4zjdNwwGiM4mgduKONfBCaFSLOEHtC52RMmmceuWzFKTV5lMNBcqPmBz/4wYaDdLu+oDctoWPoMJ7s5wHxSaAz2m+//Zo99tij7GtR8NiECo5OPaA+6DBO2kgcp4mTpJyOk/g6rHzmhZq3deAOm6GdV7ziFZsb3ehGxUlySg1sP7YFKItD1M4Q7JEnRhh35LlNX7jr1QryzDPPLF/wwYFMAjuTtwqYGRcF6myYos52UL80OBwleRioq8uUAQMmAbbGZMtfMgDGACtHYF7amdBWcaCMu7PPPruk+2SD/VkL7wAO8oc//OFGx40LytOphx566MbsuUhYX2dlgR5HiFA/DJd8DdDtSLfJgAFtwG4UgUM88MADiw4bYxwQunokzbVHBNtykhZc92f89c3ueuUguZPGcn/STqI8zod3U505F4XayWGUzNY6QvI9fUaPoVJX8jDQenvjAwa0QXtJoMPu+faA3z7Fhlws6AxdRXqpJ/elg+wbenWKzVP9k/yxeeIa17hGeXsGI1gE0riImzaOg8Roddg4SUSnaIjBUlYMznFAG7SrjKcOG8L+r3rVqxbnhxPElrA/bI3HehRu2LiydHvGnR/Q7RN64yC9m5YPiE+C61znOs0lLnGJhXVw7cg4rk7PN2MADhsjpTx5Okri6NxPxgcMSGjTaWNtgv3vu+++GytEnaTX5Un71ESCNA+K8/wxzrNP6IWDpIN4tIfrj85skwIHyfWVZUDHRjuIe3oNNGh0nuKMkgEDNkPt2AA6BfvnSQ6fjsiJWJBuA3bK+MtvIPQBvXCQdCAOctrnH8Hee+9drr8sGrXxIThChLgrRgwQATpEt819DBjQBp0WtuIErGh3OEb+M9sbMl7rZuWos9wMPDDOGGSbvmDlHaSdy8yFTAMM4epXv3oxjK2MYJbQkNKg8vhplIZp3AMGTAvsx7MSLuEQx0HyN8c4Ry/reLrt5LwZcI65glzkWJoXxnaQNHaULBM6CmavaW7QsP3lL3/5Zvfdd99wPouEx2s7LrpRkvkDBowLxysOz+uJ2BDOEafIX43wH/Bc0+d6IjdlxnGOgPHHOOwTNnWQ6QTbRGR80fDYvDDvXyxMWh9mzWWcXgsMNJ0z9U9dCsj4gAHjwrGBYFs4Ps5SAPbEahIHyb8dmkc47nhi/PmZQaQPNjrSQSYpNjgl9XV8Uchj0znT3MFmW16z4g4eWEanekzD5DKdJFhG/Qb0B2lbrBhxigBnyIqSccCnz3Sc4wCbZJ8//elPNxYpfcGWK0hnECWX26kXGZ83dBZcI2Hm4pRgUgdC+VxBLrL+NaiLkjzbJsMBAyZF2pY27uTrahE9DpNvohIfdyxQjv1wOs44ZDz2Ba0OUmIMJdK0RAN0isj4vEE9uF4y7ek1wCB81mtZkE+5TVG/LrAfp+3PAbuizYacgOGXlaNjnBuVjIdJwX7YJ+OQ8dgXXMhBapAaJ6QhOduYZ1lQpxcBj8nK0X8wTCMYF3wgd1nPQCay7tO0Y5VhX7bZ0Cj9gMmhXckp49rTbPI4k+KG5TRge8Zhnx4W3/IapMtvGg+RhOTVRKeonzesAzMWT/JPC/48nbt4wH0uCxy/TfqMtJlRYv6A6dBmT/Lp4gfhTGq33XYr+mnAOOz1ChKkIRLXSQIcCYQCHCZpQnWLhPXkWS1mLdJZ93FA3S95yUuWC9YDFgv7q5Y8S8lyxgdMj3SS8oqoYzwzHlwwTAL2wzj0GmQf+moXr5YNSuJwfrmSRCzTBdAh085aXHPhuS9PMwYsFrUNaXfaHpI6ywyYHI5beZXbTDMOGA9+yWdSMA57fZMmjQ/CcI6uDnGQriSBThNJA14UqB+Y1kGyPacUCG0kPQy+5SH7ANtKaF/2T8YHjA/HDKFxkHrOpnCQmT8ucgW5CtjKjorny0IZ1zniAD3tSSep43Qb02AacieF9eQUm0cMpgGGwKzpvgYsBsl3xrU5dYR5yp0yYDowNhX5zvHKeJh2BYlzZDwuYvxPitp+xrGrDY+WmYRsTCON54bqRJKsLAIeB4dNp0yDfFgWLKruA3Y1WOxJm6I/7BP6o20QD5g95Bfup70mzzh0AdWl/tJ/pc21iWXERTNTR2iIlELh/DRey6kXyyAlV7XjwnrSFto3YLnQnuxH+qXuI2XAfAHH09ykAfSh/qNr0KdlHRHtzHTGd3GQFIQcDTKNlRnF1VabE2zTzRvU2dD4JKDOGMIy6r7OsL+y37Ar+oJ0TnakeZBZg+7q4OsT9APbGRf0UVf6ybogti31tjPLiQ0HyUaKxkocYyXfHRPHSEmnAMNVgoMPyMWA+SE5NtSG6AeEPtFJapOkB+c4PyS39sG0XNufXfIHaWvaFDraKkirk4/iIBMQgwAcJdBgCd1hTcIyyfCu26Sg7XwFmc80ZbsGzB4aX4rQWJ2MgTZHWoMWQx/NHo5lxgHvU/MnXNMgr+lnHy8LWYd0fLTVMxbLEJqvbDhIycEwudDqTQ8aa+EaGqrhssCDrZe5zGV2psaD7eGxhBNPPHHDINraOWB7kNPklrjSBu1OowbYmY6S+LLtrm+Ab77neNJJJ5UvY43qm83AWziMxy71TbbDhR7AlvwGA3EvI+I4sb9ibyV3J9LocjZnY/WWSVk2eFVw2hfskWOOOaY5+eSTC3HTGMWA0ZDPDOs4DhAb0ygJMVLEGT1trQs210cw5r/0pS81Rx999E7NZKBf+Pg035S0j7sC66ONsQBEh90hQtsir+TnTE1BvSeelMLkuZE7I62uC+Dl+qtc5SobjZ+kbrTvrLPOal7wghc0X/jCF8oD5+iAg3PAZIAzRP5qoX90gml/xLlUou2hq/vTeOoGTA64tX8IsXvs/4UvfGHzne98p+jHBX2hb2Ac8vGXLkB7sy3WEUHHM5vJAQskRB24yI5Z4/8oSCMxTDYWbkiIvmvGaSMIX//61zfPeMYzNv4Tw7xxQfsOPPDA5glPeEJz0EEHFafLAB4G4uTIfsl+IA6nCfhFz+qFuHy7rek6HDAb4BD4L5kvfvGLzUtf+tJyJiX3k4Dxg2N83vOe1zziEY9Yen/ZhmwLEzCgzZ4hO1FTT3wdAkgXn7dD8X8UZiMU7oQC7px4Sldgw8HHP/7x5mlPe1pzwgknlHTmjQPbxTUJHOQBBxxQ3kkdMB3a+Me+4Bcj9HU0X/PE/jjtsR/cvms21zfw9Z1TTjmlXHekT+B90rED6KOb3OQmZQV6u9vdbkO3aFh325Ftwbdhe9iaeuqYfo/8tLmygiRBRu58o8DOwpnuGqgvf1p+1FFHNW9961t3IWBcdLFdqwz4ZGbGrgRGyHc3mZD9fidnLZxWo+N1UcIBy8Ok4wbY17/8y7/cPP/5z2/22GOPnTmLHVfU3fpnXKenE8Q/qKPelrWuZeVoHIMkEyWFd8ncGTdt2DVQL/5X5uCDD96lcyaBJNXCvpPEQcYTbEfnxyqR0ElYW4Pb3Mb8QZYn0+JKV7pSc8ghh5RxSL8qi8KotlAH7A2g0/YU0oh1retcttRJaqC501Ebdg3Ul6X9DW5wg42ZYlKwHQPZthMyuBnoA8ZD2g62hBHmTRdOo8mHZ/+cHjirD1g9MG5ueMMblvFn3y8C2Ff6rRTsjXqlAMqSh12qozxAX0u5iw1wkhooGYZK10Ed99prr+awww6bahXJ9gxaxXbDj/EBmwOucHoIfGmsgsHDdS4/TaftocNBDlhN8Kd3jDvG36KgbSnpJAG2RjwnXmwSP4eOsPZ5beP8orXSeFvhroMBd+9737u5+c1vvouTG7cdEAZY8fgfNRK+alwsGq4KXS1qnKwY4ZV8OCUkjVP0/0uIa6gDuo8cV/yHDePtPve5T1mVzRM6wFrqPIFNaYPErTNlSGd584yLXd6kwXgtmIVWCVwD4VGdfffdd2MWGbctDFRuFFDe62fEHdwYg05ArgacD06VGSAYJCtEZ2j4JK2ByiGTmWW0wXXHqtiT9WQM7LPPPmW88V/aYF5tSBsxnr4rxTGPANKWpc6OXSTjSmLDQVJwlZFk8ZjOE5/4xI3XD80bBbahDBwwkD0FxBF6IZfQmw0Iuq32uy6APxwefOAgCeHKSYU8HKVOkrTl1hU5ELElJ97UdxX2I889PvnJTy7jbVH+A5tBXAEC6sL4RLAt86hTjmHKoSesZRSKg3TjcTboKrLuDM6HPOQhzZOe9KQyQLcCHEAsZS9xiUtsrHwEaVaXXisbHke5MLQjnCLv4hJqnJ5aczrN5MOzd5z2rCuwT+wMmwOE6OBoFeAY+53f+Z3m8MMPL/1M/88L7ptQcazXZyA4R4RxCuCW+sEteuH2dbzGju0u6JRRhVYFNhSBGGa3pzzlKWV2BrS1rY3oPO3zegVOkAEN5EgdZbJT1h1w4XVE+SeOTq5wlJZb59WjtgYf2hyQjzb7XDaskyET3lOf+tRylkY70I8aW7MC/Cger+2Y1AdOsTFsDweKLSqT2l15k6ZE5ti4ZUAywate9aryACtf7KlnHMlm9Uic1Y35pJkpEchl9ePMNODCwDDhEv7gCzB74wjgjckluV9XwImragYx3LgKc6KRpy7wpW+gf/kozNOf/vTmiCOOKPUH8/Yd2hOh4xXAG+MZnXocJGU9w3MbYLmUrdBrBykg60Mf+lB5T/TUU08t37sTtJuOx2CJ4yAhGLId8ID9DSvHzQF/acTw56kjk8vA3/mQGyYO4tibnBFH4IlQh7lMUC++0HPd6163vK12pzvdqTgiQd3nBXjQZrQtBOcoT6QtQ72ybrkgclvE9Fa4yI6Ne2mxNAuRPIj65je/2bz61a9uPvzhDzff/va3N06hAcbKLO5pIUbhypFyyzbSrgFe4Yiwnq0RV46ASxM6R2SdITc6Q2wMZwlywAOcABPLIjnj2Hk8vkdwrWtdqzjFRz/60SVO3RPWdx7QZqwTx0K0OeLWB/7gDAeJLrd1OwQYboVeO8iExscKkQ/kHn/88eXLJThNvgBEPsRCnNsSMriRAecDfjA+BzZpTxM1WuBMjs7Zft0BV55ewwfOD53XIuEpV9lwtwjeqIMgjvA1Kx7h4QMU97rXvZpDDz20OEvqVjvIeSHHocKxdX7UU7311tasIzrDjI+LXjrIbJJxSEsieUiZ022+gXf66ac3Z5xxRnP22WeXv1/AibrqYUXZQ4qmgty52na2RgdPDPg2rDt/8AMYtNy9Js1ZiRMKHHopApvD9hY1oeCY6UtOobm+yPcc99xzz3I6zbvVfNWq/kJ4xucJ7EbbMc6xPb46HSJtIQ2vWc646UnQOwcpacYNFYl0ZYPun/7pn4pz5EOh/EcNDpJPzpO/DtBw5CvRpvPUmcHM4GJ7uILTLD+NQa4qsq3JgXFC7A7uGNBe3mE7BCdJPnnwat684L45Jg4QB8nXwK92tas117jGNYqztExdj3nWS8CXYroGOviiPrTDcW1ZxvqoNoyL3jhIm5EhAkmEEEkIUXnqhw5iGeiUQQ8kuiZ4WqK7DtpqaFyYhh8AV+rggwFNCI9uD+/mJ/rOHzAuFwpgpUgczuDTCVtYLgc3mBdv7NezgARp6wLmdfwayVXGNwNcOc4Zt9aVMOPToBcOMptAXIGUHLQIBGoQrnoog458nUAbuYZ9RHJkOkPaThx+4EoH6CQjp+STXtQA7wJqrgiN227ScIOtOZgR8pM3oM5tDfsOOVFA8uDYTKSdmZ+8GZ8WvXKQaWSGaZDkM3MzmJ210bd1gORul+BVQHKGJF+mEVDriAvzkru+80d7kwPjhPCTHKDTxuQTpJ6y5vWdO5DcAdJKzQU6z/BEzZHpOpwWF/TSikKCc3BCqivHBHmIK0d1gO3TSNWvC+BKAXAojxopMA1/csg2yX9KX1HzlWnE9hNnUpYruIMrdcg62p08CdMpcEXoWQpIfup4irrtYuVXkFRfAZAKMRgexJJWl8YJajJT1PUd8jaKRyCXgOuPOEknmeQsBRj2DclTW4jAEcLdfXgCPhqVtplckTbeZ9ScgZo/OIArJ155Mw8QJlej4tvBSq8g20gFGiDkEvLYhG8kYITcScRYOdUGEq2o6ztq/hR40hgTpNGTX3OW0mckJ/IFGMDJgXnJCdwB0oNzvCDUCaagA/DCOIU7hLRcC+LJ5Sw5XPlT7ITEaIgQiyP0Qdw81QFtA30dUBtjDXTwxORCHB6dTBIO8pq/jPcFyRdSD2rai40hOjsgd+YByyvJ4zogeUsBcIGQdnyaB4/mgeRsXvyt9Ck2VU/R0GqgI59BD+mUExKr9B3wsFmYPOAgAYaJLss40VjebUDG+4LkCXHwAuI5eJ1ccIjJHSFlEUA6pe+oOXQcwhXtdwIhLo+pB+jb+JsXVtZBWm1CBbSRKcnEJR3UBBv2EcmXoXGBwTrIhZOKDkAdZdaNvxS4oL3EdYbyow7e1FsWAfKm9B22Ww4QeRHqgVxy1pflzCdtmXnyt5IO0ioTZlxAGGkMlBAi80Fw8lPcps+ouaK98gNI4wTR5YxOSBqQdj/oU/oM25xtzwmXEGBnCiAPsI1o482wz5ADQvkiLl9wgDPU9vJmIOWTK/klrn5eOP9IKwhIS9IT5kEeJG81sA3XAcmBhpYGSJyBjWE6wCnHdsnrOkM+4EeO4KTWMeEg2J+cpwDDvgJOkLY49qSdkZYn84R8wXs6x0VgpRykBCd5oCYrCZX0HNyKZfsO2p0wTds1ODnVCMnL7ZKvlHUG7ccBstoxdDLW3gjllvJy23f+aLv2Yzx1QC6cVIjLoXaZXLXJvNH5U+ysngSrk2CATkMUkug2pt3GsM+QKzlQ4E7+nMUxTnTO6OY72OVO3gz7DNptqMidUA/gRP6SH+Ju03fe5MKwbVzKBWWcRHCMTjCUIYRLoC2CRfLXSQfZViV0CpAw0hLmQBZ1PqFxkPE+IrkgroA0OIAhppECysqp3LlN37kT8iV3yYV6OYJTVpJyCSxb891XwINhWxwOdIJwJC/E4S2dZPIqd4vmsHMOMqtTxxVJhkAEowTONoAyiOXVZdhHJGfAtNwB2o/ROZDhDx1xL5KTL0grpvuO5FHuUidSnzyqIy2X68KbYnsdp4BxCx+etVAG3tQB+XIfCjBcFC4YBR1DEq3BIUCyIQsySfv6IOkk0fSyCF4Wat7kLuPkY5Rwhw7j5TQbWCa5A33nL/khhCN5HAV40zlmOdIO9r7zBpI3YPvhh3jNI3H5BXKEHiGtAMNFolMOUmIkshYIyjTkI5TPjmhDEt1XwImhcVDzKeSkPiWES7nK0Pg6IPmqOUnIC/lt21hm3QAH2JVcpJM0jcBRzS3xNlkGOnOKbTUMIYS4p82SaT56dDVyoEvqsshdNOBGARoenCAaLHpXiujVIWnU68ShnAHiCu2WRyCXIsugT76UvqPmTn6Ia1fwgJ6zFcYtK263M6+NP+PLQuccpOQmqZJFGUOEwWwHqLNMyrogOQD1BAKXcObk4mmh8BoQWAcO5UmYlkParW3JGWl5soz81CHIeB8hZ0DeFNqeNkgaG9RJmkfZHOegDpeFTjnIFIjRSQIMlC/ykPYPjrzQSxyQl6JuHWA3EjrJaIBwBA/ySdoy6kjLey19g1yJ5C7jtB0O4QvAVcYtkxwZ7yNvCXkCyVnG4Q4ecIjYl+OWOGOXMtofIFRMLxtLvwaZpALTGCIkOpAFed6QgUAJrsX8dUG21TjcGddIAYbL6pFQrgkpm9JnaGdwopDOPNNy5cRCHLurIWd9504kT/KnJNT5yUH4gdN0jjmOQVc4XIqDbCOyTgPI1ElilF43G2WcSfCAC66XyR3cwHGbQ4TTNFKlb6jtzHamXi4A/AnKObBruB+k70j+jGe75RJB74RCXB3YKuwCFn6KnYczTph6CELQYaCEXi8jbb55phG3X1fIZXKDgQpXQW185cDvK4fygwC4IQ4vpgHtl0OQAxyYp76vfLWBditADuSEUBtz3FrWuEJauyPeNSzFQXrIDBHJkkQJ83qFszdxO4MyKesOODGEIwBnCE4ASa7qeIZ9BLwogLZqU4BQjnSWOk95qbftM19tkD+dIByolws4M3/UpEM6pYu48LnCHCGxCqRkGqCDXJxiOkYg6ZLcdXKXgeTCuPySdkDX8ZQ+Qg6E6RzICHGu12J7OkbQZnc6hnVG8go/8AYYs77bj94xbVk5RLqMhfWwxAgNDEmSAXEJhdw0xtpIJdhwwPmo+QGpU1+HfUObbZkmdFBjb6SxM0+7keQrRXskvq6w7fIp5A7AJZI8yaG6zOsWmub/A/oC90jB3wMtAAAAAElFTkSuQmCC;" vertex="1" parent="1">
          <mxGeometry x="290" y="70" width="120" height="120" as="geometry" />
        </mxCell>
        <mxCell id="PoTzArwX_vz-64FjDAHw-2" value="" style="shape=image;verticalLabelPosition=bottom;labelBackgroundColor=default;verticalAlign=top;aspect=fixed;imageAspect=0;image=data:image/png,iVBORw0KGgoAAAANSUhEUgAAAHYAAAB2CAYAAAAdp2cRAAAAAXNSR0IArs4c6QAAAARnQU1BAACxjwv8YQUAAAAJcEhZcwAADsMAAA7DAcdvqGQAACnSSURBVHhe7X1ZjyRHkp7lXZl1V3f1fZBNcneWxK4AzUrQi36SBCygB/0O6U2AgNVCr8IuIAkSoAfpQdqBODOaIWdJzrCbR99d1V1nVuV96PvM3D08Ij2rq7vZ91jUl+5mbu7h4RbmV0RmlaYg+SO9c1R24R/pHaOf1GMnKGmC4sauxCmOP9IslfiBdiqjfWrVqsp+anohwzLjCNbsjaYyRNgfTzTep4WV/mjYuTQeS2UyklatKlX0m7USjFwpSb1WU5RKav7npucyLO02RrYBXLM9GMujzkgOBlM57I/lcDCS4+HE7kr3Geg56hpneZaKvlizvFzSnmw0lPKoL4ulibQqIivloawtVOTM8qKsr65IvVqTSqUs5XL5uYz8zIZlV7sPAz48Hsm9o6E86Y5kUkZ3UirjJoT3DodyBOPCee0CQFqtN6ylX3V14kauwlANuGmzVoEBKzKFp4yHPSn1j6XRP5KVSVcury/Khc2zsra6Ko1G45mNe2rDsss9HEzkTnsoW/DQw6FIF9Y77A7kaCRy0J/AU8fSgbceQY9ds1Jcn2e6hV4uvUrDFi+bXW8TH0t1GBeGXW0gDt9ownPrgt4OnlwftGVN+nJhsSEXzq7L2tqaGvi0HvxUwzKRBtvujOUuPPRxbyq78NJDdMGHMOYuDEuDs0vuw2NpUES1u36jLPkGEQ1T47haZliSJTArMO76Qg2oqpGr457U+m1ZGnflTG0il1YX5dy5TVlcXJR6va4GPolONCwTaMD7MOj3B0M1bH9ckr0uDNwhRrKHbrkHz6Uh/X3Eir9Kj3gbicMUW55tzLaqY+K0jK75LNz2/GJVzsBTF8oTqXTbUj/ekTOTY7l2bl2751V0z81m80TjzjUshb3RRL7Z7ctNGPVxdyzH/aE8hHHvoB/e6Y1lAGuyV8BNd0pDvo/mTjbvDNExCJqqBQ/+YKUmV1bqst7ELHkylMnOfdnoPZarZ9fkyqWLsnn2rBp3XrecNCwFA3jhr7e6crszlR1453a7Jzf3+hhfzaA85pupkDJH8V0181xTJls6T16CkVS99zqMe321IYv1ioy278hqZxsGX5Dr166iaz6n426lgsG5QEnDtjFm/n63J7faWMocDeTeYV/uHPThtaMwKZo1SiRJWOzURnzbrD1rmxmaqxIS8hrkCM6eV2DQy0s1ubGxIIvomqv7j2S1vyuXF2H069dlY2NDWq3WjHFnDMsZ7e32QH7zuC/bMOSdvS663oEuazgzpuen295JE4mnttWpFd8gyttkLiXVcsJZDe2a0eCcXF1epnGbsjTpS6MN43afyAeb6JavXFHjLiws5IybMyy9kUb83ZOefIdx9P5BV75H97uD8XUEtfRYmhQanZD0vtJs/xiRpmUKjHn9BUyuPt5oyLU1GHd4JPX9+3J+fCAfXrsiFy9c0OUQjevH3Ny06gATIq5Tf4Bx9477cmunZ546xdrKWchGV3dSAnJ37jwF/Tlg+jsK3yYpqE6BQnopblvV1nZnrIOJ7HdwsgeHPelWWzJau6A96vaTHdnb25NOpyOj0UjzkIJh6fa3YdC7MOw+1qd/eNLFUoY7SDZJgmvjDAQYwhNkIS0kOj6SaxkxnNq7CF5b8Xo1YU475dqW5JK8Ph8WsLfsDMdyG3MdbuGOaovSW70sj/fb8mRnR9rttvT7fahbIWpYxndg/fs6UerJw/2ubB0PdUzVM0CBGQyUmMwjHJoOGdNjotp7fvAvT5BGbWeNZNAjsIw7BsRe9SEccKc3EVnZFKxyZf+oIwcHB8Frqa+GnaCgu23OeseyfTzCWrWvT2pYWOaNnoznoXHHW9zfnaQo/ZnwNlGq/gmE9ollCJQ878JinEQeoC1GE+722X7CsNqUXmNVDsDv7+/L8fFx8Noy8/RHnDRhFoz1Kj13rzeKDOSIijEVWCNfEQtyVJD5LmoWiW77jcTJ9Qx0QlsEvZROoNlEdslbsBUfxgxa67ZXf9iWo6MjNex4PJYyZ7v7GEu3cAfcP+jJTqevj+NKbhDMDuPsRPm0mDKpHZl+nuKUWbwNR6reGfJk0tThKS+L9fMcbyg+Mm3DZvdgr0FjWXrlBvihGrbb7cpwOJQytw3vwluPRiXZRf99PBhrZu/+jBpFMi9EYHddLDfM3LlR2vsHo6xNojTXbiFN1Z08bm8NjKd9OP/ZPh5Id1KRfq0lPamqUYnBYACPhcIextb2cKJG5VYiM9qgzXJ83ArVg3E7k6W5g+kmZzSTh4PpUd4M7wIVronXP68NAkVyHq5tfL5cOQpl9WMCux3BXkdwzGGlIQOssTjG9no989guH8nB8rudgfbdXN7MEER572PZCT2lomaC5mV9q2n2uk/REhml2iTZTiak4Ydwwn1MnHrlugxKVTmGt3KMVcPywfhjGHUPGIzGIeNPQoWi0pf+TJf/htOzXssLPN5E23I1c0jDluoyhHH7g1FmWH1vqT+RIwy+nEqbu0fu7w8fp4IjL0PE+EimckLTDFnMxKr7zsFdm7vOLEYh0v3h9VUlLzORk+Eopvs0/nWHMKZUZFyu8d0LXcfqrJjvMPURYX9tu0xWEAP9YFwZH2f0FDIvJ4WkEHk/oO0QiUihbRx8O82TeXkILeCalrY6hpdyOGW3TIPSW2lc26CA0li91RlWyZVA+EKVTiOzWV6Qv/UAldBtBpSlxHePEqCeXXyqHN8upGKap6fJMtBWdEZiAvtNYFwalfEyVThfmqgq3RwhPiyujKUwQMiIHZ5MLy9TqclDmju87A2FEY2TYYqGGvexZjxuS/9wTzo7W3L08I4c3Lkl+z/8IaD98LYMjg5UnyUZ3OHPgcNS8InAJJG2k2W8wRKY4mWmwTN52XgyVqMyXvpyqz39D19sya8eHums2MjdV7wui7kI71blZnlSSuYpJXtjCJXz9dM7Hw00HspkOJAJx6weFv3dYxn1OuCHyo+A8aCnvBIas7a4LK1zl2Tp4jVprGxQ6NIsyJEzTBSZkdF4xgap+/AEBo39s/WGfDh4KOcObsv1S+fkxo0bMOyj9vSvv3gkv354nDesu9BgD0ZQiPIhDRGVG08KMmPeGmLbTXHHj3rHMoRnDtr70j/YlT7CUbcDwLDwWm3MYuNGVF9ek9Xrn8jmp38ppcQrKzl1LcoJvNzL7M9IKxfxJGXwAZv86QYM238o5w9/hGHPq2HtsR0yZgfVUzGS54uc8SR7pjjvsHJeO3jDcTyslOGgYzVe+953svXFL+TBL/+XPPj8f8rWb34he999I8db92HgPRnDe20crajBMlQjVHADHGk33dm+B68fuXPOOXTbdn66r3H+M3GoRxMZ6UMA7adxEu4PKzDy5uIeIU1z5vT4EDLms7jeVA5O/roABypVWRGsBNp7cvDjt7L9u89l67f/Rx5/9Stp3/1Oujvb2u2yK6YHWzeYb7T5hPEY+uyie7tbMsQ5pmPcEKnr17aJ4GTartR1etquPt3pFKEGL1QRql7IQhA4RQ1jFGWep8+7Soc0V6FQ3msF6qDv9LDBuzDclux//43s/uFL2bv5D3KICRC9sre/YwblmMkGyaxhODVxjgF9GrhzCLRRZh9iVxdFXL+8PGtH8GjjXLvO2MXyUM4jprDc0UyFxIyK8pi3uHZvM1TIl9R52YSlAD0Ihmvfvy37t76WnW++UON2Hj+QERp+islSWLI8kxFnqYzuuNpYkFqzKVN038PjQ5zjyG4YZywlf5pwOshzp3btGn2miFlslmzwRN9iCj80u9n+5MMo5gEWnDtUGrhY8srAGW6/D498IDtffyHbv/1cdm9+Lf39XV2SwJIOuRZ9bmLDVmoNaSytSKXe0HInmHAN2wcyAjjbZlNr7aL2okQPJwt8iMcSHIW21qFUZa5cwMZYgKGlJOApxdsCOA/KPLyMFOu8NLArxKQIy5TOky3Z+vJzefTrv0eX+73ObtUr4VWnIxToGmo6tfXhSURvr7Za0lhdzzwf4RTeOjw6lCFm2VNMqKyxQQxS7Ud6Fh5lsEhvVDUsU7QrjoR6RLwV4Pl8AZbEMJZlBwR2dp/2ssBzoC0Zdncfy+63X2Fi9CsY9AcZoivUiRB1TiKUQ9CIDHmDlPlFZKxPF1bWES6ZToJYB3bBjcUVqS20bJPClUdMcaON2jDu4T6GhoGJmY+HY5SnriLjyXh5HA+I9DzxBTiXqMkGVcigmSL+ZHgyPlfuS4MFY3a7D+/K3q3fy8EP32IMfaSbCno99CDvRQUKjYJ0NWRzSRbWNmTp3EVZvnBZVi5ekcUzmzBY0+WYJZZMwzeWljDOoll5c+TqCEOPBjKC544w7nLc13MyDROgZDvNlJHWC8YltEw3xoYL8ycigoxqMW8FWYKTxaHGGcT8SwTPAG/kpsLR/TuY6X4NL/1Oeuz24DVh/3aGmBegMatV87aVVWmtb8rS5gVZPn9Zli9e1XDxzDlMhhZxOn/ts8R1LD27SuPH9YsBmgz6MG5bxqjvZIjZsor54XWi0MXNPmB9WqyXS89IDav3hdcL/fV8mZY5V89ORF5PFqe/FEzR1R7L4f0fZeuL/6shd4h0o36OhxphLIbRq5jkLCyvydL5S7J+9YasXf0QBr0CA5+RGtLKMBhvkCHG58HxUfImYR2qC5wJt6RSrUGfFWNCAjgvJ3TslgmdUM1rSydnviDz8YKME6iYdB07ntcVPDM8pdJ+epSwPuWu0N4trEu/+VK3/WjMkwzqbzx61tLZC2rMjesfq2fWWuxGMbGijhsjuUU6xpg45N4wd58SZVPSaMFb6wtg0EM8jVAGJ3fslocHO9naOXGNp4G/Juv+jZzHRomJeMiMAxEX12jGqyyL5+QzsLzPDTQl0Xm8pV1v++4PuilvTZwwqs+IBqVXrdA7r3yIMfSyNJZXdVylh8eqMVg2oUukBLEb1nKqdWTw+VLXjQQqsJ1wcMtx1G7DuJxQsVumjuXViNdUucZM4nkH+LzZUHMY6dUgTREixoQ4MyuvlMkVKicYxHwRMaXSTwt84g7v7TyW/e+/xWTpno6veu6Up2qdRMfQFiZEy+cuySLG0MbKmnptyf3Okp8J4yMCaYquHYblAwBXVky8IVhOFTeMTZrivJ68zKA6BLpszpbHHHMBb1xPQS9gVkaeqxrCRCbLJk88oebUMrOQZMlAnO4iIU25dFyBjxxvUPEpQX12Yb39PdnHrJc7SVzKKM3rfjGO1lqL0sSYSYO2zmJ2C57duN7nMKhdeeqYyGQCr/KP54rnQKVYTp1jaw03CJIz/4lhZXnorEbPa5iMepgpH6BrPjDj0uBuc8HfbwY2AM8by0yuaT4E2XJHz8NIQYknUF7ZDLmTRbwLQ5k+/SSMUf4zYIBui5sNXM7okoGNPceonByx6126cAm4CC9dUUPQWJMpd4GeAhhpNESjY/bKp0Cps/BpT7WJsRUuMqFRU+UUQb1ShDJyjrroeQ6wzt3DdY30WvUZROH6U5ARoM8rwDuUeXfICMuCMXdIWBDAMIrzN/S0EBSgUJ5pER+Hxbgi0ie0DFoW5Z8CpVJFBphFHt79Xjfu2UDzDKoXhi62ub4u69c/0JC8eifvuNQJZoDiEfBh+xhepDtGxfOBZ7l1jK86RvNOPQ3Fp/HAbTMdDzEBbMvg8LE+XfLyGd0CeFpvUE+sjfUMlppEloYckTyH7AwFWFLgvSCncwJIaEBupvNVFD7rZHc1b+bLutJLF8+ew+Togsb9xAipzwQ+yuTYyu7fVyUm9giVej10w0az5di1MOriQebinijCDTSGcUftXeuROGHzusW8Dt6omuriesXs6S3BQiTnDgj5l5cn9HjkZSmN0x9KOM9kNJCjR/bwWidKSgnDQpfryebGhoITGt4UVgu9ylMfzEOYYdE7FAnnYjdMw2pvQFHqgF52uFLxEeJBlmlMMVTQuOMOxtwhZuOaltcrHuyHYrLlDs8UUZEz3ocgjUQ8yZWRkxU4pYRoHmmFYdTe7mNp3/tBBlj36XlS3goZn6g0N86g682MyjIKNT0VaS6cS7th3WfOE0ss8bcOuVTi7pZKnv08RlE+34647nGXj/wOYdxo+9FTLgsYl8+TPt3xd3PI7BUtcVamwlhGHYpimZPH/Ey+p2N4fCT7330jvb0n2iUmjQrijs8CjLq0eR5LG27rQahlMHxOYP7Bt/60nASV6bFuucSnSskyZpAQhig/spA3NQ07Ot63MV6vx0HzGeyADaN1dpnjSNh5YpsRvAEDKAcYepBXPYSVSIZQX+dQmUv38HqnBF9h4Ytlx4/vK3gBqXGVd2ulVtdN++XNS2hsbhJAb0KgEi+AMbpgG19xbnc+T6wL18b15jImlyecb1qUVUK8FIOPG508YArdMZZDnWMZHe6YcSEuYqI2tMv2xGbUOgWjnghoB+DuSMZfHJzr8G7t7jySI6xV+du+KWKDc3zjg+3W2hmpVOA9KEJn+kh7fqAMNmhvKJP+wDwhcVPpfjS8Nl2GQ7IuyKyIZHQ2yjTEuTTdeL7hMcZ6fdTmUghDA8Q4u/4Rqu7K1RCEJoSvgiHroQoMGKrAyV3owU/NC0ZL0HIcr3IHlZ0OriR99ZOP3QaH+8lGJdFrGu5Zaa3RsvwEG+dF4OuPBuUmfZJYJ61XWdfsWuliOV4+D0hPrvedjDrsK1TG2TKGpTEf+WFCZ+1lehqHujKO7A2KQgU0WT+MVJ/ySJbkXThDKdkc0voMBroP3NvFuMruR2/NItmDbXsAvgzP4W2r4hcnV05osAR5b+VDAqVnPW/ceD5aKENZ6umff3DA7cdDmXKHyumrSqGu7KUh5MLdaz0PXMTOMIuT0nKAKqh/sC9dGJZLGzVYitCwzdUN9VjbfGDml4EE4Vz85VE+CbL6pfIlEF8ryYkNLuLDZBzBaKjPckdtTqjsqZAelhwIHov5VFxADs9LqbJSKBIqiK7v6MFtfUfIals0LMfgktRbS7KwegbLDU6WUmW9ILFdXMMVSSX0Vo6v7I5f6PzMG+f3fCyPee5QYcylcblS4NdQuPUbdI108pTtCTsFH3fIeOoqiw+DS854Bk6mKPI5ROcA6QY/ut/ek21dP9oYViSsV2sNfdOBs2G90JlyXwwk1sk2JpygQLy5bJZ+mvNn11kEPvI8zpdLU9uo2KBEuZtQHWBC1bdHiiEZFN55sozKGE8KPOOO1wxZNAfSSfwJYHl8Z6mzdV/fiOBdOUNQKmO9ygfifGksLH+Y+SeEb1g2HkWzRCHO7bcqXb75cDrxxXo+ljvezu+SSIzHh9eh59K4nFRxtuyGVMJmxSGDFaKkjKc4nqZcXk9PzxaIzyU5pna2H6nnJgmG5FsKjSU+HKe3gnL1/InIXQvbZB7xnrLbyt1cp6WTqotrmUkuCvz1ImBMx9xuR8a9nm6m0KgkW8eSUd6M+1ToEfNGOR0nn5ElwMYZwVv5IvegfcBc1nIxQZHvA/OlMo6vdmfmy3kZSJLKaVkASsU8szhBR4tjuulY2S70cZLnY7mGmC3Dc3UjBWtvKwceqxHtx/3gybAAlpCTkfdwJyBIMf8MoLd2MbYmu2AQ61lrNPVpDV8ww9VAGNfpJ0S8wEyR3nNIC20Q5U3C1DUeFrgOcRuSgq6PeD0PyELcwY/DEekYCzkIiTxcgfHBXBHnPjlYF46cHg/q5lEkjpOT4VC/BsHvpIZxM0fmrfRUe7c3VfJPCLZBCXd9si5GVNExTRs+yhshO0wvrUXkj5mUmXaddyAHKwayWTE+lDeZxTVisCyOvExFEaO8sYFc8gxiQuPRW7nDxJ8D0O+tFgl5ag17vZOTp6yCL4u4HYCqoS5p00KKOmgjPm9dmC0GSeP4cGVqu6ssQixzZFn0w0nosSDlQyIlxgdy6TNpkSxUwhhHIRJIJZGY5+QXj/1vNyQJxufb+RVMnOwR2SsgnNPWqY4vkHqrLjFmr/Gp5LPEWRmPDKOkMoojOXkXzciEsZ4zrLv7ongK+LA4D41HeaN4hjjdwXKbHBwX2OyCR1jisDFTxAbm1yf8DpOV8rKBulTYPLN1okSNOsGEheMbJKkyYiZrAnfteh0WugTmUMrJmZmfiFseI01xKqqrQ0JGOsYG7cAUQTqNLAYpJfdgA031uzUjdMXzXsbmWpGvd1bQFecfaL9M4LR8ypQwqidd47KH4eSFT6WS5aRASsmfBk+JNDU6ohFlHsvDhaYY8Q5BBijvZEz2urGOpRmK6ZofYX9vR7/eaE8iCoR07sly0sSXsk2UlfGyYHXT06UJNyD1dJlBz43y5uAPxPGRgZSTOVGkb/ljFX+Q90KD14/JDViziibO+JRM414WyjCRxX0+ByezZG7ZjWRwsKs7TiYtEBpQd5qwdqU3h3O+ZPA8PNhbzB3TnZ56LEMnSyK+9gCnbxE9cmkkTdKPDEEngw4HuuTJYOtYgApKLgi8EtMZRLKgH+uRnG5MKR53Oh8a8+1DbrbPdnroCtGofFmMj+dMVCzoJZGeBzcVlli8sbIhoEDojsPz2mepW0q1mJ/saWQkrlcjw5Js50knAK+WeIdxfB12OrYpURhfWT9Omrjhz0nTqybWhkblu1TW9Zo8EARj9Djcoz1pLFZKNu7pWvw0WjRm9oTOyD0EQAwfanEePu5gOgWZZsnLAlwZ+MjKjcACJ2N7+zD7ptkssVHprc80N/kpQdIbLtWf0GGH9hTKCwLwEYNCF9c20INSd6g8qDje0lQrn6gIOoDOTlTOiBH6GApsAmCJs9A01SvIUiDleIcgs4CPxLjEmbeFyDGVHlOFx55Ut5cG1gEBty+zF87zxF7Hvt/K7c04PxOJSJYJM8QsaUa/IFM5ZQ6eIFeRTweFrpiaemiiU3SfCp85xzNuMs+Fm8DLnF4mpY4fX/ktucRsGMRumO/s5teur+7g9ZH4zJfvDxdJJ3OcJ4wGenO6XC70B/k8PGUypxnaKUpxMuONWC2TFg7XRp7QFVNIjwWnH74Yp6aBz5SX2WdKliIvRQ40BL/Bxt8/0lMWxlcKuTes24cILW+61JdFel1wWRqW7w+n1tj6sHuI7phvWpjEhSeTamUfSqEdXRg+M5VcSkzZDZCRvTBuHybx8SArhMX4SbIcrGw2DxuEL6xxU8IS8kSJzkiB5KbFqyJUpFzlKzBzljwg/ToGrkPb8ERCeq49CIoTsqDLuCOfDqEZ0fGAOSZlZMnrg3bOlE1ZhT7UPF4WxRXgvSyXVtQDtLy8Dr/6T29NbkooTTG21m1GGvK9erBdSuWqPtT3P2GQJ8yM0fsMjjFX0I2K+DqLKKRpu8Q8SyPIe0YzRTpZWi5v4DMDY4z1AivHCiwCHzMygJSTOaHnSSHNAcSZMH/z11eiSPRS/TVRbsIX879icOJkXbHtvs4Q5iecGetrsvPayYM0T+6pKC/GfRjBG9inM65jrE6eNMFDkzME3oeUOXjep6dkOR6VQCOctMzRd3bZDaML1BvvNR1aX4wEFX7xKrmWtt2wMb8YjbGWDqLX95TDt0MaESlbSI/bl3HAdp5M6skGD033yl7g5Y6PEHRjJGUICjLtHdB9zX2vCeXojJh7w5x5psp9ReDBMNuoADtD3KgY6tct9bs1TpYGycXDdUWUExljrE/wMoSWoAGHjInrhq29IsNaBp8tO1SiGRBzIcn4CCqzHPzIZAVw7YeG0Hd250yM1GNL1v1lBb0e8PQ0bPzLMkXidQ97x2pgbdgo/1xEUWbJRRBaWxrvkzxUxQKX5vQjuIHD+TEEGmEYg6RxH2oki/s0Uk5WAJPhrXxTgt8/mTvj5Tu74RsAzPcaAU/gr8HQY7UXcdcRk/77z35Xu2PrE5lvDopEUZwW4gwtMJmPR7IZYUZ0CegYqGwho5l8ngyiGRk+XDyhr2BXzDF2/iumun5lNwwWWV4/0AeXqpil1xuIQ1Ak1hXXw7U517Wh7ingwxAiAaGNeMSh0w8yfziZKkREWda30EHUgwAf95gnA9TrZoBiizKuBTWObCTe2QliFWnY7InKmwDUCd7Kn+c7qTvmOMuJVLGhc+SvPya2S5FU5uEolRektdRzZuct/fff/Tj91//pf8tBH57khCwgPLFgPD4x4oGP0zSgwEWVcowSvZVv+3ce3NZu2S7Ak9WguX7Ofsy5xu1EFb12Yk/Dn5Y/frJl9S4QG5bddX1xRRrLK4Xriihcj4swSMj0tg8sIig/3xaUmcoCVoUfNfry842SfPrxDfnZz34mpf/6y6+nf/Xv/04Oe/ztI5czqpNGs4+IwNtfRvOZQGwg/Vcnuk+cqynI+NbGeffzsDVIijqvj7hePd59fOIanJMs+03F9PVnhPypIpwsn5Tp5uSOWaiW5JOlqfzT80357JOPzLD/+e9/M/0X/+Zv5KDHb20VFkMpOqm+T8v7VLICWhvwWP16JAw7pwFfB3ETot8+kN7hHkaS9FDy4nTyDWGpWZtMcQM1q2X5k5WK/LPLK/LZn3yshsWAASU23mnBzYx5SOmnMJdYbQO13jSgC5HqQiu8fzWfUrlPA1JKnsGOTELSm98JvCOEmYCNqQC7kJeNE8gmY4j4Sr4xYLX4Fc66TaK43Rmatki8gOfB81NmcqP0FO91Egxb9jNP7QUQvhHAB8BZMV+Htdd1XswYL4Myj/WVfu2EOqCd6AnW1YFxjflGAVSr85fE63oTQqiy10qubvF8xMZYwlf8tQGVKdnXJEvxBsWbBtSVDwT4y286+zXh6wUr4eKsn9bxv2BW/C//7X/EOjZa7jgKa1lPMz2PF8T5ZpTmU6TK5538bk6tiWUO92Wd/M0kfid1pNuIfNPSXhiIKN+MT6FU20WyQlnG5vMswD0/WRL5JxcXdVb86aefYh37+VfTv/p3fysHnV5mWJQfG9XmO1FTez4h8sKQZJnTFCVxp0k327F2fVtI3wTRBxrR9mjBEDly7ZtTKco04rhIGPucTpIifqE0lRvNofzlZl0+/eSGfPbZZ1L6b7+5Nf1Xf/M/ZL/t/v8aS2CDwyCZcfinH07GSGCcPOJBGi0atcC+NxQZwWwSCWKegUZViD8vdzETuw8jpjRkLDfqPfnH3HmCYemx/A6DlOqY5XFs896SWJPqQ2QNWSpl4HVDI9KL8llfz/SCzvuGXFvymemc9qCetqelh/aGXNt8LqjHLU7+jyG4l3Mm92rMWMe3Msa3UpVPMJjH3vnJlaF8HlYhx2tZPp7I5/XeFxSul01l7ZKXW4IlzqRpm+IT9jN7ACozlJ1hOdWs8AUFDGk0brkG4cK0L1xulxswbguTF53t+ZM52Fld4HiewMt5t4UKZvAVUD0Sg/cFjvTqozaxdHwU2gumN+2g4/RS8AowbBX5ahhnq5hEVfh2J+crrVpZ1qqwNhI4gSl5z6VxYXk1iCvMinJxMkqUWIrXUzautKYxynyOf8fhr9WMNAfUpcdRX/N5saXpEcWNjPeghRYwxjYrU6nXsAzDUkwNu9ysy/mlutR4t9DrvHEX2C3bIlwL5Z9WiCHLdCfVuAWBCUKH4p0ZxWcxW8ybDXw8FQU9nxlxjWWsfbg424mioGBcFsVNUQIWSmNpVbDsqcOOWCqq1y4uNOTK+pJUOQBz2q7PGtFHNxbhucthQpUZVT9s/CAYN1FkPy8Lgjxyed9mZC+QBbhrAxMBDuPiFrhQ29WD+fLleQVGlWEkVzYMOxnprJg9bz02bKtWkU/OLkptgqXOCAttrM1QFAqawLiYLbdgXE6oXEGUcyygDmX2dpyBJ8sM5nSsSk5mwIeBlYxgebPy3nxYnXPX4a4tvl4VuZYL+Yjc9SKu6fy0dtb2DnJXtGtPTpjKsFcJzrhYHstyvSzNZlNa/MfEjQbs1qjLR5c25ewC10MjuDY8Vk/EAjB9ri1IiZ4bfmc/lGzgH0+ulSxA61WQIRerrbkte4BSLHgbEEVnULx2CEM80V6aiR+amXEXzoANi5kwwsXySNZg1JVmQw27wP+KCa8tN2DYa5cuyI3VuiyVkWE01LtAS2ABXOfyy8cLiyKcUJF8JRSMG6xyefgLmJETPHz8HQM+tKkYBpl6dNZmmSwG072OebPawa9x9V9iwQFhozKMu1EZy1qzJkvwVHorjauG5cfZM2fks0tr8FqR6hjdsb4fy1/+tJNls2UY1z/V0BOGWgAMUFnGg5hxg7+44jjigY+3Fqnr0et014qPAviHDwXJxX06U71RfbcM6BBIT8VwWcHYWkcPe7Y+lfXWgiwtLSloWI61mBmXZbHVlD//8IpcW6lLS/q4KTDe6jfIWJhVlBOqUr2l3bLwXSTIzPiENzKIdSseqhshYdyw+H6XER38UzDQdLY15zeuTdWIlDu4g3MgTnIrMOp6dSznWlVZX16U1dXVvGFZMI1748MP5M/htZcxlJaGPSnz5+/YJetdA3IVKdO4nFCxW8YJrSuxO8lDT+67jgDqWVFKyueRu5DZ5DcI+bo6YR56jfF1unZgu2jbuPaC5+mWoKZBT4cupmvmPKBXQo9aBppY4nzQnMiZ1SUYdUVWVlZkeXlZJ07aFSOHbkFtbGzIX3x8Tf7i4qqcq/C/RKAfH3TQnfPfk7g7yIFjbgnrXMGECtWArlXGPDFCjueF8JfMGMbyPPQCFbzYNxVZPVPXkMEZT5GXZ6sJ337aklF7OvgDbVniO8twthZmwZcw2b24siAba6uyvr6uhl1cXJw1LAUfXL0i/+jDi/JnGzVZnHR1Oi3DLgqD98L1cbsYKggayIzBuoRZGHpprUR2saiIr3jB2KqjHp1AriHeDiSvw0N1onYIbeHaKuIzQA5DGhggZM/Jf4OGuU8DzrFZn8i1papsrq/JBv/jpjMsu2HaUXefLLd1x2fPnpU/++i6/PzDC/JRC3fGFG7P/4gIzzXjoivAzLkE45bUuFwvwXNrmFCVsx2qrGIOeiGGcKEOeoEeuNC3DoVryF9fdO0zbWKxnMxJArFMNSrWq/DWGo1aG8vVxYpcWlvUXvYMJr5ra2vaDXvD6kMAV4QSp8vXrl6Vn3/2p/LPr6/J1UZfmjCu8L9FHaNbhpGtK6WBmIMTKsyW+fv8NK7bfvTp7xtmVi5zoa2E9nOfuTQCco61XJ0M0GMCfIpztjaRj5Yr8sHGohqUoHE5cfLdML2Vhi2hEJYdqN/vy+PHj+UfvvpKfvnbL+UXd/bk5lFJ2lO+hwTHRGaOrSX041zjKqEEfntu0jmSif4TfNxpVI7IuLysyL4zlGtRkhkwST7BtwXNwW581JcpX7lBvI60zYWSfLpWkcsbK3Lh3KZcvHhRzp8/r/BdMR2ThiXNGJbfBuj1erK1tSVfwbj/7/e35Mu7j+Xm/lC2R1jm8A1CgIYtYVot+gUqyFAMf+Jn0j1WaAWLhDvpafS22XquwQJBI6kUXyl1AP5Mrut62TNyZ2mliklSsyzXV2pyiUbdPBsMeu7cOe2G/cSJyxx6K2nGsCRv3Hv37sm3N2/KV7d+kK/ubMmtvb5s4ybqTLGKKsOgdHv+t2Osa/VhAcpk9zHpotuG5+sY4Ys/0WJvmznnUdKCTjxrSG16tpGO1zQqhjmE3FXiF63W4aoXsE69stqQS+vLupFEYxKbm5vqqVy7+m6Y8yRPScOSKD4+PpaHDx/Kjz/+KDe/+0H+cOe+3NzrycPORA6GIr1pWUbojunFfMSn7wPzC8uoGP81pnYlrPj7RnPsmxmXYyhnzrzxMclCe3E3iS9518tTacKoZ2HQy0s1LGmacm59VcdSTm4Jjq2xUempfKIT01zDkpjU6XTkyZMn6r23b9+WO3fvyg/bu3L7YCAPMVHeG1VkOC1xvuxuTFS+XLGBv2fGxUm0vFdBeqZXd7rnJHqr9Wb8hxL80esqmm0JH2cXynIJs94Lqy1ZX1mWdXS1NKKfKPnxlEYNT3IiT/V0omFJTGa3fHBwINvb2/LgwQN58PCRPNzalq2dPdlud+QRPXhUks6kDFiohXIdzH/PxYV1juJu6V0ma9qZBoagXikJnFIfkC/VSnIGBj3TqsvaYktWuEUIo67CgDSkR2zQeGmToqcalsQxdzgcqvfu7u6qBxt25MnenuweHsthpyuH3b4c9YbS5doch/4CNycC8N48vV+GDQQj0EPpYbVKWZq1irTqVWk26rLcbMjyYlOf0nBNSiPGYJdLg3ov9a/AzKNTGZZENf4KGb2XY+/h4aHs7+8rGD86OpL20bEcd7vSH45kxN/y5X9N5nib+Ab4e0fschnAGBwPqzBsHcZZgFG5BegNR0+kV/rx08u8h1KX+ed5qpHI/wdizrRfChx7pgAAAABJRU5ErkJggg==;" vertex="1" parent="1">
          <mxGeometry x="291" y="280" width="118" height="118" as="geometry" />
        </mxCell>
        <mxCell id="PoTzArwX_vz-64FjDAHw-3" value="" style="shape=image;verticalLabelPosition=bottom;labelBackgroundColor=default;verticalAlign=top;aspect=fixed;imageAspect=0;image=data:image/png,iVBORw0KGgoAAAANSUhEUgAAAHgAAAB1CAYAAACF+iUMAAAAAXNSR0IArs4c6QAAAARnQU1BAACxjwv8YQUAAAAJcEhZcwAADsMAAA7DAcdvqGQAABpNSURBVHhe7Z3Zjx1FlsZP7eWlvIENBtvQLWEwNAKJkZgZFpvFQOOFBwYkXlDP9PQD/dRmBiQQbsCWeEBi/A/wMi1emEYgMW12G7M+ICGzTEvgboExBhuMyy5Xlbfa5vxO5LkVlXWr6lbmvVVZxf3sU5kZEZkZcb44J5aMzNswpJA6Zi0ak20dsxR1gmc56gTPctQJnuWoEzzLkbkXPTg4aNuGhgbbgnjf4enqGInGxtG2ha5ivSLl0k0GmQn208hEfAn2XaqRwdkKiHQSEeB6Ax7m26zINQ4ud6qHsY0zX8dIuH5ArKM4vBrI7aJBuYw6Ml5+1qOaJI6HzAQPDAyMqoXjEV3HSMRqr6W+crfB8enpS3FcJ7s80h4Qob9SbX3lJngiZLz8zwpOai2MIRfBlZxai0zPFqT1h65ifRGfV3+5CUZwN76N90F9mFQerjsntampSZqbm23rpHp8HmQmWO8unDiona3+/n45c/asdB49Kj09vXK276yGK9lDg9KoGfQbhKxyrCF+26SAdj2CdFdDQuLkHuG85JQkajwkVy40nDi2ra2tsmDBAjnnnHNkzpw5VW2LsxGsp0BqjO7ubtnxXzvkgw8+sP3WtlZNppfW//0Dmla3jU2N0tTYFCrEmTMaNCRtrW3SPqdd+vr65KxWEgpHgZubmuX06dN2Dc4DfWf7pKlZa/hEFGt00UnGUikbZV64cKHceOONsmXLFuno6LB4CK4GyRkJZpjUP0LRXV1dsm3bk7J799ty4kSXEceFuTyEYukcUzDEQSFCjR1Oe1aJhHBcVptWlEatFAzL+tQztLS0VlRwK1R+/dQMTjCVePHixbJ+/XrZunWrWTLhTnBekrM1kHpPLBFiGhs9IxCkom3vgLrngcEBI4Uaau1xksbb6QAI7ZOTJ09Kr7r2/n7G1iGG67a0tNgxaSh0e/scO8evMaZo02BSLq4ggm4Q32dLGWOpBrL3gGALwY7ZmLmo8i1zXpCQcSpAs7rWJnW7ACtFqAhDgxRkSCtEKCjAcucomW1tbXZVC9frtrYGwtOKGCV6TZNycQWRoJ8gfgw83vfzojpd3HQ+jAR2GszFtrQ0K8ncarhwWDpW2tbeLh3zO2TJksXSroQC3Dmk4qYbNA2EU3G6u3uCIrj4OMI/3dHd4guI90FetxwjM8FYqWo7ZC5RZgmaQXfdWBKuN1hncLtYIhZLj/unn47IocOH5PvvD0nnsU6z7FYlms7UqVOn9BahI0YlwZX79ccT/tl2BkgozugwEO9nRTaCMRRVvLtjc7MQrP/JU8hXyBxDJqw1ZDZ0ohDc7/nnny9r1lwu11zzD7L6kku0s7HEOh9YaXMzFYGe+KD1wmnv58+fb9tYGWMK/8qFF0zi8sRIH2dFVVw0tuvCn2DM9kcLoG2vuliAy2V4NHfuPLnyyitl06aN8tvf/pv8/vcPyAMPPCB33XWXrF59iRWup6e7VPgwhOoz66+03KQjaWFFM+gk+jZG2m1nRTaCNT/DGWQbgiGVfzDsJIdhUaNlFsvEci9Ra7399tvlnnvulbvvvls2btgo/3LPPXLffffJLbfcIitWrNDhg46TNT0VhEkThkiGSstMuqKKQrU2ilgnNZa8yG7BI0geBnmycpBBdd3eWaLj1NbWLitXrpCbblondyjBWDFDn+6eHiPwiiuukI0bN8qtt95qnS6GWlgxHgCiadetyHaTmStOXHoLTG9RmrzI3gZbBhiQQ3QYD8dgipKO0ty5czWtDnUSshYsWGjWu/yCC5JzGyxNR8cCa5svuuhiue666+Tcc5dKV9cJtXoqRpv1pM+oVRvCiTNWKLNSOIJMhHCfCPLmKS+q0gaHfKQyw6ESa0Md3cUCaUM7tKMEyc1aCNpV73AxHclYmWEVszl0wJYsWWK9aGZ77DqTKDApiyoxgqHUDlUheCyQdWahGMsC2mD2CaMHDl+QhpzsPWmFhUiGQ7h2wvv1mH2r2WrFlXBcQZJpRUNwflOCmhIMqKA8OABY4vHjXbL/6/3S3X1CQ4JLgniIpNDEHzjwjfz444/qkk8buVg2Q6bJagWiiyjAt7VGzQmmB41rpg1lXvrAgQOya/du2bfvb9Lb22tp6C3PU9fN5MdXX30le/d+IocPHzYtNLc027ngzBkdU09RzZ8tqK2LVjYg5bSOfbHU9vZ2c7/vvLNH3n77bfnyyy/VNfcasQcPfiu7lfg///l/5K233jLylyw5x9pnZsLoZdNxq2NyyPy4kN5trHBc6+OP/1HJ2WWPDtvb26wN5QFDaE8hHCs8YySvWrVSVq++1Ma8rWrhXSdOmFv++9//pmR/Z5a/dOkyI3pAO2LNiRegUzZRlj1X1tYVEEOawQbtJQ8MDY54XPjkk0+WHhcC9EdvOg9q7qJhlfa1ry8sEKCXjFX++OMR+fjjj+WNN96Qv+zcKa+++qp8+umnoXJoPLNduHQIhbHJFhSSiyxThRq7aLVYJYkxH2ZvD/1199xzz5V58+ZZj/n48eMqx2wVCNbNcGruvLlGsi0q0FpMJ40tnsAuUAkqTDbbkY1gq4JhVgl9u85LOvV4jeAf1tg+Z470K0HHu45Lnw2TwpMohk3EM+7FBZ9S993T3WOWy6ICiKaTRnMQLhu2Ewl/cIVFFBAqvWZTy1NLZLZgJiboHPUpEf3aHptCNVxpMyts0HiI5KkQT4OwPtZpLVy0KHG7DXbM8Aey+9TSm/W8eUo2EhfcKooKbpo0WPR4YlObBZYGJnnUe9HxpFLHZWXIiK68vHmR+QolheswhowauZo5y6ASHiY1Asm4aYRCQa7tJ8cmxKt7pqfMJAgC4WVF00wk4dp6zYLKWS2fk+c6Q9Cpk048x3mRedmsEag1j9OpcT/99JM8/fTT8u6778oJ7RHjVokj3USw+qu5qJazsgIlHqWoQHeQSD/EV1U+/PDD1j+BZNdtbN1ZkIlgTiFj1DTfp7P08ssvyxdffGFDm9i9TJjJKpLrcJKLCHTmascA6HBefvnlsnnzZhsyudsmDrLzIDPBkMjEhdc0CD127Ji5R8LIJCC8olo46VyMA71dNS9XfQSvRyZpstAfQ0fIdRCG4RBekf7GQGaCyRi1y9sOXLLvx+C4oltU0dr8bpMu2BSBojIWiCeKIBFjQK/sW79G9ZaHXJCZYCzV21lqo2eQLWHIZNzL0M+MYFWQDA2EfkysM+DNG3pN97Ini8wEc3PPSPoS3rHyNnrCW2j+SVFNkosMs14VpmCBGwJ6csKBE5wHmQh2OJFxDeNyMcFkcqJbQKylqBLBmQs0RYBcxvMxwWkdIm5AeZCZYE7z9gLhOK6JfuxkjwcneCwLjoOLTl4l4CFIU4OOcyMDQdAVW4yCfQwkL8m5O1meMXp8cRvMlgzaW4TJLQiL4eH21xfURSil1w1uDWTIbuFASdpaW2WgL8zwUU50Sb+GmT32CUenPlLJiswWDKlunZ4B33JJpFx8ucySAZubtnhC4jRca5jYarit6QalM0k073pBX5TTDYVj94pZkasN9jEvmaC2ffPNNzYWZh/4pZ1UL0gapGJ6UyNHpeEasdi6rCRuIlSabsqhBcZCGSaxZTTCDNbKlSttH7gOpo1gahcEkwFqHDNZL730knz22Wc2CYKrIZO4cuAZZpu+JQvwsGCNVFKcZGJw25oWci1lZRZsp+oJhSVYQTnQIQ/8mcm65pprZNOmTbJo0aJSHKCZc91lQeY2GCuFPO8IfP/997Jt2zZ57bXX7KE9a52JowB+C88oxx5WivN11Rza7jDR4bzhcydCcqWSCywa7BGpkgqJPAeHVMh99NFHZenSpWY0lHNaXTSnxR0EXPP27dvlzTffNIKZYnNXHdfAeB/47VknbYVSoXfJfiAYYWG9t0u8pTgxikouwB/xRI1lSBgADxs2bNggjz32mE1XUnakEm81ETJfgdrF6524Y7be6/OMscWFswWQ4yRRIVyw8hYVCDbRNAwhGCvqyfb6i/7hhrY14iYQ0lCNbFtAIY+NWkaMgF4yzZnrBp0x8kCfrrs8yEwwmYEcxN0ImcJte/tBGkBGXQDxcRhvL9g7xCq8aObpGnRgbFfQeM6xOAjn+uOIeYBUWKHEyudlHzSdxX0VJ9v1kAe5fAC1j8/+0PODZM8wQgYJI7OeYZAuFFbPg3x74K9bZncgEWpZWdmUnG9Ldqy8Exe6ZL2+XzSxIoRhkOuALbpBZ7E+8yITwdzYlupgsSrmTjScDAMKoYlsy5SckRQRTHra2kYtBJ9waJ87J7y5oGmGe9T6X8+z5Teazmq2Em4VJZHx/lkatkUUzRvNESS6uAGYblSP6MlJz4NsFqyZse9VqcJN6SoAklo0s7hUrLClqTmQrvv9fVohtKbS3rKWa+myZbL+tvXyhy1/kD8+/rg8+J//If/4z/8kCxcvMpLphLBumGuz/OaktvMQTXEptEn6H8rwuHLxRflneQvzCOiHZs4Jdm+HYMkenhWZXbTVK733UHR/ds162Goh2BtQUpmWY3UkpJ88eUouvPBCuf/+++Xff/c7uXPjBrlx3VrZtHmzbHnwQXsR/MKVK+y6LXreKe1lQiyvtvCGBOSXhQZHWTGQsogyKqMR8hKaRq42eCJANqscGQrQtlIj58+fZ0tT1q+/VX515a9k+fIL7DVR5KqrrpI77rhD1q5da9/joG2ihrvwElqVyz8tMJKnCDUlmJqKC+c9YFZP4p6XL18umzZulFWrLrJ1z0xR4rJ82vOyyy6T66+/3ginYtB2Ew/ZLMcdt/pHSFtNkcQwRRW1pgRDDC+fYbW0LayPPu+882SZCsRbO6tDI9ogxoRYKVvIZfDPMSZLb51XXninyT7fVClQYhFlClFbCwZjtJlJX9es1sqsf6rd/tRR6zZYCcMie3p6bJICS+UNQgTXTBxh9oaEunGsHFfNtCdrqxk+AL7NgSdgzF2vBJNDjV10eAxI56qltUXHdQNy6NAh2bnzL3Lw229tvAuJEMvX78C+ffvkww8/lM7OTiMUN491cw2bhy7vEEZDzyFpUWWqUGMXHaYgaUPpTfNaSU9vr7z88v/Krl275K//91d7kx+L7ew8Jp9//rm8/vrr8s4779gct02DKvn2rpN92yNMqEyEqVZiFkxV/qpKcDnFMrTB7Z4+c1qNqkHmqlV+99138t9/+pM8++yz8sorrxihO1/ZKTt27JAXXnhBDh48aK6Y85jp4jVS3jjEpU/GRXt+iiYOm/BI+iheLj+uFrI9D1bhjUKmEu1I/5843iWPPvKI7Nm123q77W3tSlD4dAOZt8eA9q9BBobU1eq5uF1eXoN4+2kAbYfpOZO+NIWndyCMhweWjl50kuMRVGuYHxPNREmSrJAIuhB7EscjwjvvvNMeF/r3OBGGhr5wIisyWvDwAwN7MJBkwPrDuk/m/PvQoY0NjwXt1U4dHrHPORSgt/ekdcJOnwoLA0hvaZM0XI/nwVQmFMK1mNny6zKWNuE4CZ8J4p+kQFfASXWgCxsm5kRGggOJWJOtpdLMwIUTQxwZxLWSSfswuD1gCJPo+t/OCXU4gDYWQkN8eCDhjx+R8CiRifhEkn3u7zJWeBGFuXmArtAZpMeWyj7heZGRYDGrMZJ4sGAhZEhrZ1ILAzkoOxCm/00ctkoDy9SCUMi4cKFSDH/qvnSiVYBwSIgFRxKHl/YLKDRX9pUDLZuXHwGuB7bT+rABQJ5lUImCRHtwb8TymIuhDRaNS9IaqltbucGQCdFhEVt7AoW7Sty5i9dsziEt6RD3EhaXfENrpgqgEvucOzoknLJbxa4CMney+tT92icalBgydOTwD7J923Z5Q4c5J7q6ZP68eWblLCozG6cmUhl1y/neCaI2W7AF8odN2FJ5TGgSOF9hU5Uh2s6LER6ka7RGoB62RQT6ojMFuUzosOiOBzC+6A44wV4RsiIzwVrfbC45PMxvlGOdR+XFF16Uzz75RHq108TP3/AFWgphiAh25XMdbk8w67DYcuzisNPsb4DvDYcEzBSCgVdeXzZ77bXX2rez/TtZSLpdzoLMBCOndRjE/Zsbm6VP97/5er/9+plNO1rGKIT9DcoOB0H5JmbbRlRMMBiRLd0njsS+vNbJjEEM4YO64yQXFVR8d8VYKQ9hLr74YiPVrZcmKS8yE8xqC1w05OGKUS4UmfqdECVNc2vpLUAJZj8oP9Brd9c/VIhAccCImptcj7Qebn/twuXBPYpswQ5Xv1t0v/ZfINj7INNmwTz6Y2wKMWSo70z4liT/OCZjfKKQDoQhyagpnq2Ry9+kkJYNepShoLh9WEyqTGKxrNcirUWVUNpPwkv3iBMVDE4clkz56WimXTLhEJ0HmQgGnOQP6a0jYIpHw04Ju/SuRzrK9M04diIsLtkvXSN9gsLionBPC9j3qDKnFgbozVUfkwog3V33tBEMyAiZIxNcJs6wZ9pr6HiAYGs3k2PHyGKT2WQbNiWUqwRFBrrBWvvVHbv+XF/A2+BYj1mRmWAnN4aHpTNWCcFOsqMSMkfEzSCSXT/oC7iVup78mPhpGSYBal9suZ5hr40eXkkGjVy24bCEUeTGW02cjp9piC0VcIzOXIfoOO9sVvY2ODnNMwWRXiPJEOF0sCol2CQ5jjGiaBGptk2dEKfNVKgpAvpJW62HoTO2uHDi8pALMhHMKTwS9OezHJMpPmfotc4J99o4HshAug1On2HHUQKPH5FO4zkuJUtfpCBAX2696Itjxrz+ZqHrlE7stHzCgVOcPPapdUy5vfjii/YpQ94zogZ6bayE4LEsGNjZqUjCxgoHky7UlCIMDwFEM5O1Zs0am65k2tLd8rS2wQ4ySEaOHj0qTz31lLz33nv2fJcaCcGV1D4yUI7g+MzSfpKI41FXji8wKrJYsDkEFXTE9CSL/R966CH7HX8nFWpIkwe5CI7bXF76fuSRR2ytFasUcC1YckUZVDLMYaVJ0Zylg+w4CU/HzRSYwlVnEImOePDgv9mABceU5CU419nUPjJIOwJwy7gXf7RH5uJjb5vjYxPdD78RzONA0ug5uu/pTDhOCelnpGj5WEaMYaAj9MaWY3SJXr0JzIvMV8A1o3hf2ww8Q3QO4naYePYJ52MtHFNLOUaY4oRo3l/iZ3ZOqwegsO7ew19t9zXeZCAlGjYYSdk0RZJBlhKHX5BBP+jSrRY9oR906R2xPMhMsGfISYhBHOIk+WceyLx3IrzGko4e+Q8/HDZi+Jw/z5J5f5blN1QUfrGFlSPm2xKx27uUQxxfNAGJ3lyPtUJ+HzABsHInGoIBwylIh2gIX7RosSzoWGDtNuup+B1D3mZgMQHEQjyMxm8XxtUqXcVGV7liwWbjastrCTUnGGIh0t24u29WLvBtqNtuu002btggv77z13LVVVfbS2f8ZiGumveKWbKDMmz1pl1hmEC2Y5HpcUUU4Ntao6YE434YMrm7puOAFTPmu/fee2XLli2ydetWeUJ7jw8/9LD8629+I+vWrrNfQ/P2x9tvLJuKUdajuUXEUoehpgRDqnfEIJflKXwgbd26dXLTTTfJpZdeaoN8lv2sVFJv1jCI5xfACWdsba5aXTPXgdxRDyGi49hC6iQH1NxFY4n0FOkxQtKqVavk5ptvtt/xh0RAh4s2GUv95S9+IVdffbUtYYFRfmKHNdEAl00bXCIxwZjHkFxEmULUnGDg42Q6UbSxrD3yxWU+3qOdBnS6qATLli2z9JDO6hHabjxCpSBlkWWqUHOCIc6HAhDJPmFOFscIrts7ZMFtN1nHikkB9qkIED3FBjDjUTWCncQ03DIhCCuk08WDCY5x2XSi7CMteozQkSL+8OFDcrSz01ZRts9pt9kubsFdRojWE5N0eMHFMRmvlAWZCY4tMJ6JcXAMYUxwOCCYd4H5YClv+XMNzqX9ZS4bd7x//357YHHkyBF15wvU6pu0ApwpfbyTu7AiMxbeGp5J4vl2oAfEden6TOs0C2riotMZw4rpSRPOG/78wje/krZ3716rALTHvM3Po0Z+R3jPnj1yortbWvUcPtZCo4V7933VxmhhvfRMEfJrxQjbNJxwypwXNSE4zjgdLGok1gnRWDGfaYDI559/3p4h8xI4+88995z9YDS/809aKgTp2YaxcP652SIhbQhObHo/DzI/LnRlczqCi+VxF48L2ad9JQ0E0c4iZNjbWgjkMRm9aqwX142QHjIR2mPO8XMZblGrq1Hw6QZlcP2wkoPHhU888YR0dHSU4gtjwWTGle77nkH/Mg5kOWEMfwAfWsEtf/TRR/L111/bi2qc49aLAqgopCccd+4VajYISB+DcmFZkZngiW4ek+wWyTnUWIgmHAvmxyj4+h3CB9BIRxrI9aET6XH1HINYATNdvDy+LReeB1VtgyEj3gKsDrKwSqw5bluJ41EhQyd6zfSmIdILyXVwyz6M4nwqBuGzQeKypFENckHVO1me2XQhHBwjICaSdhbysWAqBFbrba6HQzLwa89koTyui1gnMapBctUJBhTAt95+QpoTROG8gBBLGjoXtLcezrmk55ghFltvw10hM1liHbhQtrTkReZeNMr3DHAJZp+eeeYZef/9962zBFkAAv1hA+k5Jj1hkE4h4x43aWJCCffCc473qGc6vKmijIwkbrjhBnt8SkUn3MtI2fMgM8HxaZBAO0k7CrkQ4RmkIox1i7ggID5mmzFrMwIxcZDNZA+LIPwBS7WQ24KdEEh2SwWEUwjC6xgN9INuEPbxTHgy91bQgkybBUMkN48zQGa5HBl0yXj5nwXQjUtal3F4HuSayXISHZ4p4OEZL/+zQ1qXAN2lwyaLXG1w+ua4bXfJ5TJcxzDQX6x6LLWaba+jqhYM/HJ1cidGrPpy+iI+rx6rasHlkPHysx5TZQCZCR4PXNIvW7fk8kA/rpta6ihzF81JjCWNcmF1BJTTmYfFkhe52mA/1WtguS69d7rqGInxdBXrddqGSXXMBIj8P/N/ifvBlNQQAAAAAElFTkSuQmCC;" vertex="1" parent="1">
          <mxGeometry x="330" y="710" width="120" height="117" as="geometry" />
        </mxCell>
        <mxCell id="PoTzArwX_vz-64FjDAHw-4" value="" style="shape=image;verticalLabelPosition=bottom;labelBackgroundColor=default;verticalAlign=top;aspect=fixed;imageAspect=0;image=data:image/png,iVBORw0KGgoAAAANSUhEUgAAASoAAAEzCAYAAACG4058AAAAAXNSR0IArs4c6QAAAARnQU1BAACxjwv8YQUAAAAJcEhZcwAADsMAAA7DAcdvqGQAAMD0SURBVHhe7d0HoB/VdSf+AYkm0REgegfTe8eYZnDBBhs3sOMStzj1n80mm3XiOImTbLLZTdlUt9hxoxlwwYBN76Z3TAdhwPQmhJBo//M58ztPw4ueJKP29DTfp6uZ353b7z3fObfOMjNnzny16dGjR49RjGUH1x49evQYteiJqkePHqMePVH16NFj1KMnqh49eox69ETVo0ePUY+eqHr06DHq0RNVjx49Rj16ourRo8eoR09UYwSvvjpr3e4yyyzTLLvssnkFzxi/RzKF4XbdcHv0WFzoiWoMAKkgJkAsr7zySpoimS7xQBFXF+VvuD3Mzn2PHosSPVGNARSJFGF1SWk4uoRTBNT1Xxj+rEePxYmeqMYAhpPN8G4fTalLQu67z5ny17VjoJ51w+jRY1Gi35Q8BjCcYKoL1yWYLvEMd18oP0VI9awnqB6LGz1RjWF0Seell156DVGxH05oRWBdlJvSymbnpkePhY2eqMYAkEeRSZFR9zczceLE/F2EU26gyOfll19OU37Yjx8/Pq9M+e/RY1GjJ6oxgiKRIpdx48YNnrTPnnvuueaFF15oZsyYMURERUbLL798EtnKK6888NHC8woXgRVh9eixqNET1RhBkQhSef7555uHH364ueeee5q77rqr+cUvftE8/fTTzbRp0/KZbiB3iAiprbjiiklUq6++erPuuus2m2++ebPllls2G2ywQbPqqqsOhVvk1qPHokZPVIsZw7thXSKoMaEiieWWWy41G5oRcqE1Rf01y41fvnn8iSeSlG772c+aO+68s7l/ypTmiSefTFISxqsdovE3+Ndk7JmGsH0lNKxxyzYrrLBis8oqqzRrr712s+UWWzQ777JLs9122zWT1lqzWWbZWWNbRY7Sye7FF1/MNLovDazyV3nhxrVHj18GPVGNAhSBEOYSbL/B77on4MgJ+ZS7Rx55pLn88p82t912e3Pvvffmb9074O+lF19qXn7l5aGuYDeOlqzauJddpiWdl1/mfjAWFc9XWmnFZu111klNa5dddm52223XZpNNNkkNrDQzYfPLJHEGWVW6M5xAxYvAhuLv0WMe0RPVYkaRUJJFCHoJdAl593cZ3bUnQoO68MILmxtuuCE0qbubp556Ort1RRzjx40Pfxl0+n8l/OV9a5FXNsJLq/y/teNeWoSFWIRnHGv55ZeLbuFmzb777tvsuuuu2TVkLwyakvvS4ID/IjD3DDfC7NHjl0FPVKMMXWIi2O7BbwKPjG666abm3HPPbW655ZbmscceC8HnLggBwQw0J2SQRBH248aPy/tCS1NAn2pR8byCROIeObGhXYm7vX85tKXxOZZlHGu//fZr9tlnn9S2aHEIVDgVV6WZHQKTphVWWOE1aenRY17QE9ViRgkzEOAkhQFpQJJK/KaxGCC/4oormosvvri5/fbbs5uFUMYt25KTikRW3AvHmJO/bngJz+LSht1aubBLbSduxo0Lgol0ZThhgJ3npT2tv/76zZ577tkcdthhzRve8IZ080qQGfdJdBFvaU/yWOTpWY8evwx6olqMKBIowSXETGkhiaidGTNmNvdNmdKcf/75zdk/+UkOnE9YaUJ050KTal1lOEPdu/D7X8ipC/HGpUtU0A64h9WybddPGEVSicG9Z+4Q5YQJE5q9gqzefuSRzc477xx+OGs1wSInQGxQ5Nqjxy+DnqgWI4oESnBLqLvEhaRuv+2O5syzzmwuu/Sy5tmpzw7NrNGkaqC8iCnDDJMhF8kMSANeQzyB9DXwmxg89/9wt7Q18bz00ssZr27cuAh3WnRHt9t2u+bDH/lwkNWOOSNZs3vSJq2gayiPcyTRHj1mg36eeDGitA4oUvCbIdyWIeji/ehHP2rOOfuc5oknn8hFmePGjU+SQgLLxjUFP/y/8nKrkQkJgXCHhIooWvYaXAf3ZQVFWtKSfuJaacw0xW/jYdyIP+NdxtKHV5uf3XZb88V//2Jz1VVXNdOnT08yrYWnlZ9M2yCfPXr8Mug1qlEAAk+AaRsl2NOfn9489IuHmuO/c0JzwYUXJTGksCOP8KPSZl3DLrprSRzsjE0lIbRE0x1rEnbdQz7PEOIPOQ3CgNSgwj1ktzDcvRJhh+dMp/RIM81KOE8++WSz0847NB/72Eeb3XbbPbp7ND9pEMIyQVzjQtMyKzgrjtGAKjf5qfuR0C23uYHbLN8w5a/H60OvUS1maMTIg/YBL79EWMY1Tz/9THPyyac0P73iivgdQvSq2ThEE5cw3atFmsTm5Zdeytk1P8z0CfulIBL2yMsVwdB2gGDC0JgUMxCsFK6BG6YVszb+Zcd5FumM+/HL6X5GvC+/2Ky62irNz279WfPtb30nNME7wn04iMS8/DJ/kZ74PX58G/doQpV/Ea8ygiKXunqufJkioUKVpbAKwmJf4fV4/ZhVqj0WOTR0DdvUvm4eYUmhiH9nnHlm2416/vmB65ExM/zTtJZffoUMg4AYI0I8xouWD41npZVWapZbfvnmualTMz5aUC0V8Nsg94LAihHPlClTmp/85CfNfffeG3G0XcAky8jXiwsongUB5Y9E7IOE0hLVgTJkuDERIA/Ky+QBU3XlufLjT5kjMeGwV/bqVzg95g99128xQ4OGEpDllluhueiii5r/+OpXm7vvuScXbtKO5oQSqPEhICrTb2HVmxwJEaBJkyalUDEgZm4IU80Yzi+WCwG2p5Awf+SjH23e8Y535Cp2aTJuJp80w9EC5cYon+7MpDJhj8Qeeuih3C9pzRoyopGuttpquUJ/4403zrxyC8q23LBzZYfYerx+9ES1GEFoGW9e0KBnznyx+Yu/+Mvm+uuvH3oTp5Y1ByAbgiasFLD4yyUCA2FjX295W2qMR3FXKD9m8uYXwpLuF6ZPb/bYc8/mV37lV5rddtutTVvEb0Hqy9FNHA1QHlkmUXYIxSQArcnvG2+8sbnmmmua2267LYkKYSEghFNliYARljVkVutvs802uUfSM2XAIL8qkx6vHz1RLUaUoCAijZmAnHnmj5tvfOMbuUWmNKK5EVUJQpFBBMpTEtUsgnoxBW2lePsLL4XONptlW0GtNMwvDLpnOBGnuN/5znc273//+3M1u3SkG+NtowDyLO9eFO6Vn43duq1XX3118/jjj0e5DrqCL7VprjJ66eV2vyXiWin8r7HmGs0uu+zymsWvVabqZkGU7dKMcZ/73Of+dHDfYxGjiKretrbHfP3rX89uRgkRwa+Zt5GQ5CCscMefMAkGwUNIjHsD697w3LCLmyHygO7964V4IqQgqXa7j3RstOGGzUbRRRKvlesLIJoFAvlFptJljNCq/xNPPLG58sorm2eeeSbtlJNJgEx0GLOY/nSzzcR6hcx8cWa+WIzNPfjgg0leVu1XV1I91kunx+tDT/OLEUUkhVtvvbW5++57hgbWCfm8qLvcZDev/RmkFfd+h2CtHN2TLbbYotlv//2brbbcMuOjXRlc58Z4DCyoMZRWcwgiDOHUndJtuvmWW5K0WowSlhoASenynXPOOc23v/3t5rrrrhsaXK86qB0ASeSVfKQVfltttJ3xU2+67CeccEJuGPcCEnYRVo/Xj56oFiM0/NJiXC+//PJm6tRnk8A0cnat4M8ZhC1N3GfXL0CAEMWOO+3UfPjDH26OO/a45lfiirSKxBhven5Kq5tfIEnSnOFGPDSTu++6u3koNI2Ms3U2amBckAZ12mmn5XiUcpRu5VH3SfwDY5kFE49yyQdDy5Jf41tw5513Nt/73veaSy65JP0Lp8f8oSeqxYwiIgLtVARtml37pm4FhYADAmOXv+PqdxEOF56lSHgcz1ZZeeVm//32aw4+6KBmu+23aw45+JDmLUcc0ayx+upDM3/IjB/xtZ47kBgmMK8kIwW1LstJDDS4Xzz8i+auu+9OQhwexaJElVWWk/J7+ZXmgQcebE455dTmnnvujTQbzyuRkNvWyJNTJF6MLt6MGS80M0JzeumlVhO2hk1e+bW1yHW55ZbPdWSnnnpahl+k13aL23QAO6h09RgZPVEtRlTj1UjvDkE2vrF8EIff3tCuhAmKsLI5R/uu8ah67jew447AeMOvs866+cafOWNmdmEczbLZZpvP6lpG/ASpxlAyjoEhRkUsGXPYzQ3CswwBQZFD4ToG+YEHHsgxsgw3HpSQLkxUPobfF56Ol8OFF17U3HjDjZFO5WFG0ngfLTPKO8Sj7da9El3l5Zu11lqjWW+9dZtJa68Zv1eIMpcHz+UpLq/GNX5mWYVxTtjpPzw9ymKWtlr57qZFPfSYM/oSWogo4RjJFGgzZptoVabvi6Q0aksGshsYf7SfcUEwBm+RAbIx+0RzyQH1sGOy6xj+pk17PjSZu1LYaDm2sKy3/vrNXnvvFUK3VoZfdJHpGSRpVsoGCHdIbp7IJcLJbTPxZ6tMktbMmc2TTzyZYz9FiIsCQ+Q+KOvSSJOg43rffffmuV7S7M/sn7JMQuUm/ozlOXtr//33b9797nc3H/nIR5pjjz02Z/d0o7O7NwhTPMoJlhu/XI7LXRzdv/vuuy+fqy/xDtesKl09RkY/67cYgYAMZmukl112WfOzn/2smTBhYnbLCIxmTHgId9pFg9bYrfLmF6mttOJKQ418qKnHb/fZ5Qg/O+y4Y25mLmFab/Lk1N7uv//+dGOZArLM52L9L0zVIq0HwjUShJ/pEUzct+umXm5WXWWVZqedd27WWGP1yEerYZSgLkwos4qnSxLPPvtsc/HFlzTnn3d+dpERu3I25gTKY9VVVm3e+MYDmuOOO7Z529velqeaIq0ddtihOeCAA0K7Wi8Xtz7y8CO5Pk35CV8Xd3y8VIQxderU/EDGTjvtmIPqOYsYz7uEXfW3KMpjSUWvUS1G0JAsENR4nXWOtGgdGi7NyZYXBOXNjKCs+ubGMwSAVKY9Py1JiSEkrSC22teLL72YM27OsfKbUOkCrrnmmil4m222WYZX2pZ4828gOPB6hYe/CgVRPfvs1BTaRYkqD/lBIgz4bY3ULbfcnHbSifxzhm6FdruMxZy0qHcdfXQSEzt1UWG5On/r937v95qDDzkk/dGmEJCxKvGusPwK+YIwSfLUU08N6mYWemKad/REtRChIc7JQGo0IQROyjziiCOazTbdNBs3oXjqyaeSxGhV7RR3e9LnhOiOFAiGsAhOhUmbYU+gns1xmAtzjMhWD92x55+f3my//fbNW9/61tQKWiJsNwsLp0ylUzgZdoU/B5Q/WkWRRPwXwvti5mlRQrqZgntlDU56mHLflNR81IGXgufulfHWW2/dHHrYoc0WW26Z+eAv90uG+3qhcMcuST/qjTYm7zQpbtSDe6RobZz7brlWOUM3nT3+K/qu32KExopQCMFGG22U3Yk3v/nNzdve+rZm9z12b7baaqsUhOdDE9JVmfrc1OzKrRJdCUJCEDTwfFNHe68ZqIKwGZoM/3vvvXcuUkwii+t666+XcVuo+Pjjj4UG0JJhIQVq8Nv9vCLdhpGu8rfGGms0u+26W7PhhhuE/aLp+ikLRFCEybBDGM75uuDCCyJ3QcI0SvUQJGTrjysSV14rT2z38SlvpsJQbozyXWvNtZqHHvpFc+999+ZaquWWXy6JWu4Mzts0vvPOO+XewKqT4VjYZbGkoyeqhYh6W44Ez73B641tYNbMk/Ecs3Xe0nvsvnuzVwjMlltsmWMdBOGRhx9OLcVJBUNvaQFGY68lAGYDrQ4XrsFs0+ST1lqrWT/IqVani8+3+9z/IsKUlgyom+xfUn7En+ikSfhrBlHtsuuuSciLiqiyXCKOJPIB/FaGFtf+9KdXpJusg7iCgfR1okwOp93qGr9oDDG6cVFWyrJeBEWC2RUfN755LLQm5Pd0dPHUCwiRBjY1XhKIyrcRkZQ0VNp6zBt6fXMhot66czIaMuJwXw2XsPjaC83JN/V0Qw459JCccfqVD32o2XjwZiYkGjyh4bcrcMZL3BuUN6ZlvOo7xx+fJzLkDGG4R3LGq2hxh4cRZru4MYNICL/MPGHgWdzSlcQZ8fmdRLgIgaBKg8m8DcpJvpEVKrEcJOshur7Sx40JjXK7/HLLp19+PC+CqTLhlyarDo1JVfj1AmEcsyO+8gv1rBtWj5HRE9VsoPGU0WCrgbqvBlgNGaqh+d0VDIfgPfPMs80DP3+wufPOu5pbbrm1ueGGG5trr72+ue6665ubb7ol19pMmXJ/88TjTzYzZrTHgxg0Nz2ewiXMuDe+ZDxpjz32aHbaaadmRr7JDagPIK2D9ID0IQgLFYFb21lOOumkXHxJiBlpXj/CffPhb26OOebdzcSVJ6QWYXB95swZkblXIj3i0YVqtb8hoYqL+wqrygFyhbo0SeMgLYVyU2W8sFB1J+/gXjrBsyyjuEc2qeVFunQBnUuvnj2v5QZZ1pFWaXcd8j/Ii/E35dX+ajVaKKLOY6E7qLCYCrvHyOi7frNBNcBq5NWI3FdDdS1B597VW9O0v26FPV++YPzTn/60uezyy5urrryyuebqa5qrr7kmiOrafH5DmOuDsK6//ob0Y+uFJQO+MmM8pLStFPYIH2ERIKR30803vUYLg5HuC9JsdtGY1wYbbpjaVEsgyzSrr75adgtdH330kfw014orRlc0tAVo11EJdxZBY0n38g/Ko8jSWqoiBfGuHl2/PYNkN9p4oyxX/maXxgWJTM+gLutemYF60vVjr0wjMc2KK6yYxG7lOS120+h6sws6SXeV127du3eygjq++eabczwKMRv3qvZCqz3kkINzzLHaSvmtMHvMGT1RzQYaUDUiRoODbuOsBoacaCq+WGwa2v4uV8eE3HTTzbl/THfLrNsvHMAWBPDwLx5uHgkyQBoP/eIXzYMPPNhMuX9KLvq0lspYh9Mxf/7zn4em9XhoOC9mFwR5EQZxWLsjXcgrEpTpmxvy3PUQmkcfeyy7jetEt9LxK0U4EydOaDYMAjPw7blBeFP2le92r5vu3IDIUwuZpZ1kmQzKyrgON+xdxbP77rs3Gw7GqNrwFi5RFRBjpdE9WFzrvKkXpr8Q2R/UczynCdlQPTG6fxtvsnEzaZKFsbMIF7hVJn6rA9tvzjn33Ob+0IyVpTJJN/yFGy+bo48+Kk9U6EJ6eswbeqKaDUrAGOSQjTgapHvwmxBbcWxD63nnnddccMEFeY9kaCPWLFlPk6uc409XymxSkov7eLMzfpcWghzMzj366KNJUjbz0rLcP/bYo9lls9TA2ihpyy4LQkjfc4apcx9biMRnN4VGIb61J01KbSfTEP+kZ8stt0xtglAjYssX2nJAUqEliHEgtPykbMZPacn7fNCWk/CKqHzwgUa1qIhK+cijspIO5FKkJU+33XZ7vjhWXGnFfKY7TYuVLssPJkZ3e93J6+ZyEWHJB+O5MGhitgf95CdnZ92blRUPDHV1w+2ktddu3vOeY3JtVmvV5l0Y3TB7jIyeqGaDbiPSGLu/NXzEcemllzU//vFP8ngQmtOzzz7D55Bbb1FjVGDtUmkaKcURToGGU59N18j5IywZX5ALQUCIt0TX8JbQpmhmhMoCQ2nLsRBkMbeGPhAG3RR5EK8p9alTn8tNysiqFn1y5zPt2267bXYPU4iD3JAVbcNvbqSVAAsbARgwZ59piXuQKs9So9pj92bjRdj1kxdQntm9C9TLQV5otDfffEs4bO2Vd+YnQOOySFM9rLrqKhHG8u12mXCchBflqF7sFbSgloYbGUqtFZHLG/fisczh0EMPybAq35V3aWQ86zEyeqKaDTRE0Gg1KA2JcGm8unjHH398kNSPo6FOCftXchxjXM4atQ24MY4TfwgqG+WgERKEEp72+awxE3Ey1XC9kf1GSGamEATtbEXT5CFoz0eXTJrGL/facaqRwMULQTbIqAQGQd435b7UKoxNrbbaqinEJTQEzX42YyuWMRh3Injibb9sM0hv2PNnYSq/FT74v4jKRMCiJKpu+SKqSpdyLfK65pprU3uyiJamaykHErdM5Olnno5u3T3NL6Krzi1jEe5jjz0eXfTbmrPO/HFz1lln5dIE4WZckSXh58F6YdTdh3/lV5rNNms1VHbAfdU1VJn3mD36o4hnA42nBKkauBMcEZSGqds3YcLKqc3MmDkj3WmQtKYim7Yr1WmMroPwPcuZsLCr8DVg4cCQn8F9CVjb/WoJjrFA0ypzA7fld0REcDSpVVaJdEcaaUiWLfCFYDfaeMPmyCPf3hx00EG5XqubHlfpePSRx5pbb/1Zc/U1Vzc33XhTjrO1X5WR11bY5IcvfuSR8NoHZ7znU5/6VLP//vtFOtoy4x4qrwsa8oAc5LcIQvrEp4t90UUXN9/61rdzlbqlBcbcKi1IGmGVBmn8ShcO4SIrR9cAgksvMh03uTwkTHb5I4/77LNP8/nPfz7Ca4lReQivyrTulcXCKoexgJ6oZgMNRwNPoYt7M3Lf+MY38qhaDc1gs0+te+sSAASQgh+/aRUarbGdEkTQCEN0h0jF7zQaarjzzBhPNdxqvF2QBf8jLMyj6+WDnvNCVDYePzftuUyfEz5VOq3CUgjCZbZq3Phlc1/bhz70odxi47n8GlBv79sPivptHM54nDO07rzjzubhRx7OT3sJSx5oWdKUHyENO2Nen/jEJ5r99tt3kRGVclI/8iC+TFfEZUuLc9G/e/J3g6Seyu0znjH2Xqr7fCnEX9ZR/JlAkG9LN4xZ2THw4swXs+7NjCqf1ILlJf6py4032qj51Kc/3RxwwP7RPmad2sqPexBnT1JzR09Us4HGo2FrUL6t95WvfCXJyiyZZy0J2RvXkgM1P7WpwRuYrYYYIvsaAsm7+K1B1/qmJIrBb42VtlUNl1070B4m/lV3hYDoEgqbQHHfjWc4hGXKfeWVV2kFZkBQ04JYDPoL1zjVaquvmnn0RRWfuSKQhJN20Qqvs7/bRarSJX1I79nQMC2rmHLffXmU8uNPPJ6fljLGYxM0rdP2EUS17777LDKiAkRV5CAeaTrjjDNSO5b3lVZsv9EnL7RDbpWPupSq9gVCCw4tNgiJFl0vMCv/wYti5qBcxad96Cofc8wxzbEf+EAO0vvyjrVw0uC5l4ww/Ban8p1THS7tWCqJSoNADgROA9FYXP1utRUk9WJz6SWXNP/xta/lLJwvjUyPBqYhcq8BD6Hbvqo059bmhrvL3/Fft7FGPK/5PUDGX/Zx/+qrs2YlvdF1Q2GoqxFv9zwbKtz4VDyyWmGFFaMrMynHoHbaccfmDdu+oZk8ed2cmSJQNK8k0CiXLhFKkvjzJqzYV3lya/OxLlQOvoeAEkrGYHS7HGK1cNdqk/y58isOxv1r8jcHcF/+ufdbnqWjHfimGYeWE79prb/4xUPND394enbfdf1092TD2J2unfoHbhFwBNouWRBHhNM+i3RlnG3+lenLLyO4Nn6EiKQQvfOrdKN1z+00qDzNa/56zMJSR1TdBq1haliuGjvtITWhKJGfXn5FvHW/09w3ZUoKmgZpTMiaJo1XYxstBUcwCU5pY0V+uqIGiKU1v7gcz32Hbrttt2323GuvXNS41pprNhOzK+Pcq1ZD6JJFCZQ4unbicc1yCFN+fOI9yTx+gzJCFNKkq8winGV4wmAqjHQfV3bCmBO4Q8yu6q/CkSZ1mwTi8/iDsGh83zvttOb8Cy5IkqIFAxKioa68yspZzwhWXpA1cn3ZwYTxW/jSnmvHArrSWoB86N62xxTPSOI/6qijmkMOOSRJyvPU2JRBj9eNpV6j0ji9fdlZW+NqRuf4408Isvpp7oRnF1KQg8+EIH+PIkhPCal8gbxJqxkt2hFC2ne//fI4GRuDjbPRngigwW5a13JBMimQAxDwCpspVP7LvlseBFsYRWy6xIi9wtENMktaxFbxlSBzx1Q+RkK5cZVOeRWeLhX71q693nTjjc2ZoUUZY3zi8SeSvFPTjDh1+TKc+LMfUtlMnjw5Z/t0X5Psg8DlI/NQ6RrEn/kM8lpn3XVyVtMJGDuGhuoEVc+8/Kqb1+P1Y6kkqhICDchbUKMlMOzvvffe5pTvntKce9752dAY3T5vXtqXBjfaGp00EsgS2BTUEDB58mFMJ1M6K50QWh+FxAg18AN+jxvXCh/CNrNpOQbtA9khdPn3vMhBuRlUNpZFe3BvVqw996olpypX4XMvfdJbZVhEBUVcnlX65oRyV+FVWDmxEelbbvzyuWD2+BNOyM9gyQutM8tpULcRQJ52IM8I6r3vfW9+8dhXcyysvefuu5tHoutvPEu44qm8G3inoW611RZ5iB4NVbfPi4GbDD9Qee3x+rFUElUJBKP7oEEhLY31hz/8YX495LFHH8uvCmuc1i4ZSM6V1wOByDVR+gKjALQYWkskLomA8Fmouf0OO+TAuC/3brzxJum2CIDAyovB/+eClAijLT5PPf1Uzug9/tjjSVbPT39+iKRKa6kyIKxIDzEhqwkrTWjWmrRmkhZtDXG1Y0VNPrfiXbqEp7yh6gLUQ4U/N+FGfvy5MsLjVzqRBP8333xr8/3vfz/3VtrfGJYt0YZ/GlJujQk/XkLGzz7wgQ/kcgLkIyxjkw68M0toeQrCBvkWn1X9a4bmtN56k5Og2InXc3mRFuWQddJjvrBUEhXU212DRFbeghZzWoZgo/D4eBsjpkIKRjRCDRx0AUZLwflEenVjCalzlPbaa680SKqdtWu7aUkKkfDnngtyeuTRXPBJizSGg6BoHQwhK7KQ9652oBwIvfCyKxT34m3NslmWhBbB58mZ8dzRND7v7rPnL7wwPUlMuMpemop0hDk3kgLpKUIC/qUZ2NljeeKJJ+dm8Hb2FJG3xAjSlIPkr7yU+xuPPvro5vDDD0/STTKL52XE5SXmpQXsxF359Fu4VUaVLnlzlTbXHq8fSy1RaUwatiu49zlvb2Bra5bPGaFWsDU40/muK0TjdIXR0viWWaYdzCY41kEdfPDBzW677dZMije+NBKw5ZdfMYl5WmgFtuHYkkOY758ypXn4kUeya5ObjeOPEJtql/cko4FwJzNHluXabT6LeAm8eJgSVukJB+lGN4s29fGPf7x505veFET1fBKVcpSmEmxu3Yu3wpkTKk4QHz+u1nd985vfbK6//sYMM9MV8XjJ1LqxIpGNN94wlxG85S1vyXAQfpf0qgxcu/BbXNI/PB0gH5Weble7x+vDUktUGlY1Mm/FO+64o/nyl7+c3YSceg5xLKHR2DQ0DS9PMXipbeTVOBc/2q6PbgutxUmS0l3pM6D76ivL5N40x8M4YgZJPfP000OzYpGbvGZe0VD8M8NlWl5YhA1DKZsUujBtKbX/VXmkCSvhZPxhkAIt71d/9VdzsHnmTMsV2pnWSmONic2rYPPHLVO/pdNJFrrvPoO1UnRFvXDUG+JxOB536s8Sjk023STP4PLpK361B5o21MsIpEXZ1L0wsswGaeCPvTDKHTuQF+7mhXh7jIylkqg0HKiGrjHTpE488YRs6NYYEUjrgBCA2T6aiIbvO3oa5NwEaVHCuiibXt/3vvflQLA8EbQSOrNXV111TZ7wcOONN6bQ6g4SqsxHGLlxW5ucTb9bM6Qc2kPl2nJjWtfQkpLfWRzxn/VEbHS3uBUHIS2i8uXmF2a0K90LhNpgN4Oshh8yNztkOiKOWSTZvlAclSMcs5wzX2wJRLpyu1C4q5eTZQTvec97ort3WPpjamypS1jcqm/Pi6TAb/CM4c8VKg55V9bsh8o64Fn3Hrrhl11dodxD193wcLruxhKWSqLScFRoNchllhnX/M3f/E1z8UUX5eK/bgNZEmCMyqpv3RcDwSVEunw+3HDqqac255xzXuYrx9ki/5nHMEMNO64LqiGgLwPVulglxJttulnzyU99crCFJogqXgBI0Mp1pPW1r32tOemkk/NDpY7unSeB66Q58xVkYFLBVTeWRogg5DUJMzeMN0nmFmMidxMR8wtprTiUfWlP1c7qmZeHK6PtlVtji7renhepMV4mTGllnpUfL1Bw75l2LK4ivLGGpbbrV5WpQTzz9LPN//7bv83tMsYycu9dVP6SAosNP/GJj4fgHZqzTxqt42GcLmqsxmF8q6++ZuYpG7y8dfMXZbEgG8GciMoWmukvTAtXoeUsu1wKojR961vfar73ve83TyCqEMy5CZuwuRnuTnzilz2ztmbtLCNgjxB23mmn3Mu49z57J1EaTJ9fFPHIp/vquhYZtZMZLSEVCRmcd8yMT/nfcsstOaGBrHSB+TG+uPHGG6fmZ0LEXkkD/cqqws8Z6RXbpRDQ7a6ONSy1RKUxEGgN+NZbb2v+4e//vrn9jjtSiJc0otL1W2edtZvjjjuuOfDAA3Ma3TaR7373uzk+ZXHn9OmtptgKMaJq/c6NEF4PxDEnjerlV15sN0a/2p7ZRKAR1fe//4NcFlID+XNC5qXqKOLJXMR/XcoluAbta0Grxa7vf//7c2GmNNn/uMKKrWYyP1CGlV7tSrqQR5EVsCvNyCmtNkVfeumleYAhP55Ve3SVdqQlDPskbRL3IpJ2hCX93CEreSzi4n+oXMYQltoxKg2I+qxiHffxr//6b7nIz1hGuVlSIKmMNTvWK3kzW2Kg8SMt9i++GF0E7JT/gkhKoEvIAwsqz3MjqhdfbE+WQFTg/jvf+U7zwx+cnhqVzb9DK8BHAMHsprtSnnbxDLxw3OvOO77GmFSdW07I+QmdKt3OD+SvSMh9pm2QBnEhItfaEP2jH/0o12hpf9whJekB7bJeomXHDTur3a2L881Bi0vZIURxCkMaxirm/Noag9CYWiGZ1Z+ndXjDa9i53maJA+J9uXn6qWea++//eZCUbTPx1rXXLQeZW/Ioae5qHbPuFg1KMKWh6kGdENDpL7THqED7EYmRTfw3cNd2ZYXVNdwQYHszCbaJBiRFg7PPL8lj0GWaXyAU4Rk4r9+VJ0SCQJ6KuvnSl77SnHTSd0NTei7SsVJoQD5qGi/M5aL7G6KonqzfW3FFX2RuPwYbfJ/2SF039vTTT2++/vWv55o/0IUsQhOXeMciljqiAsJRRKUxaxApABoG0Y1nSxLsWTPeQhs0YylvZilpNI52yTyO0H41bI9m6SQLF+JpZ+BakioQamM4ui/MtOenzdH4onG6DT9OtfCyceqp0yGcVmBFvbzZIGzg3FiPmUx1W0QyPdwsKHTzAsIvjQnB/Ou//EvuNTSriZxojIjFDCefjPRpk9lVzfGzIPUoF/VnksCss7SbuXX0kKU0iJcGXWQ1VrHUdv281esN5PzzL37xS7mFxFs2D33LafYlA6kdhODrMskPode4NV6CouHbXL2okIQ/l64fLYPA1uGDxmwuvviSELrn89lwwf8viOdcZC1Fnus3f+V38803b444/IhcL8Ud21qh7scrr5ox43L+ID75rPsyyt/WG1rQd759/FB5VP2ktjVeXoOckoyiG1enMyDT+LMcRnts61Zdt11L41TWy33mM5/JPZwVbqtNLoBMjTIstURFuDUUlX711dc0//Iv/5rbSNiFZdv4lxDQTuRnIH8JDVYD1x1pvz4zeBB54yY1qIWUxTkRlVm/F16YloL2wguz9uVZ62V86sWZhC1CCH9zxCAfr8Ewu/rCTo4fxW8voRJ+cH78glieIP1Ml6QYxEHr+d//+383zz7z3EDrMY4V5BN3iEkzQ9jS5LluaXhNvxLNLusyw6Q5twRX9jTGT3/60637QVrGIpbaWb9qWCr99ttub/7u7/8+d9qr/IRSGVQ6d4Vuo4z/BrYDDNzn/+VmDqgwCKV7xOIIEoJdSwiElc7ir9JGG7RCvhaf0hLyjO58Ggh/ugrZtQ1jur/e1AKTqgx5yMOChbDnRFTTX3g+9wEaV6vybE3kb5DXBQFlaIwK1HOVn3IpLUU6oeq00sJN2btHBC3RtP6F5yrMrDuVFOAe2Ns7abeDwfPVVlszNds6YC8cDsWx6iqrNhtssH5+mstSCl1am8Ltw8wv4YTbKhHBK89MQ4Qzeb31ms9+9rM5/lZxDy5jCkvlV2iqQapsjY9gXHvtNfFWfzTsBgJN3MJN1rmaHy5A+fu1GDSTwb/215yQbuJfNXSNP2e7BvcZb7W6QZqRWnu+eauJtLNjbVc1n6dhE6mLK8EoIUoM3MxD8l43Iob4vy2tTGPEv8bqa+QHSJ0jXgJKYIs82jIwudFOcHAz6/frM9ASQ5vZNo62LBRBllt7M3QdDu4Rg+dFVJB1Fc8qfwy7Cocm6/hqs5nGqpw02j26WP7k3djZYYcd2hx62GHNgQce0Oy55x7Njjvu0Gy9zVZ54qoTU598KjTNF2e23dYAkpUL3ebnnpuWg++77LxrZSoxUn6WVCyVRFWVWFddA9qUzboGdFv7VqBzXZXfrDTIvGigrf806bpFUQKXbTgjI8OIxlrH3jr3ysFyOfuIqAbxSQPthMDkmzyu0lCnTGYsc4lrUWJORGU8RddnqOxmk+7us/kx8wJpQxgtMUaaB6bCoEkxtBwLNGk41jf5co2rhbWWgrjW+V2uhhF80dpiziIq7cyC4tSYByR19FFHN+945zvyc1q+H4gM7S6w9s0BfBbwapeOmkmtedA2Kn/Z5Yv0OimDNlbZntf8LylY6rp+3YaosahoDenss8/ObRy11y+7JeGeu24BDTWAtBw86dgRT+HDXBtLOLMQUZfA13ozbbSN8Gf8wlS9EMySSSdhsiaqVjibmrZuqoRstCBEPNIzwmD6vvsGGbfrqJRPlq98d9Jf9vOLuZWJcqP5WDApPTXBAvwqc1cD4mbsjDdxj3A8y7GvSKf8cScMV3bCsurc2FuuHl92fPNMkJixOX7r/Ks3v/nNbfzhx+C+uuWm1r+BPZpO9rjzzrsifbMOedR+dOml4y++8IVm1912i2dt2S+I8htNWGo/QKqyQSPzFjPN69NPFuL5LFS1cQ2vjKovISq7QjaM9p8f89ZQuA93ugTSMDUap3GazTbfrNl0003aBjtt2muESSMXsvuVQuW39sjveYpvEQFRkSKlU2X1y2pUiwLK0EsK4bv6XWmy3AFoRxecf0FzyqmnNDfccGNqN760Y8nBPffcm/eOLfb1bMamaNthEJRlAza8I5XoraUm7DPxSMwq+UMPOaSZvG5078I+CinaQKspIUvtkTvtwqms7Wf+H0jNbqjtRTFJs7Q6JJGG1hJtS5ZjCa20LkVQgSq/KjK7UtGQ1l9//Ww8VG4N13NvOQ2hGnB1vzQgDSXDGIRTjYdwDjWkuSHcpDYUt9bLePNuv8P2+aFOH638kz/5fHPMu9+dK5I10GqUzsSiefnslPRXXnr88lB2Xgi56DfqoAwtRXfuRz/yaa0Tmgd+/lAOeq++2hrNiiusFH4mRldr1RwfWm01xy+vHPYTwm610HJXjTbmc/dtl8+md2GuHF2z6dPbM/rt30NA4jexYMxRHRdBqWvtwb20ONzPMc/5hepoN906d8bWw0GcOYQwRrFUEhUgiBorqKtzxc2e+M1Ug0iNK964Pq/kHjm41j2/NZbF5O8wcwPtSRhggFSjfNvb3pb7ulZZdZVmgw03aN7z3vfmgkXdgGnPTctjfo2DIDanDHQbbI9fDuq3XjzIgFZFe1WmiOt73/tec8IJJ+S4lK/UcGsW0aevLDhV8tZB0ZQQEQvhaBNeJMKptmWWVpg04NWiDm06nhB1ish8X9Hn2fgDV26LsKQriWq11VL7Mtun3Whz3ERE2a30Ih2rWOqISuNEUhpRaT0agwZKq9p///3zNMpsxMgsGqBGqMHV0cT8JtG91BJaa0K9D7sKMygrr3OC8LKhBbxRxeOtKfwZL4SKH+SFmI4+6qjm1z/zmfxQA21PQ9dYuedWQx1rkK/5NfOCagsIxuA4LUa37p//+Z/zjDL143NiQrPyvSW15bPMfS3brJx1UAXtSN1pE0BD0ibUFQLyCXjuPXfemTagO9h+rmxcdhdBVx8ZZbuLNNK2cqIl8zYYoxrkU9hmBMdeK5iFpZaoShtS0d03mdkTO9RzRi3cahy5yTcasQFORJFvxri6Z9rtHLM+gODwuSK1OSGaWS7wo62JiznzjDNSjTezY6mEtNKcDJR+6IMfyhkhb2CNlfuxiiqP+THzgtJ+EYEuoNlfR+M4IocdbcbEyoyZ0XWb6LiYcUlYxp6WjTYyLrp3Jl/s12teDaoI45m9fPZa+p1bZuJPFw+5TH1uas7iIT3k8gJiG7z0EKX0aEdMpY9Wpx1qo9qWtNHaaGraiMkYM4JjFUvdYHr7RmqNBgDVsNlprKusunL8dqD/c7mWZbvt3tBsvfWWzU477xhdwy1znct2223bbBv2BjA33GjDHG9ITSca0rRpz8VVE5zzO67SQHPTKL1FLRJ8+qmns2uwxpprJplpwN667MJTc+cddwyEZRbBcTf41yLklHCAeLgRF3cauN/dZ4Wh8MK+wnJfZD70bLjJpy3aX23snvFTg+kbbrRREPqs40iYuq+w/WYgNYdAxQ/clH35LffCgHKTgj3Ib9eNe+VqFs0YknsD47p6V199bXav+W39hPvI0ksv64q1K8unTn027kODyhfUjKi/F3M2c+aL7b2rF037hWT5sJxkcNJBvNDU5aabbZYr55VU66btJoK4vRDVsev555/f3HLzrdlOaPk8eNkan/ICNWTgQEAD8mMRS+XKdI1BY61GXdeChvfQQw/mDI+xookTJqYbB7EZj3A6JWHU3dPwNB7alDektTY//vGP8zjc8eNsXemK8OxBkIw3aHg59hTh0+p8GcV+rtxWMXBnhskiwssuuyy7f8LPJQ0wPK6hfJXQtu7dg3IQr7wZ36gyIeRJDHGPRMuOWxAqO8/de5Z/8Th/x9+IyxPyhM/2W4r8KbsKHzLcwFAaAuzKvkinSMQ9u0zDIAxX9uLtuvW70JYHEmvLwQchvvYf/5HrnmxyVuY0lFarbRd8ci8Mkxu+4+e+ytJz4fjtapmBAwvNGkqDj2tUWn2Z2ef0nY11xBFHZPtScqEkD6UXUdKudB0vuuii5tvf/nZzxx13ZtlGZJk+bc7ZXe7//AtfyC/8qONa7DqW0BPVMLSNXYPyrG001GzQaDSOtqG0XUPgp4SA4Flz8w//8A+hWbVT3HOExhum3pyuGjNB9rEG41Pbbb99/obnpz3f3PqzW5t//Md/zDVfZd/NS4prpKkVW7kYkGHkO39zG4YgZn7jnhvui7CSwIbcKrP2N7ezwu7GEBCWS/yNRFTOU5o+vd3tzwi/0iYt7tm5b+uiTUOmqZP+elbwu9yBOCv8IhhhVxyMsSZHId9w443ND3/wg+aSSy/N9WvjQwtqtyVZu4ak2jiF49RN2ouv/RSEKXzPgVvdNGvzbEjWbsbFSyuHBAak5wWw7bbbNkceeWTW8+qrr5Zl7GXHPf/CcVLCKaeckqvcDbjnmfZRvjQ1hCosM4h//md/nmOYgyIac1hqt9B0obKZQpGOAdZq1LoIjPtWcF87sydMzzQyb8JzzjmneWH6C4Ons4cY27d2EFM08kqXBm+q+ZHoBhofWX+99XOFcjjIQXfdhiefeCI/eSXdrabzXwW3myeo3xXPLF8d+8GzcBy2YR//kkQGeU0/wkkzZNGaAdJfFJKQuBXu8HVU8uxZV7gL7DwrbatbzlBu6+q5e2FmWgdpqatnTPe3e1uRbrzp5jxdNDXgIDbbW1ots90nCQhEmjbYYIPmXe96V37/Tx3QrMqYBPFxVca9ZS7aj7Eu+fDi81u9WsArPAtJH33k0dS+SiP3UrTqnWbuaGxf1KHtsc9yiCwjOzk34+iLOrQyM9barbRXPscSeqIKVEMuVENmNLJs1NGQzAppMO6th9HQ3SMTjQiR0Yq8/c4++5zUKOYEzUnYum6mnY2PacgaLLLTgB97vF3ZvOkmmw599ECXD3Fde8017ReAM5z8P+9hqLEO0tA+bu08ywat4Zedv7hlJ/x6zm2F1b1PZNDxX+d5XjO22RPVJhtvlGTbLWMEUy8HPsXrOXsCTcD95sYV2JcbqGtpUYUKW/103dBYrg1y8vn+G66/PuMQprKXcKmv0w3Ymwn2KTLHAVsqIt3d9BRZ1m9xCNNWmnvvvS+et0e6aBP8CVMYTzz+eK5g9xEObqdMuT8/Z3bFT69oLrr44ubee+7NsHOYYdDOGH7zpRUk+dGPfrRZe521M+52z2cmYUxhqT3mpRqV+4IGhHjM5DkXyaD4s89ODbsZzTPPtHu4CDBS0R7N1hkjMPNiLGvlaMBPxNuQyn/dtddGY+0crzI7KPmBICA467RsiUCO7bjYKylQW265VXPsccc2hxx8cHrzptdFbL/cclKOeaSgZICBQbgSWZWbefVHY9DQw47QEN5c8xN23bEwXQy+lU+5r/GqEhYG2KX7SK/ZyLZ8Z9/1s4XGQHOGOaiH4ah6qbrxu9yVPyiiqHCUY5UlO0QBntULx3ODz9cEyZ988snRtbp5aJFvjvWFm8ybAaOIxhE5W265RXb3fP+Pf2RWaRImg5i6pMidcSaa2v/7f/8vtCenIFj/1C5DadNnMqRdoqKs2FcetEPpZ9i3aQpSl8+4VxragAXBH/7IRzJ+8LEK6RprWGqPecnGEQ1Lo6AlIQQzbsZ9HOdru4K33dNBTrpwTpXMN2E0Emdwazi2sGhoWvSKK7aLQYX71NNPD01FzwnZoDS8QSPTODVg3UekQq2XRnbGdn7zN34jj/UQhwZsy8Yf/MEfZDeBGw0548xgEU0Lz4QjLs9L2IeEjUSGa0KArGrTaxpPwj67QfwPfnPbpj+tAm4GfjLs2ROVY16ej7KkPUqTslcH3GW44gmUnbwSVEKpfIucqlzYufrNDyCq9pz4WV9i5oc7z3THELztLlaZq0/h5tKAcONFVGW03bZvaN59zLuzayUc4Qmr0lIE4b78VB5cxSeuU085LZeVqDd+5JsfYRrvdOQMZDhBaD57n27DcOte+F4IdbwPDfW///f/nl1PcQm3J6oxBI1Jg9O1onL7KghDBbe+xVG2GgSB1UDKj3vXocYYJdduHA6BWW58DsxqRKutagXxvDWYXJEehJQ73+O3dVtmFlMIIj6kJZ0a47Ef+EAelGZdTgpyNO6//l9/3Vx8ycW5livHPqIBi7bGMQiebof0mRY3q1hnMWnYtEICanOzqXICLi1doRU/gXs2tEprgKwhsweRFtIKVpTNgEgIlYjnpFGZxpcvRFJCrz7EoVyVL/siGGAnHMYiWL+Bm7IXpnDsi5Of8gPS4RmSoklZLyWvySnSEGXtRcFYqyZvO++0c3PcB49tdttt10xHhSEe4SZxZADtJIrfXTLjzvPHHnu8+ad/+ufcXCzOqaFpWZWujLOrH+6546fyzq976YHScLVBL0Fa9gc/9ME8Fka3UB2x5yYrYIxhqSIqDYDRCKnkF154YR6SbwOphkJgmHZtzaBbE/aEVfcOaAO5PCGeF5lFoPnMGJKTEHKwOOzatVQjA8HlEbNxbwZH419xhRU9yHhbQW3T7Shh08///ffiDTpprea5qVOzu3nmmWc1X/3qV9uvmkQjrvR0u2kaPI3RlSZjINigtqN6jb1ssvHGzaS1104hSgIMPxC9xCHI4UsvvpxnkVt86DNP9917X3P3PXfnkglLOdgjOWRZGpew5MuXkj/5yXbWb8aM6UPkVORiXObyyy/PgWTPAMHmOUwRBjv1Jt0Gs20pYa/eiiykXTocVOeF43lr5MnHER5u7r33nuzOm8Y3wK0eEaYjdqRTmqdG1/CQQw5pfuVDH2reEBqV+ixiko5yJ94iI8/YlbsiGfe0Qd+O/Nd//dfmnHPPTfeKVrsSXpWFxaHCkx5GfipvCMpCT8MQlkZ8+lOfanbcaceIs9XEhSHMdqHx2BPpJYqoVHpWcjSC7ttGQ6gG4qgM19QGXmqFVYWDcaabbro5v3dnh7suE42CgEaAQ29CYY8ILWNOz18vshb+a9h+eaThEs5f//Vfbw44YP8Q9plJTA899IvmC3/xhdQGpV/ak+CinAgCO2/t9TdYLzSD3XKLkOls4zIadwkVKFv5h7oORxGZ8i4h8jY3gYBsrrzyyua+++4b2o5iHAbZWBhbRDVtWvvMl1WEo/5oOd/4z282D0ed2GYi7dIlDnlAsLS1dddZp/nLv/qryMM24bc9dbPaBYj7137t19LtKy+3dc8/rYVb8bpW+pdffnymHxEw7t/4xjfmNxLt+1xQECci971FewilU1q0vUwfYgpCrR0NWc5ehvG7iMui4oMPPji/qoP4+ZN3YZcsdOtzLGGJmvUjPCqsSEllauQqRqW5Ljd+XDsTFnVlMJudN/GNN97UnHD8CXmuj7Eo3Yzs9oRQQPvlj3gzhvucDRsJC6sRCHZ2YQ+IMQe847pRkNVOO+2UZVGkcd311zX3T7l/SOi503A1fAL9gWOPDZL4RJIEwtC14Zd75ans5F2YRVDCqEbvypRAufLLree0AEJkM7UtSATcKntkpey5Q4w0QuuQlgtygFZjajUHROcDsOpBeOIjyLpwCMTYWUTWrBppPyDIdvJ6k8PNrHG2Sr8TD6ziFu+KK01Iv8pEWEz7AmtfSAa2+WO4k953vOMdzbFRXrRNeePOdX5Bo5UXGqz1U2ZtpdG+QldkYwhAuYrPVTdbWr2gjJHZnG5A355UbjyTbmVVeVgQaR2NWKKISoVo1CrVfTVSlarSUnAHYy/eptxoCI7qOPWUU3M9isbILTdM+UcU7UxP3JDVUVLfulDZ+MIQatt09j/ggKH8E0Jbau6JLk27QLF9I78hhOED739/8973vS+Jbe21J6VWwo/8g/xr3FWmTAkJohNfhce+3JQfaQDu3SMn40frrbdexukLv+Krw+MQJaGrT10hJBDmbbfdluNGxgcz3IivSEQ6aETqh4Af+MYDm7XWWjPirdmzNj3uzcw6WdOMGyJE8MKQDigtUxyWC0QLyjL04nKQnXVS1ksBP8Jk5hfiUE7CNN7oA6JO8HQVn/VXus21Bssn3Pfee+/mLW95S/P2t789tTwvAG7kR1hVb/W72sRYxBLV9VMhKofR2KrB+V3PwF4rjdRBeGed9ePm+uuubx5/4onsAhGmrMxofH4LgwalG6VB+l2DwKMB1QBpAoTVlpq//uu/Dq1o1ZyNRAAnhJZIW3zk0Uey4b/pTW/KGaESAN0Zs0HyLo/yL5+E05gQDVM32LgOgvKGRyQlDIQMGSAW2pjTKb3Vc3/jQDsTJkKp9HIvfCRlPNAMJa1gr732DDft0b7OcErNNsLV9TslXiYWQBoDFJ6wjOPhCY3UZIC9gma6dtppx7QHeVL/8qRL9cd//MeDMSqTC213KtuHchy0EeG3aW4J873vfW92qZCE/CCABSn44pfOCpNhpxyQqiUTyq/anfJTX7qGrtJTqDQVgfrdDXssYokiqiGhDeNepVSDUun1nL3ZnR/+8PTm1ltubQU17Noxi3gef0OVnAOqrbYWxZGNOgJIIhsNyDyFJkFTtBl1o+g6/dmf/Vmz+WabNs9Nez61JNs0Tvnud5u1g0AOO/TQZqedd86FgPJAeFsCD/KNcKzzeuCBn+cAuAWGNE4rpEtQxFfXrgAgfl0lJwWsvPLEfPMblN9g/Q1yc63N2ggMdMm69UPLEQ8/NKqXX47wXzFBseIQUdkmcvLJ3w3CfDR/qxd1qj4QpTwIx2C6r67YFK6KxMGAtCLE3/md38lww3tu2m3rPkgv8iEc4XpJCds55bp7trLomolbfoVVbYT7+YWwhFPtUxmD8uk+U1+eVzqqHKHS43f5YeSJ2wWRztGKJYqouhUFfrtXQd5AVakGdE866eTm1lt/lg2U69zCMH75aJwhiPFmzm0R0UhUMj/8xs1r3rijAa/Ja+Rz3cmTm//xP/5Hs+suOzfPh0ZltuqKyK/BdNrUNltv06ywonVY/LSDsRqxyQNu7B2jddiCY3aLQBOOiqPKePhV2UiK8KRJmPXWR1BbbbllEtY222yV4zvsS0MochCWFwWNqhWudjmD+9NOO6058YSTmgcefLDVbsMfSJvf3Oi2bxZh/9Fn/yhPtEDeVXfiEb58/sZv/EYSr3PK1We3DLvC7Rjgw494c5KU7pi4EIdn3TJZEBCmvEqnOKqt+g3SxL4IjHvgTho8q7y6es6ve4abcrug0jyasMQRVVVMVaSuChAM91dddXVz8kknNTfdfEs2NloEgeWev7ZRz3pLFjEN/R40HG5HA3R9ak2S5rdOCJclCnvuuXszY+aLoW0s1zz26GMp2MYv5DcFMbQfjZ4mY2zuyiuCzO65O7Uo9iX8clmNu8ogkQ9mPWubfghDaELIX7kpK2XOWFZBY9rmDVvl2IspdNoPjS99RhjiE7dlG9Ibulr6Fc6ll17aXHjBRc2j0VXkjnvdXfnOT51HGTiQbr31JjfHHndcninfLjFou3zCYOT3n/7pn7I7ZTGnbHDjmTClPW6yrJDrEW85PLuvNJhuG3BfBLAgIMxKp/xVXJmmQR7Yl4blN/ssh/AD0lPp4rbC4bbrbixiiSKqqihQSaCS6g2lO/Nv//bFPF4jKy/+ajMoN7kCOexXmtCumWFgaKYvSkK3cDShGnJ2UUMLnLzu5OYP/+cfNjvvtGMSVTXs1k2rLYRFjjOZSXNEiL1sDz74UIanMVvcmCQQbhFPFGtbBmEy92ExRNTsB1dusg7CpMCFcY98hNWOATVJAgbTnQpgpk8XkT/1AIhK/dCo2AvLWNZjjz2R24EAMZXwMQhN4pZfYfmcmnciZjxO/6VJKAsaIs2ReycWgHLJfAzSLzxLIIxHrb7GaukWUQlHGNxwy2S5xu/5RbVXYVWaQVqgmwfXel7+uu7576bLlR9uy26sYYkiKhJDbKqSqpJVks2cJ554QnP22ecOVbQ3scpzzrXfuWgzwmjHK9o3ZVUyU7/jP4Hm78WNzG8IrTTRYozxfO5zn2u23GLzyJdFgtGYQ3sibNVIHw+hv/Kqq5pzzz23ueXmm7OLGyI/JIRDxBL+DDazQ1jCqrIYKg9/QZIVdtp7FD/ZKccSpgwzSKgllVezm/qmNx3YHHzwIbmo1CB5nZdkwsPHD0rwMqzQBjPcjKcNL9MSf6buk+jyOUFtBbvrH7KeB4PxrIQ5SO4QcntRWiCM9kWHOIVf4bhW+5KO+YWwhDOUJxkcoH4z5Yb7OfmRXmmUduUv39xVXVQ+yk/9BnZ+Vx6798Ko+9GEJazr579Bw3l11hvEeMSPfnRmaFP/lo2tW6FjAhpSXOTNGpw//qM/atZeZ1I0zlkbWV01Vl07B/edc/Y5zZNPPpFdYgTn2aJACYEa8ILwsvB1n/e89z3N9tttn2uoVA93XYEpU3ZzQ/mfE7KdzAWjSSDlR3qGk47fnvld5VOEAmXnWqb7jCn37sE9I8xqG9WOGGQ/mjC6aHMuUIlWOdu6UoVqRs8AqhW/no8xior8RAMdaEI0Fd2VNddcK343zbQgaG9UGpLn90+Z0px4wgl5hpGvnfg8U5YZDWcRIfcTRnoIBJKk+Vx9zdW5/OCOO+9o1y4NhITpooRImudmyu2cMDt/w81ogbIoYpU3v+vl47e0eq5s2Wn/6r781AvawlLPuXettgGeFzG557808a69ehttWKKIKpp2HoVSFeRqJsghdcalFPJYg26fBiu/xn4solzWGM+L7aZljcvbzyDyV7761dxLlg105ovNjCBxTbROZ1gUcFyztV1tGtqjcgmD9Fn3VXsQZwf1V3VY9yOZecHs/A03ow3KBskgjroyoB2Adq98/c7ucIAcICVlz75mGKsb7Jk2VHKjTrgxNseN5/zxMxqxRHX9LFo0rpJ7+F5pK9Rntv/qr/4qujlP51S9wd2xBI2sjO0vv/mbv5kD1BpaiFo0suWa+3/+8+ZLX/xilsXUgZa18sSVQ9ucnhqnj2TmONcigMZuLNCYV5GoqzGqz/z6r+dC1Jdeamf6iizkDbrEUXZLCyrviETZMN26V67qlQHEgvzVuRX9Fu5aD4ewTF4wVvFbIGxiw8JfYZSxZky4Jh+QXZEfIy2jjbCWKKIy8Gn9k8WHkfRcTW2hoC+HGJitt8lYggbTntLQfiD1D37/99sPj8YzpCy///gP/9j89IqfDraNtASgEWqACE3jr7fywoZZVTOo4pcWyyCMVVkY+olPfqI58MADI03tWd/dtEIJK5Td0gJ5ZxCQcmGqLas7z5zw6Uyru++6u7nwootyvaC9jekv6tkWKp/qgiy/MDSmTTbdNDej24az8UYbhZb9SraV2o4jntLMiqiY0YQlqutXUIngjWLHvkLNio1KHmtAUjNmzmgmrTUp9345x0h+a9nFT378k+aaa69ppj47dUi4LSPQ+Lwtu2exLwog0SJF8erqqRvLCvyu5j/aBGFxI8sqSAKqfbMrLco9zfkHP/hh8++hPTvKxtE+iK32r1o35sXELss6wvGSMCziXHgvtO99//s5+VSnNmTdhNbLn9/iGo11s0QRVR2jq7UbNHT2EOP8KIO0DhCLGhq4HhvwlrTmxwJKs2f1xtOV8/EH22daTWrWMgF7AjU1v3PGL34vKhj3ICRIVDoJQI6VBbFmtyUSNpIg8FfgZk5mXjA7f8PNaIL8a99FVMpLHapfOwpOOvHE5tRTT83JI+Wa5RxuLKpVz5Zw5ELe8F/jUSCf1tXdeNONzQnHH98cH6aeIS1tSlziZd+th9GCJYqocoOpCghCsu/L6ZwqQGWaXTJ+FbUycD12YGvKPvvs3ay1ZnvkrIYkzwbO779/Sr4Jh8bmBlcNV4P1dqXlLCqIE0oQ6mjjvA9hmJsQ1HPXOZl5wez8DTejCYgCqUhXvZDUrQWsPi9/yaWXRVfvmSD90FyX821J3UPjtZp9lPurXmCD+3jqoyO6i/kiD/d+P/LoY6GV/SBnYZFUDaSD+NRbEeVowhJFVCpA29Lt8ZZ54IEHU4tSsJrcaHtDzhWRaPmJd3v+aWjsjMHZCuM7bk4ocFDeDjvukGMLuVgxGpOvk5jtVBaFVvCi+UY5VIPX8ErTWhRASvKSaQnjd9vw29+Z20H6CnXfJY5yMycDlUfXEvSyV6QpsxG3cvPIgtPWCbJvtRek4MogBmjT3IZTYUI3/gVvxGAZSjtjx1gXZ+Hudddel70ImirtOR3XJQy3Wc+RXn+tXYQZpnYsaFNeJE899XRoZqc1F154UeNz8hQApCfAXCDbFtqowuhL0VxQhajSnn7qKfWaRkXXW3xJQTapFKjBGFt08zJ/Yaf7lmdP7b9/c+CBb2zWXHONIWF7durU5sc/Pqv5eTRi6DZ2jTcdBRSNcBdluWR+AlLgrkiENa1vkLREpXnIT6V78HtO4Kb8y6NrxTVEzFFeLWnHfZi26SA2CyptHWoFuMipwmNgduU23M2CgnRXmpAL7VNvwRYoH7Sd+ty0LFNu3OTK/iBaZGtt4UthXvZhh8Y4lzz5UEhLxu0MbDsRpXtoX6Zz3J3T5jP2L8fLrl4wAp+X8l/UWKKIqluApt1VZNTGkEAsadDYNR6NyJiTRjp+fDS8HGsY3+wfmtRb3nJEbu4lTClUL76U57yfd955KZCZ71HYsOYG6UYwRaT1Wx3Lq+ucDPfVPVIO/PrtGTv3+eWcJJSWWKJ4I2wkxY1423CQQqVBVwhqQBrYd+MtU3YLxrRhQi2KtezAIYBPPfl01nHFCVVWXmgGxrfeeptc+rHnnns1u+66a7aZWhoC2e32J6747dnPbr01P3Jq5rCQZDUKm9MSR1RVQWa0cnwqfmcj9Cwb5ZKDlqhmDWAaz0lNarXVmv1CkzrqnUflqY4El+AYQL1vypT8/Pgjjz7arljPvyUP8ltXZVD382rKvXKpMRaERSBBmS67TBD5y9wSPhpXe19jNq78mMIvchNmV7irvRWG3y8o06YrtJqID5mqayTy0EMPJ+Gq65ygSJftNyX52mTjTZp3vPOdzcc/8fHmt37rt5rf+Z3fzrPpnVbqWGjrp5ASv8opu44DefHFI0ToQx05Yx72NLCMYJRhCdvr174ZNST72f7937/YTJ3aDggS5nozLiloCeqVoSOCffTUJ498ovt9739/s+EGGzQ+1im/BMZJnE7BZKyB0f3tfodvtMBbOTWEyJN0S//Q57L22zcEZtaWHvkmPF46qSEH5GVu9ciNRYulVaaQD8pAnBWGKXzPCkWKniEoa+9S24h0sCti4sfLUBn73Y7dCL8rLq3Av9Zu/iB+xmkSf/d3/5AD6bRoXyECE0m6fwjNRzo+8fGPNzvsuOOAVNvOm0+4CcM6w3PPPa8568yzctO+T6Zl/iPNUkxujPV+5td+rXnb29+e27MKr77akvVowRJLVL5GjKiefWZqrtHxtiC0S9LKdMLMEBarim2PcYD/QQcdlKuK5akE2dG6Z5xxRvPNb34zGmV7xrc9WXWEyWjCnIiqPpdVi3M9kz/r4ZzKSnCcItqdJJgdvPl9zNSyDf6LpJQZwkH+iN1sGQLslqXnBHuHHXbIBah+s6+0FqTp6quubp55dmq2rVzIGunyV22R3wWBTP0yLVmuvPIqjY/g0qhoVuPHOdsd2jEnWH+99ZoPfvCDzWFvfnOeQa8t0LwUg/EraZNHXyn64Q9Ob37wwx/kDKBxUItDlT+ickS3L9t85CMfabbcYouss+WC0HIsbBRhiSKqggZnkPGLX/xS41ttdZZQvi2WIGic0TQz7T5l9b73vS+v8lMzPBobrcACv+985zsp3HrsGmbeR1mMNnKeG1FNnz5taMEhweTGJ8x8ot7poxMmTAy7Oc9UGsv78Ic/3Lw/NM/SBISjbRi/RFTXXXt98yef/3wuDBaX593u9buOPrr57d/5rSQDGpTn3LlHbE4d/c63v9P8/OcPDmkjSWQRB9JCBuJj5he0IUZalokuq+6ZMnJml/Zgds5kAG0Uybz7Xe9qfv03PiMpQfzO01o+NXLHPMt7kaju7e233d58+StfyW6eww1rj588ys82W2/dfCK6i3vsvkfUmfpo6280YYmS7GoYrirR2d35O56Zel0QDWZRQmP3kQRjC1/4whdyQafGVQ2JYDgDnMBY2Ak0DeQFViQ/H2/TBfVWXxSIqsv0E8jSfuRTfo2nGARWJshnTmb11VbPL94QWvWuzBCUtkFTAOvHLIDURVwnNFRfx1lr0qT0R5jrVArp4F+aqn0JVzpXiOvqq682FO+a4s7rmmnWGHw1Zn7Nqqus2kycsHKz7rrrNatEetddd3J+7kvakqQiTcjLAk9ltE10+2xMnz7dV6dbkrIwWN6qPSAh2pY877brrrn/U/6USfvCa6ENOYnDs2xbo1CMljiiKmiME6IiwfiBvXBLGrbccov8oopPIhFUILQ1pnLXXXflPkbHthiz0JAIUDbAEEpaFcPPkgT1SFBcCYZ8+c3IF/PyS6FpzsGQpVaIW3IqYlc2wiOsDKKhRSEixK7L7KXGfc62hhtlqhy1KWFUWqBN26x4h+5fbs1LL7869Gx+THJL5KO0O1+krtnJavfSws3K8ZK26djYpHwYfEe8/MqnMq12hKw9Q64ZTARB05XvKnuLp/P0W8sY5HuWmI0aLGEtXDmr0faDlhtutGEUdDTMXDsSDXfmrCnl0QKNIYUmGrW3YQpTNAaD5ptssmmzxRZb5Zv0xXg7WuBp/On5519ozj//guYrX/lqdHEvCeHS+Aymtup8uzaonTGMDLcRLWCIR1k6+C7zEASQU/shmHoFEXsKUX7teCBsaa+RL9OO4zjtUxJ1R2bMfCHy90KmF5kIkyCJQ17cu/rdnijaZm0kIwXlXlrdC9O1SCbHuSJ9rzCRNr/Tb7hhL73KUBhFcHVfYfprMUt6hVFu/Rhc5ssIXnzK2dE4rtq2Lm6zjLVVUZ7jo4wG8dcOAGjbROtf15A/JKz7xo5T4XiZt8tgRKgXMihD5RTIvA7sRhtm5XYJwMsvtV0F0E3wkcZ6KzD59ZVRVMjSJD3ZGOK+xpL870OYCMvb3b23ufGEu+68M8eivv71/2yuHaxG5r9OjMggBmFCG+L8Q/oIKJNdjBSWV/LN7k3tN6K1GDGSHG9fSyaczGAwfHykf7kUBEfLWFntGX/qywzl5MnrZheMLBQpVdev4mfEox6R3JwMIVT3tCFhiYsRBvJhp4uTYy4RpzAnhmZhWl8epc/AdNZLJw381dhgPsvwWmHPWbW8RjbyfvB7Nun7ZY14K//5Ilux1ZRpOSZMMi3SHc/UiUW/7JWherEgVFeWZsiN8uEHYdE6rZWST0bLiRjTHUyc2H5RWhrUfRHXaEIU85KEtiCBOmuWbPLkydlAFfxog4bCaAAohYCERb4NNbC77rq7OeNMq4PvzrGoH53+o+Y/vva15ic/+Unzi4fajzEQ6kWF7CqEIBNOM0OmxHO9TjTcnFEi8fIxaOD2m8kLcnpu2nPhZ0az1lqT8rNdVtQfddRROeD9qU99qnnPe96Tn3PXNVEmkIJB6gPKhkAh5uefnxbuXpijqS4i7anC6WplYJrehminnfrMvzROi7Cnh3khwuC2rRvk05KW8Fylx70ZtDa+6RlOG29cowuZJn4PT9vrMTMHY2TTIzzjTeKSBulz1vwQImuPP/Z4c+89VpTTYluiRTTV1nR1yQp7dk888WR+Os6gO3fslRXiAy+QHICP+s0wB+U3mrBEzfp5o3mDU+FpGE5OoH0Yw1llldVSuFLzGCWcVQ1C4/Jm1IhSZY9ralPxzF4+miEYk6qxKPuv5GNRNpoU3PgzhS3Nln3QqqyUz25V/FXXoYQAka251lr50jBlvsmmm+Tn1s0uMSY9jKPwzxA+/kpgAElcfPHFueTEMgxnKs0t27Shww47NM9YImhFOIBgEO7dd92TxG9sauglEVqr/NGuDnjjAUGm70yCKJLzAqmwfMLrvPPOT0HP/Id95TvLKkxqHwugvXXD084t03gwXlaI3TAB7SfjDqNraBW6l8A222yTdrSp/IJPdBNzvHZQfsK56KKLmxNOOLF5+Be/yDaHoPJMs4jPxmRfC/rYRz+a5/Ebdxunu1kBjBIsYUTVvnmjmWSXyfoYa2/+7u/+Pt5u7SBi6DAD14sfGjRDELXl7EZE4/Dbm8tCPultG2g7nlCfM9co/WYWBZCQtBDUths6LjUGM5PICJxt5EWhnHXnzM5tueWWqUE5fdSHSFdZpV2EWcJcZVB5cQ/1G6koDwRtgSLBzBncdDUywmvGb1C5SCbJKCB9wqSZ3HLLLWlXYF8EKb0bbeTLze1LJNtPpM9v7iwLsfxFmfgNlf4FjghWyPLexv1I8+14CecxRvHSou1UurUI55JZ6nHcccdlOfDTpq01fiPoK6+8KjX1m6Mc1LFhBmXnhemF8NRTT+Z3Eo855pj8IGu10WiBoho1WMIWfLZdkLYy28PoVeSXv/Tl5txzz883eGoDowQalIah0RAmDY3REFqhbQXO25Db2ard8XtRVJD0gDLVpaM5mSFDWjQi9+NCWFZbfbWcHrdY0pHItviYEgd5K6GXD/lmoPLlqixybGXQXeGv7MtN+RsJFR6/4mNoRshGmt0Lo0in8sdf3fML4kWYIE38QLnt+h+OSseCwKuvRD50vyItNKh//Id/aM47//xMW5FopjmiVD/y+ebDDmve9KY35Ydp1YPxLnVlTOrmm9vvOt72s9vacavQ1mhSBttrvIuf/+//+/+a/ffbP8fxoF3suSha3bxjiSIq6n52PQZdP/DWsIL3//yfv8vxiNHU9UNI+QaLP+q4dLdCEOkP4SgBKEHtCgaUwNTvhYmK24bYHCSP33bZO11UOmhQW221ZbPrrrtkt4MG1U7xz5ohqzwUEdGOjOHQfD232l5XkHvP+OcWqQjHPf+eF2nNCZVmbl1LoJWXLg37Ip4U8IEfz9nXb+64kQ72wqo6cQ917cLzBYU2qJZwxa1sHO/y5S99qXniySfTTWngpfEqV2nwsth+++1TszKpQUu66867m9tuuy3Pr+I+cpLykeUzGLxHZm9729tyVbqu+1B+XEMpGE1Y4saotJc8yXNQqRqnRvm1r/1nrt5GDuloFKEagFS51diknfH2RGYaphkbv61pKWHlZlFAfMajTIG7L80EoRh7Mjh+6GGHRoPeOAW9hNi9Kz8E3WC4l4duHG33oYceypXhiM56MVtekALwJ4/DBb7Cmxv4BW6HyniQJkQJ8lDPPXP1u+KWFgZBsWfkHbjt+gP30H22ICD4XE4R0NUW7KOPPZ4f7bjs8stbso9n0uwl4gWgvRgyeM7McDybOLGdVZX3It08MC8ITr64Jy96Jl6U6uS3f+u3m9332H3oBSJP7Wzo3Mt/UWKJIipTreNDkGhNKrYaT8h9c8+99+XqboLxmgFOTrr3/ltAjWu2yDgCEYWKT0GMa04ARAMoIWfcMwQlaCu8trNOwF9XQOYbwql8D+79ytDjt7EoaSlBnfbctEzvGw84oHnnO9/ZbB9dPSugodUUZ21/IRTGcxyRe83V1zR33X1XboVBWO1aq1eazTffPGf/DjzwTUF+voxjP58FlO2WFeEQsFZQ5k7QVX6u/LknmMITLoJSrsKCLOMIkzv33Hk58I9ca0A+F4SGm6w35TLwA/Wbcc8sKLTh0kTbGWwD5mHVXHfd9c2XQquybEV8RWZZeYHSAH2KzCxttX3DIzmuFS8fyVSn7TYc8SDqZZsjjzwyx7iM80HmL65ZRq+MniEUWKKISkEqRBWjMdZvoMYSlv/2u7+fbxvjPmqo20BzwWIIzQorzBobAQ0DSbT3/hu0gjmgKlXY5b7SBNXQRwWUQ6StFpzS2AzQmtWzUbVm9UxrGzB3L1/vfe97c//haquuEvYvpbYnX4RIcU19bmp+OMDsmO73g6FB0Q65YcSVmkrY+RKKnf5mmCz+rHpklFO3rLJMl1Jor8qsyoQxYfSVr3ylufOOu4PgJ2QbznHOKENEBFVk7WB4+3LglxyoV/XSHku8bPPU0483Rx99dPPxqA/biorQkTc/RfKjCeM+97nP/engfolCVWIJhcL1hnQ0yk033dg8F29zffG2K9i+db0lVlyx3fBLGDUIKMLiVkVHwHMXFm4Gwua+fdMNtKRoKC3jjRJEGjVWZIU0Mt+RXNPZ3rDKTnJzAWDkZdLaazfRLppDDz00948hL1qhGUkN/4nHH28uueTiPMnhpJNOam64/vr8jJNMd0kqow5DSFZbdbVmt93aA91oxkVSsyvn7rORzLxgdv6Gm9ECaakyc0UU2qW60i0zQ/nkE09GN/qhfMEo2FeiHGlRehkWQ+dLWdMLoy1Hq2ztX2kJSnaR3OGHv7n5zGc+k5oUbbjiVW9kip370YQliqiqYc2ugSlsAjd53cnNaquv3tx9z925hiS1iIHguFcR9kohE2+Q+sRWuYvmm7rVXBsxogo3wqVuawBagt+Ef7ShnSUNrSgaf3Z54vpiaEm5LSPSbXMr8rYx+nd+53dyyQF3DlczTmUq2yLJq0NzOv74dv+h87xTExtoAO6rewv5MokrclQnu++2e7PxxvNGVEsjhl6Y2lCUQb2IjS1Z2Dw5tB/laTHwk089lfXDrR6Eq83MNYPsP+uvVvSiiTrUDRfG29/2tubY447Ne3EgQnEgOSbrM8xowxLV9St0G3J1t9gx9qIhqKuvuaY58cQTm9tvvz0rOoUuKpSgFlQuw79whFqV1HU3W4SfiHDwoxVKyHT4nb9GF0qdR+jSm2/gSG9pS3vusWfz4Y98uNlss83yGTfcwp133Jkfk7j6mqtzcHx6aFCeIXerqmmiK63oTKQ2DuXJKF9hCfNTn/xUHpzXd/1mD2VQee+WQZXNjBdm5hlbjqK++JJLmltvuTW304CXLrQ9iLZODXXQtjbYcMP8JqQJEeve1lxz9aFxOXXDaPcVj3t2owlLHFFVYXZJpgq1/d1W1lNPP91cd911zVlnnRkVe2O8VWbEm6MloXYwflY4kGGEne7cvCAFLBqDcGogOpcfENSwI8CjCpGmapBIxVtUHjRwb9U99tgjj6+lSXGbb+Z4bnDZ+NOPzzorF086EqS6BfmSiDyHs/Z3+OM3LeKa8US5IP3NNt20+eSngqgcnNcT1X+BPFdbrLGiKmf1Vs89M8v96COPRq/hnuaOO+7IGVYvZ4b2q8ew8iqr5AdB7HpwEuhGG26UWq2tMiYzSpPiXpvwW32Kq9IxmrBEEZXKSuGISuxWbDVyv927UnepxPbR+RDC5Zdfnt/nN9vhxERqD6Kx1EFXLRtFBGNgudtIRkI3LeIjkO6Nx5QdN6MFBs913WiWxus0TulTTtY3HX3UUXn8sTxJte6cKfEzzzwz9x7q5mUjDj/yN0RK4Vo4OnnsofLtt3I0CE9gnOW97377RZxzJ6oKYyR03Y+EBRHGooT0ZnlFORdhVPl0wQ079aNNO6aFhpRDGYMXj16E5QcWQVvUmS+oQXt1NetaXUbutQn21S5GXdksaUQFCrEMlH1dwTMVquJs+PWdfsaXPZ599rkcXKY15HQuhqqwVWZcu2GNCGnIa5hwzg9TaZunMBYBpMIxMboJ1ugYNFc27N0br3AEslk+xKXhemv7UKUD++wRQ1watfKBLLVB+ed1UBbyzF3Zu1cHSVSf+GSz3/77pnZbQtgtr8JoKbdFCflHFMoe3A9HlVGVG3BX91k/4WZ4mZY9lF/EBLrv7uvlxXT9jhYsUYPp3YKvyoEqfM8JILhnx61jZ+3ctwHYedz1lQ9vIaHk2ybcq/QaeJ9bRRkgri6fwWECb4CexlJvxW4aFzeihCKP7ZhRt2ywC7JeaaUVcxaIvfPbjUedduqpuUlY+chbO/7UvvUzb4MyEo6yEC6Nq55VPMjNwW1WtG+00cZZXuzLvB7Mi7+51SG83vgXNKosunVTZNW1795Dual6ZbI+4nmRWPeZuiyNrcYqvUjYI0m/u+Q3WrBEaVRVgF0yYrqFWpXiDVEV1nXTHnlxa37L36AkoURa+uq5zmRoQSkJjgKKbmHeB4SnGxOBpXC3K+WlZ3yzyqrOXJqcGzuR3SMPP9zcdvvtQ+nINUjRGLivxlWa2FwR8afTQR74N0tpRq4aFzfSNSdUOdRVOQpLQ109yNyiToPe1qSdHd09R44Y78jlCQM/GU7kPWc5A0PENAi3G0eW0Th5bwfTnZluMN2XddqQZqWhxSziau1mxZkLZjOetI5/SqStExBfXYVZaSm7QqUNyg0hrd91rXgXFITHyFfF041DW5IXM7HWQFUeYJa7WeXjGVPu1CF4Xu0eyh3UM+298iw9ZQ8IDMr/aMESOes3P6gK0LXRDURYFi36tpkp3CSsl9uV5AQNcWkExqB0f3Ix6eDeGqM11lwzv6227Xbb5jEZ9kx5Uwn7//2//5crtDUC4dK2xJ/aVqSBFjfXBhFu2vGgVigRhIZnjEF6rbERHrsM6XU2MA22SFiamJYYZl2rwc8N4TvcRhmGe2mWvtd8LuulGalleSEgec8N2lsiYQGjcUQZLv/gCB9ET8BoyLkCJIznXWEkhOpWnXkmH7NLt3DUR2kS3JXQZlnGdSS/rwfCyvpTzpHf4WmL20DkI/7npso8szm4r1Xm3Ty7T5+D3+l2DGKpIyqVqSFopO41aN0bhIKwzKI42sP3ApELjWjGCzNSM/D20siQA+1px9BA9t5nn2a7ICgDlgbS7atacaUVcjGlBZEnn3xyhpENLeLN/XQZVgjoYCp/jog0mjWrhi4s40zSQXBdC9lE56Oh/pdGPtQy2pt5bShzJKp9921emDktBNG6t/aTWcqVdnv9dTc0Tz31VHYj2VU48oSAlN+ktSblgsX11l8vwm5JXxhVPjRkH8Mw0Ow3+zJQ8Tkh1sZqJ0AIt8aGuENe1U4WlPALh5GmzFuEKe3iANeXfEEmXn6eSacXZrtlrCU4BN5uSZpFzNwx0s9UmscaljqiKqhQDUWlqmCNkx2NyXf5fVfNvkEGkflKh66QhrR5NHC7znVn8kSH0Lw0FiSikdGohHPiCSc03/rWt/M9yQ5J0Yi40fTnRaPSSGkf0pZd0viTXuELk0BKewolD3MJbyRkmvgdNHIXcbX37XVewy+CGUmjevnlmRnY+HHtBzC9NHwu68QTT2oeeODB9MPk0obwa42X3+pgy622av7wD/+w2X77bYcIhfEczPL+xm/8RnZf2Sm3tuzaMN1zb1bMoXMf+9jHmh133DFnyMTFjav6LD8LAtIqzCpLV+Vd4fvNjbiZofrogBvPyq124Lc8DXc71rBUEpXGoWJVeDWeapR1760Hfpfb6lJo1LmqO7Qiz2hRrrY2cGeQ3r63//XXf93cfddd2aAUsqtwEZrGZclAkcFI0PwIfI338ON4XCvFaRR86xYl6aWH19lgxTG4HQnzGv6ciMphby+80H6aacKElYcIlxb03e+e0jz66GNDn3OiSSorzwnmM0E+m8bL4fN/8vlmmzdslXEJpyvYllH82q/9WoZrzZDyzrDCjTCKDDwXNs0Y8e20006ptfED/PBb6Z9fCFvc8iLN9VITh/A9d5/tIq61aZtWD/xV+yxicmWEy48wxyoWzOtiCYKK1ki7BFWVXg3SMw2HnavxE880YoYd0il/RUBWbPua8d/8zd80X/iLv8ijhXUTaQRmCfNLtdGYxMv9vGy1MTBfbqXV7nqa3VNPP9U8FpoejUoaFhTkqYzumThpNnnKZNjNL2SZEMqTdCsLhpDpLucYYdhbTiHeHEcavBB8+oqdBYvtOGLrXxqhCMnaIRrTCy/4dmBoIFE8L7/8aq7s9kUfduPGLRdhr5gni/7xH/9xc/7552c9qlthSJ+wq03ML+S5SFJepT3LONKOhLQrV+mWDm7Ezx975aKus3wijKrzobILU+UwFrHUdv00EpXsWgLodzVOVxXvqoEBe40IfNpKV+z5ac/nJugLL7qo+dmtt2ZXxgZdZEioHBmLpCKYQKvBFfkgrbmthC9NyrqvmuU76p3vbHbfY48kxlOiy/TII4/meFfmYpCX14PW58D/4CL/vyzmpFHlYPqLoc1EOawwOBtdWdCoTj31tBwfNJBsphEc5FdhSZLtIL/7u78bXb/t0l74ykQdElYvB8Rj7dzEiau0whtx0Bf5R4LqQ50iQRvV1Qmi+MQnPtEccsghaV8oMplfiE88CMa9MC3UlF7bvGyNmTp1WjxvtcNVVll16Ax6n1WbNGmtgTbWvlCFo9yyHUW4TLXNsYgl9vSE1wuNoIhHZdebqdA2TMZzjUaXzViIBtI2hhdfmtlMffa5PN7EYPlZZ52VjW1qdA2rEWlUBrurcdrlTlBKeIGGNTchSPIcpHOVlVdpDjhg/+ZDv/IruYDSBmxnRN035b582ya3SPCCgrgHtzCv4SOqlhra8pSHNVZv11FtuOFGQSjtl38JmXy5msgwA0t4a3aPyYP8okzFq+x87feNB74xumzrZlwFcQhT95x2hLTUgdTUuKCZ2qz7cCssdaob7RlNCmkIxwkPiEvdLAiSEqZ0lSape+rz6hbUOuzx6quvbqZMmdJMue/+nNT5+f0/b+679758AV573XXN3XfdnUcYGVg341lEqm0JT/rF0RPVGAMyAY1QRQOBYUDF17oWwqZRMxqCbte111wTjeyHzU9+/JM87hVBIRPaDwyNJ0XYFVcKR7gpMdewKu45IoIkrNzr+hxwwAHNvvvsk5rBxJUn5nHBV151ZQ4ezyuRzDMiLGVRZl7DnhNROT3BC4BWaQYLQSgHJHXttdcmUfFjo7OxP908Za4ubCrXjT744IObdddZJ+Niz33Vn1lDA/O66zNmOPpE912XMrp0L1V3q4279d/6RWCWe9DEpNc5TcYis87mMd8jgX/h67bZHSF9jhlGjNLLPs9Ki7iyHYUf97r5JhCM2919911BZPeFpjkzP74rbdJZbXionY1RLJVEpXK712wgg0pn3BO3nGUL0vHbwPljjz3RnPGjM+IteEZudDZGVI08hSXcpd9uu47fngkRstEPwp9XAeim15T67rvvlm9Tv72lCbiuwyDYTEPlQwzzGs+CwpyIyubYlxBVlG27VKMdsLasYPr053PZgC/DGOTeYP318qMFG264Qe4ssHJ+6623zKNoVl9j9TZ/EX43fzQXXWLjVBtvvEkQzrphJqeWtOpqqwb5zexsim7LVLkJA6khDTOPcmEPpGUn3NG+XNuXi5wx4T9eSJkOg2/shsJsNTYEMj408mnTpjdnnfnj1KJ8bMHZUp61EzLSEm0vjPC1I4nKdhVhqevnn5/ePPHkE6mNPfPMs5m2NddcK8pQ3LrXbVmOVSyVY1QaJYJpG2t7r9G471Z2PdNQ7p/yQHP6j05vLrvsshQqzXJu40sLBFE7uV4o0mG85uCDD2r+4H/8jxzfAoPOf/d3/7c597zzUsikmZDU1P4iSeMwICpCSuCUsXR0Z/1mzJie3RfalOfK3KC2RbfsCGiRkLJ3pc3Kn8FmxxqbpFA3nkESQvhDVBbbVreo3HhGW6O5OTETmdVn8rO8wq24k2uivBGm8aq3vvWIILkNMi/GCYVXbSS7lFpChN92T91GeUv7oNwtopXuH51+Vo7DWfriGGdh6Ypyq24BcbPTbTV5geBolYYcBN4G/Wqz1lpr5Zdn3v72t+cQADvuDC/EmzWyMPZEeqnUqFRsQSMmLBogU4LjXuPX4HXvTjzhxObCCy9MVT0P3x80xEWFXCkff+vEm3S//fZrG3lg/HLjmhtC+CyDSMFPwW2FVy7lhzAQpkWFOWpUodm0yyvaaXplLI2Ih5agy8X4ogrjnna14YYbpkEgSEv98D9EGvEbGdEwjePQPGlgG2ywQfprv+G3UYbHLaKaNu258D9+iBikSddK+LqB1tBJq3TpbuUi3SCTdj1bm0/10rYXxNq++KSrriZAfnr5T5vjv3NC8xByjDDUUbbAeC4U+U/3adsSYv32J73xc6htmqh5KEhd2W2/3Xbt2NTgeRvG2MOilbZRAo1ApWoAGqkK1wBS1dYiAhqZt7N9gSeccEJz1o9/nM80ijzKJfwuCmRD1aBT9qXJJ8+fz8acrTdgkN0AtDSnXfzL+0B6y7vRA2mrMmeG0jrIj5eDenEtQuLefQpj/K46LPhd/oF/v/mrsPy2xenwww9Ps/ba67QkEH8IylUbsEyC5vbM0880P/nJ2Tkeec8994Zb45R2BUTdv9qSFNJqu11tF06Ju3f1MYV77r63OeWUU5sHglgsFqaFWRYh7WY+zdbWZEmllzZaSxFoxuzVd+Y93IETPk0aXHnVVflcu/Q8bscklkqigmrkJQhtJbddvTJmYJwS6jwrYx7caMjGEloKWASItJVgEgSDyzQnDbIEfKUJKw0JfLrjLYz7dDiKIDnKUB4IZZZnlGsJqt+Erpsf94imzXe78j9nVQduWuFuy4kB5CQsv/kVJr/cGu/ycYN3vvMdOQblw5vCcl4Xt35Lj64Uzcqs7vHHH5+r3pEHSDO33EmXe2EzIC6ajw+A3nTTTW0eIy2u056fls99Vj7zH3EbHLccYZutt05Ncp11186jhdNPuBWPsP1GXk5Tpd3rTto5AW3+83bMYanr+nUb8xDxaETRELrG7I9D4zRSq8B1TTS8+ohjtJ1FBo2agdVCsN544IF52kEdNXvXnXc1N95wQ66IL+EE+eLP7/K/KFBUWWQp/qFZv+h+sSN0lSb3iEW5V1ql3X3VESIp9+z5cWXPdMF9dS3Lb0E8/CIGXUHfwrv55puTaNJtaEjSX2vfjBOBmTeD7FtssXl2P7kXbvmT9jaN7X5M9l50X/va17JeVg6tN7XxsJcL+bI8xUtmu+i+vfnNb26OPPJtzSGHHtLsvc/euU4McT7++GO548FMaZWNNWZZLhHfI48+ml3cN2yzTWpoiqjKaSxhqdOoSgi8BcG9RqZxeWaQ16mJTrX8cXT3jHf4cs2zzzybbi0R0GiyO7YIIE1MCad43eez/L8d1GXfbaDpL666Cl37xY3oLSXhS1ORCAG2bkl3qwhG/dRLg3DLu/LnvsqiyiGFNsLyu0iC5lNaGz/uPauV3tystdak5h1HHpkLPWlWulvCamfy2nLVrZs586XmqSefai6//KfNv//7l6IbeF90D5FrkG1jfCrcvizNL2V3z7KIJ554KjdZP/LwY9GG1sh6ePaZZzKNxjfly+fxdUF9Uv24445tdtttt+yaGl8zkP8Xf/EXzac//emh3RDyWFC7CMsAvPV8ll+0RDn2SAqWygWfKlRDrYrVCNwTGOtvLMazEM9MlAa10koTsqFp5M4MJ1DhcUhQFiayYQ/icjWwrBHnwfyRJum+6aab8/SBXA0fv6WZW8Y94VuUGFDk7DWqjVuNygtB2lJLDVIp4mEH3e4dO/VVZVB1JV/8lV+GMAubO/6RE3fuXbnhHmijxpmcfrH5ZpvnjC6yEpdw7Dls13v51H10SSOMKfdNyeUg2sP111+f5/KbSbz11p81N918U2pnPoRx4w12K1zYTH322Uy/+NWXNiQN0mKHwbHHHpsa0QsvTI922HYrtS9dTn6cYc+9gX3LEvjLvA+WRdC6/KaVmTDwXNmPNSyVRKWCQQWXELjXqE1t06QMoiMDyA9DjG+nx8sdCGthQ1oZwk9AdVd8b8+JnO2M07IpKIz0aajy5MqPwVpjGouy6c6JqKyjci59QZ4QSytgrXv3/MjHLFJptYn67eo5CKP8ZFlFGOqUmyIrbrmr8N1nvUe96jJNWntSs9VWW+XXnvPk13CHWITR5qbdWKz+kZnPrN9+2235gkBON9x4wxBxsbvzjjuap596Oj9XJU25ZSjyqY4MHzg7/vA3H55rxLKuIr7ll2/H5sTJrXjE5+Vk/ZSuJ83N8gZu+ENqjzz8SLPXXntG2W4Y7XRsdpKWuq6fJufb+6++2la0BkwI3FvBfNVV1zS33PKzaDC2vxAKi0DbbgU3kA0rm++iQcYb0UmrsRXm5SCpmgEqzS/TFQ0e8hC8AXQ15LHWXkk7IfWbvxLwRYmKd/j9cMgP47lr1UHZ1zNh1O8SYqbKpe4rLoadeZHwEvdNs+eeuzcf/ciHm2233SbspKclN2X90kvWsYWGpy1Esa+4wkqh1YRms8y40LzYt+SnnNMEwdB68qUWQakPpBMRBwmtmKS4UWiXIs8TVOOvtD/uXJGVvFga4UgaEzpmJw2uq2V5dY/g7rzzriTDCD7zNtbQ1vpSBHWYMyfRqAoqHLxNrZlqt3F4Q6f10PPXXNvbhQ7RZIOMhmuswmI/jVOj1qCfmzqteerJJ3PBX7oLI2/ca/warUFb2kA4yDENCxppGsuHIJTwIK7FhSKOLuRldibJZTb2szMg3LqfHdp8I4+WFHbfY/fmuOOOy09MtcQWWlmUkf2e1lSZdVV+grRn0cygBZmSL20Mf8IdSkf8o/nY5gQrr7JyrudSn1422a2MOBCcrnBp7NJe97Qq46Wgfhm7JnyeXwTPTbONa+wRVGEpJKp4+0aDVNH1dnWvkdoYa3Oo+9GCauzSTGAsYEwpCVixroH6hqF9YcgoG260V2/0bNDLRj5DBSAMxkc8lD+GRuVK4yJgownqZX7NvKDrFlkhcGdTffjDH84PdiqX6S9MDxIILS00JPsukVZuMo96cBZYrqsbvBS8KBAO0uhqb9wo/xoUZ9SPevLinP58e5QQe0B04vbbtdKWUP9hxJlEGz/bPPRENeagkWkYKti9wct77rkn33qEe7RAI5ZO11VWXbXZasstU8tqG/8ruau+ju/VmLNhDwZaaVKm1xEc/97e3MlvrgWLK2EKx6OOqBYVkIW8l+YCCAVZHXXUUXksjaUp2MCOhJXiGa3HpmnEgbhcs9yjPLnzZ+wwiQYZxTP14WpIgX/HAaWWy4f6CHdQbvmtOkFG3L8wvZ0tVY9eXJ7TxLi3Jkt9jlWyWupap4rWOFUu4zfYZ/bQgw/lYGe7wXR0QPqQCWGwUHGjMN7OkfgkLOu9nHzZdathp3aVM0k24c7StghTuonuSnYTo7EjL9elDcqLsJf2UmRS9z7WgawOfOMB0V2b2Ex9bmp+G1G5mm0z7mSiRZvJ0x7iN+3LYHy7e6FtY4wwDY5bN2Vm2Rqr2pisO26cSdzqRvuUNuTpqu7Us8MSM22Rdu5KexPG2uus0+5WyFYx9rAUts62gapcV40CdPmefOrJbACjCUWq3uoGVK1WlvaaNveZ9anPPZfpzjzFn9lKq5u32nrrZvvtt88zwffZZ5/cELzPPvvmQG7OaIZ/Ycd/Y7jTMDLkvTSpKmdlWgYJGKt629vfFt3A/Zott9wil1dsu+0bmq233qrZcKMNmk033aR9gWy0UbPZ5puHmy3julna+YRaHgAY4Q7VT4RL01Vvd951Z5KQ0mfHjd/ila5Kj7FTwxJeSNKZmluY0rbtH1Tftf9zLGIpPeGz1Tp8BaWI6j/+4z+a00//UeO7f6ldaAyjBNLq7f6pT32q2W3XXVuNKqDh/v4f/EGe5mAtjlkhM0TW00xaa61m1dVWaxesRpdQt7D2AyLliy68MA9l06VIrWrQ+BcEkOVIpyf4Cs2sY1ZaQpAmplD284tumLOD59KmbBAEokAS4pY+ZFEEY2bVWibakOfsPNP1skzEGfru+WNvKOGqq65qLr7o4tSi1GHm1dhVlI3uuLPF3hkam1Xl7ZljbVwG2WspDE3/pJNOyg3x1lEtv5w1Yk0uncj0R7iT11uv+au/+qvBSQrs2xnQsYSlkqiievMNtsIKK+VvleobfGeffU5u+q2362gAAaL9vOUtb2k+8pGP5ApqIAzWen3/+99v1ll7nVzNvOlmmzbrTZ4cDX1ivqV1KWiQJTwlKNZWObiNAOiC1DjHgsrzgiCqBZEW4cwJnksHEhHf8Hgr7eyQGShH9uUeeInstr/jn2dWoV8Q5PKP//iP6SY/pT84sgUZikWYe+25V/PWt74lSWbCxJWGunLGsbyALrjggtzG5YXiWBor5YWfXfi4urf95rd+67dS637llVl5GUtY+o55ifqr8RhLEDQ8DcM2hDvumHWO0SJFNCyY1fDbhjj4kSR02GGHNVtHl00D1kCNaViScNDBBzX77L13fsKrPYqkFS75QlbCYgiAsRP+aVjOWb/xphtTGBZ0fhFVJDyFsYS/e8wLYR0u7K5lwjqfzS+G4pCeQXHWTQVfxKN8ILtWA39MaUleGOCeplXjR/xn91G6Q1NvtTBa0cQkoluji/d4lLHw23FBM4ftnkJ1MeX+KdGtu615+BFnpj+b27esibriiivyqzw2NXPHn/R4+ahf6ZATEyzvetfRzZZbbJn2EEnJtI0lLH1jVIMGqj+v8VVjm1XJrZgtKogL8aT2EUKSv6MxOj4EHDe8yy47NbvuunNjom75FZYLkjLo+nKOkTgz3YcrHUbHsB8/3myQ2SaLEIU4WEwYeXPUCMK67fbbcnuH/Oo+LKo8oy9vfemTpiQSaYjyp3HMnNEe8aJOXo8RTpn4GWXy4mBxLHKiQSnXeEEp42XacT5p4D6JYBAOe2Tgnj2iYec3MjO54TfTfiS0JQj5smzEGqt11pnUvOvdR4eWPjV+qxfnmNl3GPnUVRwsIL1vyv1JSn/zN3/bfP5P/jSu/7v56le/llujlok0rrD8ShFmO9DeLEO7Wy7bgrP7d9xx+9CoDst7dS1uaRprWAq7fkSl1Vg03HzThaD+3//7f0PNvrDt+kVjMmawsKHhIQkLL3XJbC0hAAbMjUdYI3XQQW9qPvzhX8kBccJk7KJQ3ZESGIZQIWBjJJZaOFPLuMpDDz2cX315Nt7a995zb3PVVVfmmUbWV6FLBGf2b0EA1Y/U9dt3331CQ5iWaSe8rtJ9+eWXN9dde31ODKiTlmBHRhHIcJSd6y677Brx7ZdlWmRTJDhhgj13xv9mLUuYH8iDcKse3Mu7rS/f/va3mzPPOCvzar+gYYf6qMTQOWLxrz0l4bVhaJuMxIaVwk0tT1hOcfjsZz+bkyPylppXxMnvWMPSSVTtgEIzflw7NgP/9E//1Jx77nnN0089EwLbEtjCBrLUqHxeS9fIOUUaITJ6Lohmp513TpIy46QBarDW+GjAyKgWEHpmsNfHAhjC4Qx13Tqr7H2S/sUQDmNdBBVxyTf/mc+4X5CNYE5EVV9KppX41p5n8mwy4+STvxvk+kyky4bluS+6LYHsCqZ8VZ2uuurqzYc++MHm8COOaFZdZZWchKgD6Gw3UY40oPlFxedaRCFfytb1jjvuaP7yL/9X1olFtl5MVS78ZPrjqrzUD5TGxo2rbTrLDTRpdaqb70Orb33rW7MNaDPGL7v5H0tYCo8iDjEarJNqT2dsV6k7FM2ud6cjtFrGwoeGmcIzaNCIiGZFfT/gjW9s3ve+9+XRHwjFs3pL19UAq538p5xySp724IA/M03yYqzDGzYFIcJzplYKRvj1Fm8/WtCu0QFlsKAaOKIKyUvyE4dwX7speeYQYdhfKW6bqn1yTPePtmCsjf1Ipghhds8YzxEyklCfZsZqk7kyhlbTipfWAkDl05VR1oy8mI3ddtvt8gXi/KgkofDTbn/x7cJ2cJ2/1JbiuTyAsgzrfG4dFmPM8oNBwL7Gg9gMomtDlYaxiKWQqALRz9dQajBdoyDYN950U76tHDe7KCpcwyJQBvcRlt/ujzr66Obd7353LkmYsNKETCdSrfRaQuGI3G9969vNeaEF3n7b7Tk47mOoUp3ncqf7bOZBVNHoIz9FigTVM4Lk+YLWqoQ5ElFtuNGGQU7tcTTGijxTBmYwHdtLM6jlIZn+EUxbPe67XZ32qksPnsmzHQfKrfbXGdS2DaYV//nPtfQXcZYBcQLyoQE53UDc998/JbvmXkBIyVIDXpSJsTNpVi55iF/YqyflMnHCSs0ee+yRbeON8SJDvPxwK46KbyxiKSSqgQAx0ZCzQURl01huvvmWUM8fGWpoCxviqbhpGDaufuADxzZHvOWIPJbWeIa0aqi2TDz+2OOpNTke+ZJLL20eefjRHGfKUxBayc08yV1uswiTeY14/Imn7VKk03xO23IVRm3jmF+IaySismAyn4Vde0xNu+eSRmVR47PPTo1nwghXcTOSkQkzYW1dFXG1yOcB4SIQXV9roGgjk9aalB9r4Ib2RnObX2T5DvLJuC/yKjtasqNkLBC1zq39hNa0JCz7NBVWjp+FhldLD+z/s2CURmbr1JsPP7x5S7QNi1DZaRfgRaNuoS2PsYelUqPKpj1oTNEe8p4AWwj5wAMP5NvLs4WNEkaNzOLM40KdR1JrT1o7G3KmMYTxuanPNbfcektzzjnn5PHIVipLY2lEunXVuEtQcmDcVUSRR5MD1Zi5qWuVRbp1XQBoY420uI8wxdNdnhAUMrRg0dogbpwrfvttd2S+8rNPg/SMZFqSEtsgP4M8sWyft3vzZjr5MvKOpJCV0w+sO3MKBTJHIAsC0lAm4+8QFbBT/gjGqnXrpqwmlw6akZNjnV2lHXphsXfapz2HB77xwFyGsteee6TfGqcUtji0A4Q/lrFULvikdLTNs63kvIsKP+usnwwtgszu0EIGQVH4a0+a1BxxxBHNMe95T443lOggG8Llc0tmxQyU06Byk2x4nDFzxtBYj4abXYjw13b72jGwaM0ZR3oYoBXQVvNiT4h4KKGaXwRVRFgjD6a/+OIL6a5dLtCuYfr617+eU/RPPfV0Em/VyxxRect0R6xBOghKmPIkXHvvXBmk5fhfK8J9E8+K8FdenYd4XgfEz+TLZHBvPBChSAt7Y2g2lD/yyCM59GDZAs1WbpCVWT2ExajzVvtr66gIsXtf7WAsYukkqrZ+o2LH5RtcJevjm7b/1re/3Vx88cXRkFphzsZAIMIQPMSQn0tK2R4ENAKyAbnJMGx7aE/b1MXSoJjVQ3DeceQ7mncf8+5snMYovDFtJKY52Tpx4QUXNT9/4OfZyGkJKsxiz3aHfqspEdmKK4nC36ABM/UtPdCNzC6iZA3yBkO5GSlfnA2eDfnxexBGkhKyHNhxy47wbbrZZnk2+QH77xfdmcGZToNlfPxafX3++RcMxgiXCzLNRyNCHPIYd5mk/B1dSYsrH3rowSjLCRHurFk1ZefeZ91XXnlifm35Pe99T+7Zk0bdLlem/EDdZ/hxz0A9LyCe8l9kUWEx3XBdy32li5+45O9yU3Gk+5eCUDOf7W9+QTjKCwkiQM/GIpZKolKZDMH1VlPBGgWja+U7fnarawBtozHe0TYcDcR333Jh3aCxjIjwmFpFhRHSlwPdQTDIxXHClh588pOfzHETpKk1Iqt7gqS+973vpSZlYaZ4EZyr5qvSslHmP7/mExFWhZJlMbjvwmRZPZEX9wSLkKXgRb4qTZ4bDGZHyHR1PvaxjzUHHnhAzvrxIy+p6YSQ0SossXAv/rmBmyKETG8YaTBzqA59QoqdOMqdpCF2pGSm7cA3Hdi8//3vazYLEpVueQHuu/fCKPhd8TH8ibf8lx3jXv6qy93j9WOpJCqoN5GGpzEhCVdf0D355JPz3PQc3PQ8yIWQatw0HY0wCSMa4pxAe+K+GrqNqOE1F3bSzLbfYfvQMj6eJxxozMJzXtEN19/QnHraac2VV1zRPDetXVvlWZlEhCMdibnL9dwhvAFVRSx5HY5af1aCiIAtdVCWSVSRzxJw5CQ8YdEkTal/7KMfzdmqF2ZMHxJqfhjlzLD3eyhvI6DS0HXHnxePD3N++ctfTrJybHMRhZdNamqD7E2cOKHZZZedm/dEl3uHHXbIuC3pkC5toRvH8PJ3rbi1E+6BnXvlwd4sYxFZj9ePpW4wXQPrCkL91qjcm0bW0BxIZ4Ee+1wxHFrO9OkvJGm13ZZosPNAEIREeMI2y0TTMEZkUFR3z/Er3BAQXb5HH328+cZ//md+PADJtbN0HQEJU20+RCiv85qWOUIQ4onbkUSKNkKT9BypSIhyVDb8Zpc1CJ/AS/dQOYehMe66667NJpFvixatL/Jc3rlxz0AJeRHgSKbrRxjiFq6ydWqEsUYr80tL80zZ655K37Rpzzd3331XanKIFKmwr/pi5IXJfIY/xn3mK+BZvfAYflylq+zlpdLZ4/Vh6VxHFaiGWI2uGhiYPvbb10WSqKLx+l4bgpowYaVc1VyCPScIT0PmjvZBsyCYq622en7y6qijj4oG3AoDITI+82//9u/NpZdcmu5KmGEoJnI/jEoWCFGBshjcdtGmf9n8sACCqHE2WqHZKuUTYhyE0K6qZk/7dNTMtttt1+y9997Nfvvv3+wYWsuE0GKEQYihylwdsFfe7pVJEdHsDLgqJ/6kQTr5Rzim8A1C6wrSslqyyeLLotIlZ2ec7/HHn2huvfWW8LNtvKhWT2ITJpgt9NKyWNOYoSEBLzDbk+orQEVE8iIN6s09v8i72leP14+ldoxKQ8w3bNxr7ATHfTU6b2IDvF/60pdCCEz/t904DU/D1/DmpfEJ13oYyw3c05xM0//qx3612W67bSPMdvW4tHznO9+JLstXW38h6AhRHAQ/KyncVWVV3Ehq9vTyS6ITNnTDz3v/0irccRtGGRJqRhfLee4WJFqo6gA5CyyVV5dM3AOSYCecIiXxVLxFYCPBc36EUfVXXS5lLEx211xzTW6PsuxEJmiF7Sey2g+VSpOXyKOhVfm+n/O9tt9u++aZZ5/J7/wZI/x5kJRz6ac+O7WdEImwLSlwBhhz4IFvbA44YP+8p9VJm/oUfkuGs5aG9Hh9WOqIqoRBg8pGGo29xqc0qBIQV10CCyy/+MUvRuMezLZFg3NutjcyIZsThGfgHQWI64UguHXXndx84APvb95+5JHx3GDyuCRFWz3+9E//NIS+/cpvdj8iDPGMSCKD69zSMU/oxFFlNBw+cECrFF+Vny6Tk0PNom244YZZnoR0eBrZM0iNP2Eoy7JX3owy4wfhzAmVRn6hSE+5CafCVbY042984xu5oNcYYMXBSE9+ymrQFgysW7/ka0TW1ZkQ8JIRPve0SXUi7eLz3OkV66+/Xu67883FddddN90WcXLnd4/Xj6V2jKoajkYE1aCqgbsnUBbl2Rd3w403BUG1B+2R6NdSx8gwNU8IgHDrBlkzZcwmUhPxtF8LtinXosc2fe1b33hWEmfYDf0t5AYv/DSDP+XASIftHwSU9iQfH/rQh3I/opMdjO1ZzIikgDvhlKZTZe5aQs/UsypzKHdzMsimS07sCuyl15VGpytPu3MihY91ikUcCCpX48f9xAkTg7Rm5EZuBGXVuHCjCHI5Bzc0r/Y6SEe8aBC3SRJ162VjXIy2heykwcrz9kC7OWuIPeaMpXKMSqMhQCl83qZxXwIJGjhoqATP4OwGG2yYDdFMkoPnNPRyPxKET1BIhsWZxmycxrjrbrul/wggupHPZxfDthjrqAzW5xhYgBu0lG7zpr0UhgR7+IPXA3GVGYSXZBxxyAeja2M5xTHHHJMnjtbZ69KtDJUlEGJlV2VMqyGw7pWndHPjWmTzelDkVPVVGjFT2rJnrsar1pu8fs6iGm9K9/FCELV0mxDwgsglJ6+2S0SUBb/xf9xHesOPLxXTqNoyGpBr3FqnRjsznmWRrvgtyahyqbT2eH1YqgfThwS9I6T1W8NiuCGIujVrr71W/v7Fww+1g+vRgGt/XB4RO1hrxbRB19aGV/PrJZYjHHzwQUF666cwCV/D/uY3v52NOwkzXHuWs4vCEcwIkNpM8SDdI8FTYXvr0woIaGsfTyKhreC1s3riNA4D0s6Prq5THN7xjnfkSaPGoAi+MKusKt9mNh9/7Ikk9auvvqa5/LLL8zhd+/hWX32NKMN1Mn9d8Ffo3s8Nc3JbdddN2xprRvxBtr4g8+CDD6RGhZiMAWZXPtJFQ0KyQ13uMLmGzqSHcotw2uOAB93Z+I3QubOZXdaeePyJfKEhcWN1iAphVnkVcfFTaewxZyyVRKWxaCB1X6gGDfW8hMpMksHiSZPavVlTp7YH0nW1rxz0Dn/ZyANm9HIWK/48P+igg7LLJCzh6vI5xfH0009PkovIW+FIv97gcSesThpfA/YjPRuGEtgiTt3KFpHnSKdwiqBSeOI30tFlOuKItzRveetbmt133y21qq5gcasMjOfZWIyULr7kkubSMFdeeVVzy823NLcHaVnaseMOOzYbbrRR5L2Np9I0vxgeht9Vf9Imz+yYJKu1J0XeZuYK9uentRMdikC6WpIKrSz9tZoUFpdWdemzWOrVkhVoy7HdsdBWV1seZgW1EWNeSF0Xv/JbaYIs6wVUDmMZS61GNS8Y3ni8EY3FaHzGmByA9rwd8M9NjbfziynwyIWvtpG3Sx4Y4zcGWn3ySsPUUJ944vHmnHPOTQE33pENNkxLWm2cifltxCEMSCcHsSNsx4ggInEJ2b24U8jibS9t0mwRpO09bz78zTnmosub+eM3DKJ29tWVV16ZiyyZa6+9Ls/8fjA0RMstEIL45D9PTxgQVYWxKCBfFZd82kNnwFtXTTdQV1ueURt3SSRBWLnVKQimJZllmpUnTsh8KEdLNUyURIFmOfLPn3JzT2uyjw/xWZaB2DwvcANFqD3mjJ6oZoMSoq7RoKoR0qg233yL7A469SAHkKO9edvOCC2Ju2zkr7Tk4E28+eab56psGkqFed99U5ofnX5Gbh+psSz27XVwv4CQWl2kaWitUwiQ0LPLw8R95jOu8meZwTHHvDs38K4Rwpnfp4un8m99kDOeTN070QFB3XDDDalV2UtH9oQlDvkHAr7brrs1G228aIlKesXTHSdiJz26urqnxtAMiIfDJJNMe7hBsOrWiQ9OMdh3v/2a3YJszXTSkryYaMXChiR/JuIRl3o3OG+yYd1110l3le98KcVVWwH3PUZGT1QjIIU3jAZUjb3sk7Cioa0V3UCbWt+wzRua9TdYP964E9sxK26ikdMmNEiCvddee2W3z9tcWBq4aXPLH8wMEmizamJJ2gg3C6zxRjjCr3EYBAK0JyBgdewKAd5zjz3zG4Jbb711CrP0yDMhRqo0KCeKWmdm7An55YB6zlRKeyt48s7wK1zk5zyqIoMFlr85ADlUfqEIAjldd911QbY/zboyM1v1WmvmELaxOSctHBnGyQ8mEHbZeZdm98jLWlGXZgqffPKpfEElQQ3qv8r86dCq5H2nnXbM+EfKt3T1GBk9UY2AakxFTBoSwqoG1eogrYax6mqrhsa0WbPzLjs322+/XTN5vcnRyCdmQyckwtgv3sa6UjQnv3WLrrnm6uaqK6/O85eSLEJgNHDPM47BdXYN+/VAV8XZTNJcu/EtLCVc4lg9tMM9g1B9P9DRvXkcjGfh17G5jplBTj/4wQ+bW265NWyt1J/Y7mGMLuW056dn91ieh8op8kCzWG3V1UIb2S1nUBcVUUmD7p145Lngty7f97//g+be0Ax9cgpeDLctYbUD3/tHnb3vfe+Nl8weuaI+j65B2PHcDoX11l8vD8J7KojK4LkJFjCuxY28SwNStCgUmc8uz4uiLJZ09EQ1G1TDrsajcTIaXl1LELu/dROMXW233XbZZdp5551T7Tcu5d56Hm4ZDfvSSy/L2TENuAbg2xm5djC7tZo1vjI/kE4aXhEn+GAAwiXMSFXX9OMf/3imM9f/TJiQ+XLvi7/f+fZ38vuHBE9eCTMScoImNvMpLr9pKFVmEXwKrbG9Ra1RSbs0dsmKhuW3leoG/hEwd90TTmmX6vDd73pXs+1224afdtNxhVFlyKhv9TdlivPQH8k858zhOG5CQwu3XkqWddRERPkFYbLrMWf0JTQCugREhdfg3TOlMVQjK1IjgKbzCSu/xqMMIB9++OE5AE+bqrAMRPskOwgj1/EMZpggB7qjwUfArcV8ICgh46Yt6J5VvgwU64JafnDQm96UCzh9rUXaLOqUD8+P/87xzZe/8uXs5iE3s5aE3deA5Zv26OprOhH4IO3Kp82D8kHA3CxKqEN1Iv7Mb/xWd0gW+dq3xx7xGo+yoFcaufdi2WTTTdMtoyyEJQzlw1Sd77rLrkloeaDhACZHlLeyVoaIsfwDv11TxNVj9uiJagRoOBongdS4qlEynvmdAjggqWqARWLVoLnlxrX8CYNwTA2T5BSw94wfb3yzUOV2QYi2sKRF2DQoXTp2ftMGfPvOGikzYcakUluKLiJt42//9m+bk797co6zTQytyxqimTNeDO1p5egy2cD7UjNt2vQgIoPziHaQ4gg/p/kjrtSw4l6cixLKGbwcxF11R8OxsdgHHmiuTlrIl8cLUV+RXvdbbL5FapZZZuFHOQkH3He79bruZkWFo868DJQXTVO3WBgmGqqN8MMd1JVdj5HRE9VsUI1GQ6zGqJEjIKZ+a4Cu1QDBs/KvwXPDjwbJvttYDcRaw6NBa/wrrNiueC/yW3Bo0+sDpEK1343QmaU0o3XAGw/IrUIGhO09jMTll27+/u/+rrkwukfSilBzgWQEYKr+pZedMPBi5FFXaFx0lwxaD9Id2VcCmRdlFvnJshuQ8tywoPKurMWrDoTpHuSH3Us5Ttfu+/S86hNhI58cZI865I8bLy3tgVv3TNUtbUwdZh0HKRv78+n6KgdbcoTteaWBPXTbT4/ZoyeqhYhqiNUome69Buq3sQxvcoISP4Yaf6Ku8wFh5X6ziIe2RnsjeITQGAvjuJaasTPj9c//8i/N1ddck104aczBYWInOZ0kZTrrd97K2ywrQWYeX2kFeFGiSEU5I4kiCnZeBogE2bDz2xibLuC056a16Q93ykm9CEt5CYOmzT2yd4WW+FrtC5CzdXbci5/bqtMiTMiyGaSpx8joiWohQuMrQan7rj1x9kyjRhIEIB60DVl71+gHDX9+IARhl1CU0BHKBx98MMdPaA+EyfcBfYLcsglHIEuf8S2pdT83JJl1ER4XlwgqY0RR98qV0bW10dy1CCSXagzcTJv2XB77YjEvImKUW9Vjl5yMP4nj4UcezvKiQRY5cee5eCxLKX9QZFVl2raHHiOhJ6qFiGp8Gnk1zCILjRZZFHF4nu7CD38acM0Ezi+Eq1snPvH6MITwCamxk3PPPbf53ve/35x99tl5DPMZPzoj3bUD4tHNCa0ibobyMDdIdaU8cpNhGFRf1MIo311yUc6gHIwnTZy4ci5JyMSGG2TFzfPTpzc33Xhj7r8UBpIvQvEbETHCFZZBeQf0GXMcP6jTdB9XxMXN5MmTMw2eMfzWfY+5oyeqRYhuw/SWXWWVlbPLp9EiASRFYLjJblI6nX/hFr74cgpePOPaMRczcQTqlltuaU495dTmhONPaM4444xm2vPtESe6a4TLdH0J6jzhNbI368fi0hkyz2GUa2lYFmHmNprsxrWTH/KZywoi376afcUVVzSPPfpolgH/3FT3jp3fBs0vuvCi5q477xwiL+Waz8Md4jKDOnnyem2Zhl0Zbhnwu8fI6IlqIUIj1JirMbqvRmqKf9KktVOMNfBsuCEMLJBXWLT+FoB002oQVc1CGvQVtpXwfhunefSxR5spg0+NEzQCiNCkOff4hbsS8jkhk9tJs/zxK08EN/4tUsgnIw3ywoCu2DbbbN1qsFHuFsAiF2k3wWGd2wUXXticf8EFQx+lrXCQFrc0KcR+7nnn5vcW2WXdBYrIdP0s9LWZnT8QRqHS12PO6Bd8LkRogBprCkCgGqgGS+htR7npxpvSjkRngx24qTVI/hYEhEobqLQMCUg8aE8aHZ/dFN1Bx6BAamHhpyXQTGDrZy4oN+J0T3hXCw1m993mba/fvMTxyyDTMFSubTdQd8zWn+uuvz5nXZX1iiv4nmJLSOrIOjFjT0899WQuJ0HeNhrrEurqWTBqpf7DDz+StdRqqO3EgzCq7j/2sY81W265xZCdsCtNTN279pg9eqJayEBIXZW/Ginz9NPPNNded92QRuWZK9Tiz/CVv+cXBAQJgfEqK6ZNoUdC8hmDUKRF2gyg117Atss4a/vQnJCpHRK4thskH/bF7bHHns1GG204FMdIgjmS/S+LKstCxckeUTk/6sEHHmruvufuLBv5Mx4ldnUWjvO4FhuwEZNdBMxVV12Vm7FtxEZgWa7C7dSVOJDULrvs0nzg/R9oll+hPURQ/FWO9bvyW9ce/xVzb3k9XjdGEhSGtuJcJNsquNNEi8TSHwvXYWG8XhAaM3sIUNyC1y3R7YtIU5vKfX1xrUWKlilwZ5qdFoRg5oZMe/uv1QgjAHHbT+dz6nVy5pwwvNzmB0Pl2bmXN8aJBu886p3N5Mnrxu8Xg3SmJnlbUV5u+LHeymzoDTfcmONR11xzbXYNkfeKK66U7pLoX23zliQXJWDZx1ER/oSJK0XZzXoJMF0M/93jv6InqoUMjVYjBg2SoNSbFEntuOP2zYwZ0+Mh1Z+JJq7RM+lrwSDjDBLKFeLxm6FVIRFp6g6YW7YApSmwr0Wb84yIgPs6KsV+x2223nqoa1VlUSSyMFAEUNfKX3ZzIz+u2267TfPud78rJzasq1IPPgUvq+PGSadJjvFB3is2K604MUhn1WbChFXi90pRR8s0L84sAm+Jit+XXpqZm5YPOujA/DqNcOuzaCAd8t19MVUae8wePVEtRpgi91FOs0/eyu3iwpdDGCzODEIjAEtYA6aZ5ebnwfYUQrzB+uvnJl9ahe7WaAHCQFbvfe97cz9mnbwqzaVNGb9DQgjslSAhByRake8+bPIeKSEbhMw/QjrqqKPyFAqTE9Xl7vH60RPVYoT9YgTYuU8Eg9CgJSujNfbUgAZawJICK9/lQ7dSnqz23nrrbfLQvOWWt1J84HAUQBkjJ1cD3owZUbOjxuhoPO3K9aCqQdfNQHmSUTxDQCuFfy8Xz0yOqFObu30mXhgVfo/5Qz+Yvhjhjd0O6i6XK8FpWC+FQJQglFQvSd0Cwk1oaRc0RF8ffsc7jmw23XSz7F56ros0GkALMniOWKVL99QpFzYt++hGLtFYtu0ieq6e5Cv38UVe+EXGxreWX365Zv/9928++tGP5lewEZ5y4Fc58N/j9WOp/FLyaAJhefLJJ5v/83/+T571tPpqa6RWYqYt38RBUtwsKbBY0qkEFlJaq+S7f07INEBPQ2w5d3TkxwuAoTUhIFog8tFdu/baa/OoZWfCW5JAy7VHMjXdzMQySUarrrpKHjO9zz77ZDfeB0DYVxcSUQmzJ6r5Q09Uixkavbey6e8///M/z09NEQaD0CXcGvySgtJSdHuOPPLI5l1Hv6vZYMMN0t6MYyvso0dDVP6ZtihnVwTjqvvnBfKLX/wijVk+SxEA+SAjx8DYGmNSxBnqunkVjnDVo9/KoyW3Hq8XPVEtRlTjrYHb0047rfnmN76V50ANjVmF/ZI0TkU4p0eX6aCDD85Bah9C8KGEPEQOCaSr0ZGfKn9dsxpIR1BV7oyXhOfsXYE9N06kYBBTofyVXV3Z9Xj96IlqMaIaNVKCZ599tvnmN7/VnH32Oe36pgDhWZIauS6rDx+8L0hqx512Cq2wPe64uj6uvs4zGqBcpQcB0QDVQ3XXSov1vOoJ6ZSp/LivF0m57cIz5L0kvWxGI/qO82KERl6C4d654k7a3GOP3aNrsWI8K4GOxh+vk3AyZHx2PD89/spr1+Mw6YNw5d3cwV0K3GAxZgqhsAbCNSR8GW8+au/DZ54zFSZ8hf9X8wMX73znOwYfslihWTa6eQ7UE1Yutxgl2hRkniNdBsmLSNzLfxlu1JHn3fKte/ZDZTawL7dlP1R+PV43eqJajOg2dnDdYovNcwGirxLnWeT5pHVrjMfaJIRSq6ArjDJQgpF8Unb+c99xm8/af62f+CcNKZiehR37ojzPkFKGkTYtbLWhkeyw4w7N+9//vma33XYdrMamoSBbYUU+X21XZo8mVDl066C0KZDeIiHI8ujkYXZEVL+FJexueD1eH/qu32JENXrdPA26uzDQ4LoxK59Ff/bZqUkOjgzputelYK8C2afQxH2eUhCE4i9pZtlWcPgZ3AwRTT4pv8KObhAyoln4tFYJm2cpzOGxFdwIYxCOgeU9dt8jt6NstdWW7fE18Uw6uS2NhZ376ur26DGv6IlqMaKIg/CaGfLb27cIy2bY73/vB82ll12WU+ZIBFnpKnKfB73Fb2RA0xKa7pU1PlCzTkleA+KCinc4uPMkwwuDXIpUhGWDsTCkUVfOthpfUfYF4WOOOSbPXw9vr/FXA9NFVN3xnx495hU9US1GEFwCjJgM6BJipjQm9z6ycPHFFzdnnnFmc+dddwVhtEeytFgmT0KgQRVZpW3cIxU/LXNAGr6M0gXCKW0qf0c6kFluGQk7ZOLJeP7iJldmD44v4Vs3dPMttshBcwscxZODxrp74U56pJN7YclnEeBIRNmjx0joiWoxghATXAsNs6sVgk6I2SMXAl5dJceLOKTtwgsvDPJ6IseEEBy3EUpLOIgvTC0DSCJEEnHNbuIALdm0yLvB7yS6MPylRhSBIC6rszl84YXpcb9MLmr0sVLrpDbccMMhkkVGrpUHqHyIv54xPXr8MuiJajGiiIqgG+fRnfNZJffsPSf81VWylufGG29sfvjDHzbXX3/9rLEq39QbaCtMWLbdP0QzviUIbgGtDf4lmRWSWMKf88I9c5748issnyQqXmnbZJONm3333Sc1KLN64vZMeqXR6u4iojKlSRVJCSfT2KPHL4GeqBYjugJNc+pqOjSRIirwHBCOLR0ObbPlxnnnDuCbMcNHCoSzfO47gzquBTGIA4qo8vcgbk/EZWFmamRhxIOkVp44sdk+SMnpnHvu5ZPsG6d2hJiQD80OKp2V7iIj17rnx/Oudtejx7ygJ6rFiBJoQs7UoDphdo8wirxKqyohRyROn/TFXwe63X77Hc29996bX5XxrGb9bG7O2cL0BQbdWzJixDt0zTQsnwfcbbLxJs0btn1DbtTddNNNm0lrTWomTFgxNTQo8oFu+qXTM+muOCr8JMMgt8pLjx7zip6oFjOKiAhykRbB7hIBsINyX1fEZkbQqnYk9dBD7d40BPb4448lmU2f3n57jltXfm0cXmEFx5CslNtHVltt9Wa99Sbn2VgbbrhR3jvNwRdUDMQjN/6Gx1/pqjS71jPoPi//Zdejx7yiJ6oxgNJWXHXXbJ411uWYEmNI7PxGVNzQymg/eZ7SSitl983VWUqIybW6d8It0uwJpsfiQk9UYwDV3apuITKC0l787mpT3JXb4UTEnh23FS5TYfVk1WNxoCeqMYQumTB+F+qZa5eYitS6fuo5+M2Uux49Fgd6ohoj6BJT935OGO6ufrt2MS9h9eixMNET1RhAkcvsiKdLOl13UF26kYiIFlVhjuSmR49FgZ6oxgC6BOS+um5FNIVul6/Ip/waj7IsghvjVOWWPXT99uixqDFrMKLHEosaHEcmRT7DUQRTz/xGZGXYm/kzG+i+7MHvCrtHj8WBXqMaA0AiSKVm9YpUipzquStw51nXXbkt0rIw03Nu2XnOnunRY1GjJ6oePXqMevRdvx49eox69ETVo0ePUY+eqHr06DHq0RNVjx49Rj16ourRo8eoR09UPXr0GPXoiapHjx6jHj1RLUEYvtiyFmuWfS3ahK5d934k9/WsFnwy9bzuu7+h7Lr29Qy694VyP9Iz6IZT166/cjccXf91LffD/dSzOaGel98Kpxtuj0WDnqhGKUooysBwwSlhKXsYvorcfXcFuudQv+se6nn5qefdFe1Qv+t5we8Kt8IE98PTUGF03UH5ZbqkWc/46+axMPyeu246u+4rHL+7/qDsuvbc17XSbsvS8PT1WHjoV6aPUpRwlBAQCrAXL+ost7gAgamtMzD84wqeOzSPHb9O++TG6Z5+16mfwuOGcSoof74q47m0VHyVjiICzyqtvqbDrvYLdrfqCM89O0bY9dyVH3Bf6RB3hdd9VveVhi5hSAPYt8i+6w7knZ30sBN/+S03lSZX4Lbi5b/sXZWjeMqux8JBT1RLCEpwCAzSKLIpe3YEpoiEPXDDLXtHDiO5CoNgOq6YW2TA3cSJE9Mte2epAz+eF+kVgTD8FqkVCVRaSvjdVxrYlT23/JV9102F3/UPZccNsJcecVZ5MNxIs2f8KyOGHbflrgimwnPtGm74L7Kq9DDgN1Q4PRYOeqIaRdDYCUPBPUEkDPXm9pu9e0JHkAgRlCbEbYVVQlYkwA/70n66boA9gnIVNs0EUXHLCNeVe/48Y+e+0luf0CqUEHteaXZfhFdhgnC6cfntyn3lVRiVn0qL3/l5r5VXHkrH8PAqXveeu2dAHJ5XXIUK3zNhidtv7kAeuuH0WDjoiWqUoBo+DBcg9wSGoJQdrQAxISXghj037kurKeEuIXVfJMQvd924PeOmhBsIdYXBbaXFfZGSe+GzL38VP/BfaWNXXT/xSYPnhQpHvJ6B50ixfkMRaJG48MpvpdeVHXd+Vxkx1bUVZqW5C26Af/64hUorf0WIPRYueqIaBSAEXRAMBh555JH8nLvPuBNIX4nZZ599UtOhQQD/hMbvn/3sZ/m5rBLg7bbbrllvvfVeQzbA/f3339/cc889+YUaz9ZYY41m1113HRJu2oMwixzEI1zPfAT1rrvuyjB8pssnu6Rt7bXXbtZaa63mDW94Q7POOusMpd9z9rvtttuQRlThiu/OO+/MtCAH3xHcYost8rm0XXHFFdkVFfbOO+881IX18dUHH3ww0yPtu+++e5YL8pPOisfHWh944IFm1VVXze8Urr/++pmvn//85xlG5bdLTPVbHrbeeusMX/4Zz4Qr/LLrsXDRE9UoQDX0EoKuufDCC5uTTz45CcH4EWH9zd/8zRQ46Hafrrvuuua0005L4eOXQH7kIx9JYuOOG8JXAnbqqac2P/rRj5pnnnkmhX+zzTZrPvWpTzWbbLJJui9iQxhFdEjQ5+R9Wv62225LkgJEUgK/1VZbNR/+8IeTOH7605823/nOd5qHHnqoOeCAA5rf/d3fTQJFXOLkB0466aTmzDPPTJJ529ve1nzgAx/IeO++++7mL//yL5No9ttvv+Yzn/lMEq90CPeyyy7LPPmC8/vf//5m7733zvKQXvHI21e/+tXmkksuSQLkRnk8+eSTzdlnn918+9vfHiLMKiN5cBXGvvvum34QZ5WzNJc2V+57LFz8V323x2KBBj87EDRkQIOhPdx3331DREQrIDQMYaXh3H777c3jjz+ehhaGEDyrbk+RlGdIAAGIwwdLaTX8AyEkuISYX7/F/5Of/CRJ5bzzzkuNRHiICUHstNNOzeqrr55+kJBnuqdIwYdQxSPN4uemwgZEJ03y6ruE3TTz5xnjdxEDe/lUNtJ9/vnnp5siEMZ9laGy6BK2tMi3tCElXUFaYX141VhdEalwpAdBib9reix89EQ1CkBoSiA0/BIyhnCwKwEiKLQZQkZ4CsgA8Xg+adKk1L6AAAq/hBaEN2XKlDSEk6ahW0agdR3LLSIpP8jj4osvbs4999zU7nSjaD6//uu/3nz0ox9Nzc3V7/e9733NRhttlH7lSxy0G79LuIsw2VVc7Jiuu3KrS1du2bkK2zOEgoB08S6//PKh/HLnKmzxc88fVLgMN/vvv3/z8Y9/vPnEJz7RfPKTn2w+/elPZ17e8pa3ZHlyw0ARtzB6LBr0RDUKQAA0fNcSLobAIR7dIRrK5MmTU9juvffe1AQIICICpINACKTPsrvSZqqLUoJdxMWt7hMCNI6FrIwH0apoKV1BdKWxIAFalHGbQw89tDnmmGOaI444otlxxx2bHXbYIcePDjrooBT6GtMB8XW7VaUpSUvls8ilwJ00cMudKzeFCoNBYrrEtClESkussqk8dOMpO/Bb2nR7DzzwwDS6mLp87uUJKfMvPcLtpqPHokFPVKMAJTiuXUMgEA1DGGkppt8JJOIgrEAgEcyjjz6amhF3tBhaly5VERVhE64uEKJyJeBIRvcNkJexJ+7FC4jymmuuSTIkqIgNQSE3cRP0IgHgF/zu5gdRltsS/CIQz91D+Z8TuGGUgTzrdiLnW2+9tbngggsy7Z6x68bBgCs7hhv5KDeu/DLuy33FWaj09lj46IlqMUNj7wpPXUsICTZDmDbccMMcAzImY0CbcOm66LKZWdM9MxCOqJCCsGlJUMKKaGhjxrMQkAF3s1r8IUHujYGJWxiAGHUrjeXoBiE2GojwhEvbA36knV0ZqHxJLyJkaD0G2M0KukeaRRbzAmkTrrKhFW6//fY54C2cc845J7uw9bzSUVdwLy7l7J4/+ZQehK9MlTP7bj4qL+y64fVYuOiJajGjGn81+q5QFEkhAIS0wQYbJAnRFggi4gDT+jQkhEFY11xzzSES0/0jkCVgBJP2ZVDe2A7CQVY0K4Zw3nzzzSmoyBGMf/ktHESlaymdNDYQZpFakVcRifvSQsR5wgknNF/60pfSfPnLX26+8pWvNP/xH/+RM5aIE5GW+zlBmQC34pEHXTWkhVTPOOOMJBlhciMd/FT5ulY6lTHiN2NqJtFM4Iknnth897vfbW666abX+OuxeNAT1SjB7ASBkBXRII3qphFm2giBJGS6arQAY1g0I4TFD+M5QS4CQWD8CdeUPve6icad9thjj3Sji4f8SkBpWcIRhrBrNqyu0smde27APYLwu0hSuJZDWBZw0UUX5fX0009vfvCDHyTxVldTGueGcqtcpFNa9txzz2bzzTfPtAifZigNCFsaKh2F+q08EdLxxx+f5ISkLGlAWsKQhyq/MjC7MHssHPREtZih0Wvs1fi7wkAYjTG5J2ylMRmvQh66b9wgFcRDSK0xIryEj8bjOWHllx2txjgOe2M77IvMdCvZ8WdMCgGw97vSiIAQW8Fv9sIQvvD4QzalyYiLfxqhwfY3vvGNuZbJoPvhhx+exhgZsuGOmRuKfMQjPkRC23v729+eaaAZfv/7389ykY4Kl5EmkN4qW/HTyA477LAMg3nzm9/cbLnllukfiqy6GP67x8JBT1SjAF3B1PCr8RN+Qu43YUEKZtOQFXuzf7QUYzzGl4w1EVaCh8wIMJJxrS6QQfhnn302wzKu9c///M+5iPKzn/1srpHiXny6YuLnR1jcA4Lk37MaqEcMXSF273kRnd+uBuF///d/Pxdw/vmf/3maz3/+882f/umfJklIt3RyPzd0CdKVH+kwY0ezsjwD2V577bVD+ZAGV6gyr7QecsghmTZGWUjTH/7hH2a6EFr5B9e677Fo0BPVKEEJuWsZ2gJBck8wEQYBtByAvQWYhFG3z7gUjaU25RJ6prSqEi7alLEtwmcMh1ZGI6tBbuF6Zhyr1mXpHhr7oamJk58iQ0Iunfy4F597bqW57uVBWJU+4bnnpzQ0cfNTpDgnVHeTX+EhRf78fs973pOkRZuyMr7yL/wu+GfnufxIk/IVTpVD5aMIriC8HosOPVEtRhAUAgYavt8EBtwTesLGDaEhfATJfjwkYbW1qXjEs+2222a3Tzgl7EiAEDL8IyIEJFzk86EPfaj54z/+49QcmN/7vd9LjQTxIDELKLk1eG48S9y6VMiRAQJcAl95ELdrEa30MyXsrtWl5ZY/du6B2wpPnl2loyDccs+tfAqLQX66wG9961vzucWxJhqEB9wLD7h3z12lw1XY7hn3/JRG6r78Vpg9Fj56olqMIAgIROPX8EvoSkCKaIqkuPGGRzJmuTyzANPYjr1/xpeAe5oFoeMG6QjbwDByI/RmD3WRjBfZg2fMCEm5lgAa4OZXWownIQBEKk6DzvbPCavyIT6wTKLyAeyl22/p8Ls0oRL4ugdxcCNshr38SwcUYSAsEFaVj3it4LeiXJnopiLoIhrxiK/Klh/+3evWugK33HlRdDVGkDbhVPw9Fj56olqM0NhL6FwJqPuyJ/AEtYjHc4Jl0NuKacJHM6FJWWPFDeHiDjEQLMLktzDNbBE8mpHBY7OEwua2tDWaGXvx076sKxKP8aU3velNSZDWG5nOt9Tg3/7t35rvfe97aWyetuzAZmezkiC98sRIGyF3LVNdqyIQqHtpY6DcgCt/nlU4XfJwRarGl4zpDScYhl95Fg4Yk5P+r3/967lc4j//8z9z5u+UU07JLnCluwjMVTg9Fg16olrM6Aoa4SEAQOC83RGLK6FAONwSMONU7BCBI1V0z8qfMIRXRIbsdA915ayHMp5l/ZStIcJDIsIBWplBecJtPMrSB2nQpaJ9HXXUUbkKXNw0LjNrhLvWHyGvSy+9NNdeVdjSL13iYPj1u9JaRFZumSoTV79pO55XONJXfqRPHqsM2Smrgw8+OLUqcQiDPYifEbZw+EdUlknQFE866aQkKPcmGMyUgvD5K+ITLsOux8LFuM997nN/OrjvsRhQBKHBQwmyq24LrYpWsMsuuyQhFZm5ElrdQJqDmUDaAeEjePxxQ7MwpkVQkQ4ioo3ttddeec+98AghlBDzT3syNiVs2hqNi+bGnlYnXTU4jjyNm+lSWuuFSD1HkMISl/SLuwhXvPKJQGhp7Kznor0hGOEiWivpkaowkaR0sDdeJo+0QyvTzXgKo8pUnPItHunljsZoPZqy4x9x16bsWvQqHOmoCQp+5Aukqa7CEH/F12PhoT+PapSAgGn8JQiEiyDZIEyQCQ0hAm7YIQFXY1RMkRch9oxBMIiGnaUMhMrsFkGscZ2CcP2mvdAi/OYfWQm7yIWhwSAQmhPNDSEgIEKOFBh+pUH3kXvxIk7hMNxLv/ta/S79xphoiOIXNs0O2bFHkgiZVlNbXRAX9/IjPP4YQPbCln/PlaNwPGcvbAQrHulB2NLgubDkW7kj3SIm+Zdmea6uY09WCxc9UY0CaPgaPeHoEgKwK8FmR1gIEwEpgWJPcF0JDEPoXMtNaUzcua/wyi+h5Ef8frvnpgS/wi5/7Cou4A/E53k3XtfKQ9lVOqDC4a9+c1dxF6F17YQF3fA981ta3CvTGrcrt+4r/G56uOXPPb/gWYGfspdO7uSxwuq67bHg0RPVKIBGrtGXsJcwEQimfpegufpNS3BfpCIc7ktw2DHAPZSQETqGu4q3CIp2QcClqUii/NcVihBoS7SVSheIx303HnbuK0xwz12ltdIPlQdX7ivMel5x1XNX4UERD0gf+C2MioP/Ikz+XT2rtFT43TQBt6VJFSF3n/dY8OiJajGiGjeh0PgJUglmPSMIBIUQFZG4R1KEhZ8SthIsEJ7f7Bnh6dKVgBXJlIAKV9wVH7+e8ecZ+2544vQcoXGDGPgTrjEyV+64qfiAO0BsFSZTBFH3lf/ZlY3nDP9QYXsOlU5p5M49f9y7+s1t1z0DXffsuKmrdOgmygO7CgvKf4+Fg56oRgGqkdeVADCEpitQJUTcFQGU0MHwcEA4XXTDBm674XfDBb+74XHT9Qv1m1v37MsUxFl2FTZUethXXrt2TIUpfPb8V5zclzvwvFB23JY9u/Iz3L4bRtd0/Qx/Bl2/PRYOeqIaBSAwRTiE0RUIwnDCKOEoN/yW0M4J/JVAzU6o6nk3bmBX6avfjPQMJ456xq78Q/0uNzQd6Lqt565VDhWvK7vZaUQVBjum0sC/3xVemXJbYUoLO1qZK1NhMFD2lf4Kv8KseHosPPREtZjRFYoSBlcCQBgIEDv3XTfuwe/u/dxQbisscGXEWajfjPgIY6H8VViF8l/PocKo+IRV41Jl6jlww5S9+yKWsivDjin3XT/si+z8Zu95PSu3lS+/u9cCN1DhQLlhV2EN99djwaInqsUIDb+EqCtgXYEoAXCt54V61hXCOcHzMhV211/dM+KpcEtY3UM9L39QeRhOaEw3HgaB1H33eaHCrjDdV765K7sywK7CKPelgXXduVYY3d/D/Xb91LOuPyh3Xf89Fg56olrM0MA1eIYQDNecCl2hGS4UXaEajq7brpsKZ3hYhRJC4KZLDsP9lH2hSKPCYMqu7itvfld49bx+F+lx3w2zwh1uz335Z+83snJf/ips7ioMYF927iuMsit0f4/kpseCR09UixHdhk6ICuzrWkLAlHvo+mFffqB7D9wSWn7rWTfcQoXDcFvCDZVOGB5+N0zxFNmW/wrPlRvd2eF23XSwr/i79sPBL5QbV3Zlz38RlXQx4HfFyVR8FQ5U+spNheu+8lXueix89ES1mFGCUkJAmLrCzZS7rrAMF7ouys1wVDxQ8UCFC+Wv67bi5r7uuyj/le56XnHMLh8Vvt8jpaV77zl3fiPCsqs4Kw73ZV+/GfGwc4Xy43c3LeW3wL5QYXXdupZdj4WHnqgWM6rBExZvf4st3dM6ao3ScCEokuLWYsbhgsXPcCOsEii/K06zXt04rW+y1oq7rgBX2NxHm8m01jPpEf7wOBhhCL9m1wykC589SEc3LcL223ol4bKXx7IXhzDcV9qlhVvh1rMKX5yeW9vFjn9hs+e/wA87YC/Obrnww2+RZYXPn989Fi56olqMKKEmXITEvjUnD9jfZ++aDbz2mREKz4sAShDtdbvyyitTqCosxnPCVUJmg6+NviXQrtyIx0Zle/H4s1/Q5l778aA7a+a5kz0dX1x78giy8Pizadj+Pn7tpxMv2E8nDofXsbNnzvlXBL/CB3v5fP3GfkQbhG1sdtyMeJyj5Yga/nfffffcRIyUpMeJpfbz2RxtT2OdfspfpcF+Pv65czKEPCKdIirupKNOOXVml7LhXljSan+g/ZHK0lX43TrpsXDRE9ViRjV2Ao94/uf//J95fAqS8llxpwV0BbqIiD/u/uRP/iSJgz0QLGERPoJIIJ2J/o53vCO1Eva0C/a+fPzNb34zz1Fnb3Pvcccdl59kFw6DRIFgOsLFmU3IpzYAixdpSA+CcWaV88edOiAOxxw7AsZxKQQeAf/Wb/1Wfom4tEFx2+Ds81m+yYdsPvaxj+VXceTtW9/6VvO1r30tNzU709xpEe4dy+LLMQ7yQ5ROhPjN3/zNvAdhS59P0Ttjytny8vbBD35w6BhkzxnpPP/885PQEFsdKwNVnojTJ9/lEUmzq3LvsXAxq8/QY4kFgaPVECQnHSADpIEsaB8EF9EgjiIrIOBIx29EgzgcEudUT8LJPX/C95zfIi+H9SEkpOEYFO6F57A5ZOPkhyI7hOE5oaa9OVivjqERPntxcMMUQcwN3ArDFfkimcsuuyzjE0bFLe31uwv+xO8DED444Twt5C8tzuvabbfd8ngdWhhNEJQJiFecIPweCxc9UY0BECxnPf32b//20Ndd/vZv/7b5whe+kGeh01BKcyiioanQInRvdGWQmnCc6km7KW2khLuEEVnRphDU5z73uebP/uzP0jhvnTB75hx3x8QUYTDVvRWH89brs+tlz18RCn/zAv75QRrunWn1wx/+MDVTWh4SEp58cFcGXOUNMf/DP/xD5hu561r+zu/8Tn6F5o/+6I9Sw63rRz/60SRlQHLzms4e84++pMcACCSBN45Co6qvHztUz4FvBJDg0pi4I2AE07gRGL9yfjrQeIz9gO4Nt4iAsINwihhoFAReN8yZ6oSce9oUTa38Sx8jHdKHrGgvxoKKRErjKSKZFyCLGieTV11XaXcsMohbmEwRi/vKiy7eN77xjez68uuAwf/23/5bnrfugEDjg1WOuuJOONVllHddQ1qsMCu8HgsPPVGNARAWhpAzdU+ASqMAVwLrmUFxA8eErU7IJIQ0LF0oINTdsMrObxqQsJAf4vHbGBRC6qah0sY/wfcBCfe6ib6aTOCFiXC4Z6R5XoAwi6SRrTxIj/EwA/DS59nwMgAkS6M00G/wHyEZy6NdSoP0SJsuap1Sym+Vn3ilm+mx8NET1RhAaThIRreN0Q1ypd0QVGRCGwLdPrNrxqKcyGm8yZUWQUDNpOk+CbeIg5AWMdTYDBJgCK+uXn0EQXjGy5AXf8JwRVjGfBCj9Jx55plJFNJu7Ec8wuduXlBuGTOOBuilEbEY+FceRZLC7pKKvNO+lI8868oi6iIi4UgTIqcxImFheSbP3BZRCb/HwkVPVGMABMgg8Be/+MXmr/7qr3Jg2PjR3/zN3+SHF5AWAQNXmoQZMPe6icanaBU0EkKo++djB0AISxBrlo4AI0ED11dccUVz+umn5xeXdSeR4aGHHprdJf7EwSAmZEGr8s097nQP+dUFRBBQfuYF3bClu7qwwpAuSz1oRUVW5R7kBRmDyQZdUmlAPNKJjC2XMDFw3nnnNRdddFFz7rnn5swgIqz0Fnn1WLjoiWoMgJASSJ94R1hldOF08WgsBMsVaBKE1LiMdU+6PQbCrRGiPXBnwJvGAl2hpGkQYkRgEPpf//Vfc4kAYjMGZfre11+EAwiCEYartPp2oMF/Au6zW/zSapAXN13NZyRwIyxpQlRAk0OSwhXe2WefPTSrKf4iFX75QVYgTmQlvNIeaVy6kP/0T//U/Mu//Eu+BCzlMFhf5Qg9SS0a9ES1GFGNnOAQDoLURdl3haHuXQlbCapu25FHHplfPz722GNzPdT73//+5m1ve1t2WwpIxviNMRf2uj6IgkFeRTA+rUVzAHFIR5ENAiPUBu+LJIUrvbpK1S0qoXcvvYzfxoGkq8bEkJ7xMvFUXOW+UH6rTKD723PEa93Z3nvvneH4SjIiVD7Szm3XP7CXHyem1m9hITfh6VLqwkqn7jJNstJVaeqx8NET1WIGgYISumr8JQBlX/cl/ECY+GdnTMg4i+/uvetd72re/e53p7HWicCVxkLQDGQTXlrDhRdemAstv/KVr+TgNjvx6S7S0PirsSD27gkuQvjVX/3V5iMf+UjGRyvjR1fJeBV33by4LxJyNUuom4YYEKeZt0ojVJ67EEYRSYUtLH5cGWNtSFAXk8aky2aVOX/Q9YMolR34YKo0V3o9s7Dz4x//eHP00UdnV1aciBmkj192PRY+eqJajCAQGnsJmcbvys59CQF3BffsuSFsJVwEiDajC8PQdmgD7Dyr8JCC7pB7wigMBEEjEnctbGRHyypNyTN+XPlBjFaCm7K36t3iSGnSZTQYr3uESPlhQDggDITy9re/PbUr6aHBVTeNu3IL/Jddl3CqLIRXv/lHomYX5c84U3V/Ky3CUC7Gpfzmj+ZlbE4cFY6Fnrb7WDuF7Iuw5bPQTWePhYeeqBYjCEQ1egID7AhDCWT33rW0KO4ICf+0Iyh7doz7AnLhTnfIrB/BQzIWMf7ar/1aGuNLuo8EXFeoiKrCLbgvAWeQmzVUwuSPJkYzK3fSXWn1u8jIfj5khzRoVLp/5aeblyob91DxCgN5yFf3mXTQqnSHpd94nW5spRmQuXEy68yQGAKnfXHXLU+o+MpvXeWra99j4aEnqsWIEtoSRA2ekOhaERKzYRYl6q7pmhBkV2/+0pK4LRKqJQm1qdZv9zQVYRNCs326RLpGyEV3kdbgqjtGE6kZMHEzwkYIDKEWb3WBikisfif8SEIctSwC5EV4/JRwC0PeEYoBfYQifezNKnbduZdH4YiLKRJxX+Fy67d00oJ03cxmKgt5FkaFKw7dOQP/wmJnoNwMn9lLZafcXJGuMPmFIlr5Y1dp6bHw0JfwYgYB0eBdCRxB0/iR0o9//OPcjGtD7X/+53/mlSFMQHj449640BlnnJErvhkbgW3mtZ7IuBF3BNCAuW5dzfYROCTBDiHpMprmFybtyD642peHFKVRevljx510CIsG47cxMIRZmglyY6SBv/IrLDONyJFWVukQXhEgEvCbKXJgzxTqt+fde8sgnKjgt7RU3JUOeTWmZ/2VCQEvAMs57Fc88cQTc52XMrUsAfnyV+Qk/dJW4fZYuOiJajFD4+8KFyEg1IT9kksuybe8LSGnnXZanlzgxADdN/5oCUiEP0RlOv2kk07K5QLf+MY3Uuj4sd5JuNYV0bAQBAGmbdAyaEFIiHFPOwLpMHZjxqsIqQSzSyR+MzZAc0cLkf4amC9/dS0/daXV6IaVZoisKnzhsZMWdsjMtfy7l76Z4Qd5+F1+jKMddthhmU9xFxkXhIGsPvvZzzbvec97hsbnnCqhDC29sDzBWi9aWWmM1a0VH81MOnosXIz73Oc+96eD+x6LGASxtChGV4NAGAS3ENMKbgLMIJYtt9wyB3gNXFucSWB0l4yzcO85DYUb16575HP11VenYBobspbJKQsl3EiPwBFyY1TC9VwXUVz8SR8gJFqXeAm+PPBnHZU0ST83tCzPhE3I+bFnTvhIgsZG0D2Tf0QpTu6kUXgIRjcSicmPle0WqEorLQj5cLdThKu85IURFr+6sd00KQdlKbwqd8s0aFWOlZFPaTDYj+DEJVzxWqNlH6D6GE6oTI+Fh/48qsUMAkugvKnrre9tDRp/dTdcCT33fhN27qtLxS3hZQcIqMImtAasu1tKShMoQRM2t8jDWqoXdMMibALNPz/d9BFufvgXF3vhSA8I23Pgj2Dzh5SgxoyAW78rbyDOygMtihv3tZWFkdYiSr/FL0zxIc4Kz5U7boTJcFtxsZduV6g4K7xC+eWv7IXLHdNj4aEnqlEAAlxC4r7b6P1moOwJ0kiCMdxthSf8uu9eC/Vb2IQcyl3dd9G1Hyms4WDXJYMKYyT3hfLnWm67fuq+6+6XRYXJQKWvfnfj8qxbXz0WPnqiGuVYUIJQAtejx5KInqh69Ogx6tFPV4wRVDdlJNOjx5KMXqPq0aPHqEdPVKMc86IN9QO6PcY6+q7fKEdPQj169BpVjx49lgD0RDUG0HcPe4x19ETVo0ePUY9+jKpHjx6jHj1R9ejRY9SjJ6oePXqMevRE1aNHj1GPnqh69Ogx6tETVY8ePUY9eqLq0aPHqEdPVD169Bj16ImqR48eox49UfXo0WPUoyeqHj16jHr0RNWjR49Rj56oevToMerRE1WPHj1GPXqi6tGjx6hHT1Q9evQY9eiJqkePHqMcTfP/A7voMCXB84WoAAAAAElFTkSuQmCC;" vertex="1" parent="1">
          <mxGeometry x="312.34" y="900" width="155.31" height="160" as="geometry" />
        </mxCell>
        <mxCell id="PoTzArwX_vz-64FjDAHw-7" value="&lt;font style=&quot;font-size: 31px;&quot;&gt;User&lt;/font&gt;" style="text;html=1;align=center;verticalAlign=middle;whiteSpace=wrap;rounded=0;" vertex="1" parent="1">
          <mxGeometry x="320" y="40" width="60" height="30" as="geometry" />
        </mxCell>
        <mxCell id="PoTzArwX_vz-64FjDAHw-9" value="&lt;font style=&quot;font-size: 21px;&quot;&gt;분석할 패킷&lt;/font&gt;&lt;div style=&quot;font-size: 21px;&quot;&gt;&lt;font style=&quot;font-size: 21px;&quot;&gt;(.pcap)&lt;/font&gt;&lt;/div&gt;" style="text;html=1;align=center;verticalAlign=middle;whiteSpace=wrap;rounded=0;" vertex="1" parent="1">
          <mxGeometry x="400" y="274" width="170" height="130" as="geometry" />
        </mxCell>
        <mxCell id="PoTzArwX_vz-64FjDAHw-11" value="&lt;font style=&quot;font-size: 31px;&quot;&gt;Server&lt;/font&gt;" style="text;html=1;align=center;verticalAlign=middle;whiteSpace=wrap;rounded=0;" vertex="1" parent="1">
          <mxGeometry x="110" y="700" width="270" height="120" as="geometry" />
        </mxCell>
        <mxCell id="PoTzArwX_vz-64FjDAHw-12" value="" style="endArrow=classic;startArrow=classic;html=1;rounded=0;" edge="1" parent="1" source="PoTzArwX_vz-64FjDAHw-4" target="PoTzArwX_vz-64FjDAHw-3">
          <mxGeometry width="50" height="50" relative="1" as="geometry">
            <mxPoint x="510" y="860" as="sourcePoint" />
            <mxPoint x="560" y="810" as="targetPoint" />
          </mxGeometry>
        </mxCell>
        <mxCell id="PoTzArwX_vz-64FjDAHw-14" value="&lt;font style=&quot;font-size: 31px;&quot;&gt;Model&lt;/font&gt;" style="text;html=1;align=center;verticalAlign=middle;whiteSpace=wrap;rounded=0;" vertex="1" parent="1">
          <mxGeometry x="120" y="930" width="210" height="70" as="geometry" />
        </mxCell>
        <mxCell id="PoTzArwX_vz-64FjDAHw-15" value="" style="endArrow=classic;html=1;rounded=0;" edge="1" parent="1" source="PoTzArwX_vz-64FjDAHw-1" target="PoTzArwX_vz-64FjDAHw-2">
          <mxGeometry width="50" height="50" relative="1" as="geometry">
            <mxPoint x="510" y="280" as="sourcePoint" />
            <mxPoint x="560" y="230" as="targetPoint" />
          </mxGeometry>
        </mxCell>
        <mxCell id="PoTzArwX_vz-64FjDAHw-16" value="" style="endArrow=classic;html=1;rounded=0;" edge="1" parent="1" source="PoTzArwX_vz-64FjDAHw-2" target="PoTzArwX_vz-64FjDAHw-3">
          <mxGeometry width="50" height="50" relative="1" as="geometry">
            <mxPoint x="510" y="630" as="sourcePoint" />
            <mxPoint x="560" y="580" as="targetPoint" />
          </mxGeometry>
        </mxCell>
        <mxCell id="PoTzArwX_vz-64FjDAHw-17" value="" style="curved=1;endArrow=classic;html=1;rounded=0;" edge="1" parent="1" source="PoTzArwX_vz-64FjDAHw-3" target="PoTzArwX_vz-64FjDAHw-1">
          <mxGeometry width="50" height="50" relative="1" as="geometry">
            <mxPoint x="510" y="420" as="sourcePoint" />
            <mxPoint x="560" y="370" as="targetPoint" />
            <Array as="points">
              <mxPoint x="740" y="630" />
              <mxPoint x="740" y="190" />
            </Array>
          </mxGeometry>
        </mxCell>
        <mxCell id="PoTzArwX_vz-64FjDAHw-18" value="&lt;font style=&quot;font-size: 31px;&quot;&gt;탐지 결과 전송&lt;/font&gt;" style="text;html=1;align=center;verticalAlign=middle;whiteSpace=wrap;rounded=0;" vertex="1" parent="1">
          <mxGeometry x="590" y="300" width="210" height="130" as="geometry" />
        </mxCell>
        <mxCell id="PoTzArwX_vz-64FjDAHw-19" style="edgeStyle=orthogonalEdgeStyle;rounded=0;orthogonalLoop=1;jettySize=auto;html=1;exitX=1;exitY=0.5;exitDx=0;exitDy=0;" edge="1" parent="1" source="PoTzArwX_vz-64FjDAHw-18" target="PoTzArwX_vz-64FjDAHw-18">
          <mxGeometry relative="1" as="geometry" />
        </mxCell>
      </root>
    </mxGraphModel>
  </diagram>
</mxfile>
